<svg width="120" height="120" viewBox="0 0 120 120" fill="none" xmlns="http://www.w3.org/2000/svg">
<circle cx="60" cy="60" r="59.5" stroke="#04385D"/>
<path d="M87.0323 74.84V74.8713C87.0166 76.9483 85.4365 78.6158 83.5184 78.6158H37.1067C35.179 78.6158 33.5927 76.9315 33.5927 74.84V46.0511C33.5927 43.9596 35.179 42.2753 37.1067 42.2753H83.5183C85.446 42.2753 87.0323 43.9596 87.0323 46.0511V74.84ZM83.5184 39.3581H37.1067C33.6483 39.3581 30.85 42.3716 30.85 46.0511V74.8401C30.85 78.5195 33.6483 81.5331 37.1067 81.5331H83.5183C86.9767 81.5331 89.775 78.5195 89.775 74.8401V46.0511C89.7751 42.3716 86.9768 39.3581 83.5184 39.3581Z" fill="#04385D" stroke="#04385D" stroke-width="0.3"/>
<path d="M54.9285 64.4831H40.5715C40.1641 64.4831 39.8246 64.7709 39.5953 65.1721C39.3636 65.5776 39.225 66.1277 39.225 66.7268C39.225 67.326 39.3636 67.876 39.5953 68.2815C39.8246 68.6827 40.1641 68.9706 40.5715 68.9706H54.9285C55.3359 68.9706 55.6754 68.6827 55.9047 68.2815C56.1364 67.876 56.275 67.326 56.275 66.7268C56.2749 66.1276 56.1363 65.5776 55.9046 65.1721C55.6754 64.7709 55.3359 64.4831 54.9285 64.4831Z" fill="#FBA707" stroke="#FBA707" stroke-width="0.3"/>
<path d="M85.4374 56.2581H35.1876C32.8761 56.2581 31 55.32 31 54.1643C31 53.0086 32.8761 52.0706 35.1876 52.0706H85.4374C87.7489 52.0706 89.625 53.0086 89.625 54.1643C89.6246 55.32 87.7489 56.2581 85.4374 56.2581Z" fill="#04385D"/>
<path d="M85.4374 56.2581H35.1876C32.8761 56.2581 31 55.32 31 54.1643C31 53.0086 32.8761 52.0706 35.1876 52.0706H85.4374C87.7489 52.0706 89.625 53.0086 89.625 54.1643C89.6246 55.32 87.7489 56.2581 85.4374 56.2581Z" stroke="#04385D"/>
<path d="M77.0614 60.4456H74.2698C71.961 60.4456 70.0823 62.3243 70.0823 64.633V67.4247C70.0823 69.7334 71.961 71.6122 74.2698 71.6122H77.0614C79.3701 71.6122 81.2489 69.7334 81.2489 67.4247V64.633C81.2489 62.3244 79.3701 60.4456 77.0614 60.4456ZM78.4573 67.4248C78.4573 68.1953 77.8319 68.8207 77.0614 68.8207H74.2698C73.4993 68.8207 72.8739 68.1953 72.8739 67.4248V64.6332C72.8739 63.8627 73.4993 63.2373 74.2698 63.2373H77.0614C77.8319 63.2373 78.4573 63.8627 78.4573 64.6332V67.4248Z" fill="#FBA707"/>
<path fill-rule="evenodd" clip-rule="evenodd" d="M77.0614 61.4456H74.2698C72.5133 61.4456 71.0823 62.8766 71.0823 64.633V67.4247C71.0823 69.1811 72.5133 70.6122 74.2698 70.6122H77.0614C78.8178 70.6122 80.2489 69.1811 80.2489 67.4247V64.633C80.2489 62.8767 78.8178 61.4456 77.0614 61.4456ZM79.4573 67.4248C79.4573 68.7476 78.3842 69.8207 77.0614 69.8207H74.2698C72.947 69.8207 71.8739 68.7476 71.8739 67.4248V64.6332C71.8739 63.3104 72.947 62.2373 74.2698 62.2373H77.0614C78.3842 62.2373 79.4573 63.3104 79.4573 64.6332V67.4248ZM74.2698 60.4456H77.0614C79.3701 60.4456 81.2489 62.3244 81.2489 64.633V67.4247C81.2489 69.7334 79.3701 71.6122 77.0614 71.6122H74.2698C71.961 71.6122 70.0823 69.7334 70.0823 67.4247V64.633C70.0823 62.3243 71.961 60.4456 74.2698 60.4456ZM77.0614 68.8207C77.8319 68.8207 78.4573 68.1953 78.4573 67.4248V64.6332C78.4573 63.8627 77.8319 63.2373 77.0614 63.2373H74.2698C73.4993 63.2373 72.8739 63.8627 72.8739 64.6332V67.4248C72.8739 68.1953 73.4993 68.8207 74.2698 68.8207H77.0614Z" fill="#FBA707"/>
</svg>
