<svg width="120" height="120" viewBox="0 0 120 120" fill="none" xmlns="http://www.w3.org/2000/svg">
<circle cx="60" cy="60" r="59.5" stroke="#04385D"/>
<path d="M68.7676 35.5081C69.181 35.6413 69.4484 35.918 69.6351 36.3124C70.8035 38.7745 72.009 41.2186 73.1523 43.6921C74.9698 47.6242 76.7544 51.5719 78.5379 55.5202C78.7999 56.1 79.0045 56.7092 79.1852 57.3202C79.3653 57.9283 79.2301 58.274 78.6665 58.5717C77.5483 59.1623 76.4206 59.738 75.2749 60.2716C69.47 62.9768 63.6602 65.6718 57.8475 68.3608C52.4332 70.8655 47.0129 73.3583 41.5956 75.8582C41.1469 76.0653 40.6802 76.1427 40.2489 75.8834C39.9982 75.7334 39.7463 75.4975 39.6213 75.2388C38.4445 72.8031 37.2671 70.3673 36.1442 67.907C34.146 63.5296 32.1867 59.1353 30.2106 54.7489C30.1424 54.597 30.0706 54.4464 30 54.2951C30 54.115 30 53.935 30 53.7549C30.2333 53.1337 30.7508 52.8276 31.3096 52.5677C40.0568 48.5029 48.7963 44.4208 57.5549 40.3819C61.1397 38.7289 64.6635 36.9372 68.3488 35.5081C68.4882 35.5081 68.6282 35.5081 68.7676 35.5081ZM41.5962 72.5864C53.029 67.2858 64.411 62.0086 75.8523 56.7044C73.1224 50.7778 70.4068 44.8824 67.6817 38.9672C56.2483 44.2809 44.889 49.5599 33.4729 54.8659C36.1849 60.7823 38.8795 66.6597 41.5962 72.5864Z" fill="#04385D"/>
<path d="M50.9992 84.3663C50.6122 84.3513 50.2257 84.3357 49.8386 84.3213C48.6439 84.2769 47.4479 84.2469 46.2538 84.1844C45.3444 84.137 45.0345 83.8333 45.0208 82.9198C44.9974 81.3604 45.0172 79.7998 45.0256 78.2398C45.0262 78.1636 45.0662 78.0441 45.1225 78.0177C46.0211 77.5946 46.9256 77.1834 47.9146 76.7302C47.9146 78.3088 47.9146 79.8106 47.9146 81.3328C60.5188 81.3328 73.0555 81.3328 85.6137 81.3328C85.6137 74.8137 85.6137 68.2977 85.6137 61.7522C83.9098 61.7522 82.2012 61.7522 80.4919 61.7522C80.4817 61.7312 80.4716 61.7102 80.4614 61.6892C80.5398 61.6268 80.614 61.5589 80.6965 61.5031C81.5479 60.9317 82.0977 60.1508 82.3053 59.1412C82.3519 58.9132 82.453 58.8483 82.6858 58.8501C84.2807 58.8621 85.8763 58.8603 87.4713 58.8513C87.6801 58.8501 87.8231 58.9156 87.9631 59.0644C88.173 59.2871 88.4064 59.487 88.6301 59.6971C88.6301 66.8799 88.6301 74.0622 88.6301 81.2451C88.5978 81.8208 88.5805 82.3982 88.5308 82.9726C88.4512 83.8945 88.2119 84.1376 87.2876 84.1862C86.1078 84.2487 84.9257 84.2775 83.7447 84.3213C83.3588 84.3357 82.9735 84.3513 82.5876 84.3663C72.0582 84.3663 61.5287 84.3663 50.9992 84.3663Z" fill="#04385D"/>
<path d="M65.3113 71.946C65.3113 71.5774 65.3113 71.2521 65.3113 70.916C65.8395 70.8794 66.3558 70.85 66.8703 70.8043C67.0163 70.7917 67.1856 70.7677 67.2933 70.6837C67.3986 70.6009 67.4991 70.4292 67.4884 70.3068C67.4794 70.2035 67.3143 70.0415 67.2072 70.0318C66.7124 69.9868 66.2135 69.9844 65.7157 69.9694C65.5787 69.9652 65.4417 69.9688 65.3035 69.9688C65.3639 68.865 65.9 68.206 66.8303 68.0337C67.3185 67.9431 67.6978 68.0973 67.97 68.4995C68.1321 68.7384 68.2565 69.0019 68.4067 69.2486C68.5999 69.5673 68.8476 69.6423 69.2885 69.5475C69.6218 69.476 69.6852 69.2215 69.7193 68.943C69.7803 68.4473 69.6499 68.0181 69.3023 67.6502C69.1354 67.4731 68.999 67.2666 68.8231 67.0409C69.4489 66.748 70.0232 66.4791 70.5976 66.2102C71.1659 65.9443 71.7366 65.6838 72.2996 65.4077C72.4677 65.3249 72.5772 65.3381 72.7148 65.4719C74.1518 66.8693 75.0217 68.5721 75.2018 70.5576C75.5111 73.9663 74.2859 76.737 71.4196 78.6367C68.9003 80.3065 66.1195 80.6144 63.3872 79.3359C60.4013 77.9386 58.5981 75.5371 58.3415 72.129C58.3295 71.9736 58.3457 71.8787 58.5102 71.8037C60.0423 71.1075 61.5685 70.3992 63.0983 69.6975C63.2215 69.6411 63.3537 69.6051 63.5159 69.5475C63.5201 69.8314 63.395 69.94 63.1647 69.9676C62.8225 70.0084 62.6179 70.2263 62.4773 70.5222C62.375 70.7371 62.4557 70.8434 62.6783 70.8668C62.7178 70.871 62.7591 70.8692 62.7974 70.8788C62.9649 70.919 63.2568 70.931 63.276 71.0096C63.3382 71.2617 63.3125 71.5402 63.2885 71.8055C63.2837 71.8565 63.1372 71.916 63.0486 71.9334C62.7345 71.9934 62.515 72.2245 62.4869 72.5378C62.4671 72.7593 62.6137 72.8097 62.7806 72.8361C63.4297 72.9399 63.4231 72.9405 63.5613 73.5984C63.745 74.4759 64.1919 75.1974 64.8327 75.8234C66.1291 77.0899 69.419 76.6673 69.9939 74.1986C70.107 73.7124 69.9389 73.3085 69.5673 73.1158C69.215 72.9333 68.9535 72.9724 68.734 73.2995C68.5012 73.6464 68.3044 74.0185 68.1016 74.3847C67.8491 74.8397 67.4824 75.0942 66.9529 75.1224C66.4181 75.1512 65.9981 74.9477 65.7695 74.4765C65.5757 74.0768 65.4608 73.6374 65.3298 73.21C65.2646 72.997 65.3986 72.8853 65.5972 72.8721C65.885 72.8523 66.1746 72.8583 66.4629 72.8421C66.6807 72.8301 66.9086 72.8337 67.1121 72.7671C67.2538 72.7209 67.4142 72.5924 67.4734 72.4598C67.617 72.1356 67.4931 71.9562 67.139 71.949C66.5425 71.937 65.9448 71.946 65.3113 71.946Z" fill="#FBA707"/>
<path d="M54.5698 64.2246C50.5776 64.3549 46.1552 61.0182 46.157 55.6876C46.1582 51.1469 49.9548 47.3655 54.443 47.2532C59.1028 47.1368 63.1304 51.0815 63.0969 55.7957C63.0675 60.0705 59.5587 64.3453 54.5698 64.2246ZM52.967 51.417C52.8288 51.1787 52.6823 50.8948 52.5052 50.6319C52.4017 50.4777 52.23 50.2838 52.0451 50.4278C51.935 50.5137 51.8991 50.7646 51.9189 50.9308C51.9446 51.1427 52.0475 51.3498 52.1408 51.5479C52.2306 51.7387 52.1803 51.8738 52.0278 51.9908C51.9566 52.0454 51.8812 52.0947 51.8082 52.1463C50.4693 53.0946 50.4184 55.106 51.7238 56.0874C51.9296 56.2422 52.2013 56.3593 52.4543 56.3893C53.0167 56.4553 53.5868 56.4619 54.1546 56.4781C54.3281 56.4829 54.4184 56.5441 54.489 56.7044C54.7259 57.2434 54.982 57.774 55.2255 58.31C55.2901 58.4523 55.3344 58.6035 55.387 58.7476C55.0275 58.9186 54.7864 58.8868 54.3951 58.6035C54.1366 58.4168 53.9009 58.1978 53.6401 58.0153C53.259 57.7494 52.994 57.7644 52.6948 58.0357C52.3759 58.325 52.3191 58.5993 52.5632 58.9955C52.7176 59.2457 52.906 59.4978 53.1363 59.6731C53.8136 60.1875 54.5931 60.3382 55.4277 60.1977C55.6311 60.1635 55.8315 60.1125 56.0415 60.0675C56.1217 60.2505 56.1857 60.418 56.2671 60.5764C56.3765 60.7889 56.4878 61.0014 56.6206 61.1995C56.7289 61.3609 56.8809 61.442 57.0837 61.3315C57.2895 61.2199 57.332 61.0626 57.2452 60.855C57.1758 60.6893 57.1124 60.5212 57.0424 60.3556C56.7917 59.7643 56.7941 59.7679 57.2464 59.331C57.7472 58.8472 58.1797 58.3322 58.2814 57.5939C58.4723 56.2098 57.5904 54.9091 56.2599 54.7417C55.7627 54.6792 55.247 54.7531 54.7409 54.7819C54.568 54.7921 54.4723 54.7549 54.3993 54.5862C54.1809 54.0826 53.9404 53.5892 53.7149 53.088C53.6515 52.9476 53.6126 52.7957 53.5557 52.6313C53.9087 52.561 54.1498 52.7351 54.3885 52.8864C54.6236 53.0352 54.8312 53.2285 55.0693 53.3725C55.3703 53.555 55.6012 53.4914 55.8567 53.1997C56.1905 52.8179 56.2366 52.5953 56.0068 52.2993C55.606 51.7831 55.0933 51.4116 54.4352 51.3576C53.9655 51.3198 53.4881 51.3924 52.967 51.417Z" fill="#FBA707"/>
<path d="M55.2263 56.3383C55.8419 56.1427 56.454 56.3594 56.6939 56.8095C57.0127 57.4073 56.844 58.0916 56.2302 58.5766C55.8958 57.8317 55.5661 57.0964 55.2263 56.3383Z" fill="#FBA707"/>
<path d="M53.6785 54.9043C52.9133 54.9967 52.5275 54.8347 52.3193 54.3707C52.1033 53.8893 52.2235 53.4374 52.7213 53.0022C53.1383 53.5814 53.3387 54.2561 53.6785 54.9043Z" fill="#FBA707"/>
</svg>
