<svg width="453" height="415" viewBox="0 0 453 415" fill="none" xmlns="http://www.w3.org/2000/svg">
<g clip-path="url(#clip0)">
<mask id="mask0" mask-type="alpha" maskUnits="userSpaceOnUse" x="24" y="39" width="383" height="371">
<path d="M44.315 352.825C49.8897 367.136 57.3384 379.576 66.2514 390.239C69.294 393.881 72.5045 397.314 75.883 400.539C79.0264 403.561 82.3242 406.395 85.7362 409.041H284.346C322.389 385.675 348.657 348.523 365.167 307.534C365.872 305.791 366.598 304.034 367.33 302.263C381.193 269.022 398.622 236.226 405.292 200.514C417.221 136.718 351.277 117.048 315.323 80.953C302.138 67.7119 294.918 48.0487 275.944 41.8219C254.618 34.821 231.869 43.2894 217.785 60.2061C185.699 98.7314 133.189 139.963 100.963 151.319C37.0207 173.823 -1.16312 236.152 44.315 352.825Z" fill="url(#paint0_linear)"/>
</mask>
<g mask="url(#mask0)">
<path opacity="0.15" d="M44.315 352.825C49.8897 367.136 57.3384 379.576 66.2514 390.239C69.294 393.881 72.5045 397.314 75.883 400.539C79.0264 403.561 82.3242 406.395 85.7362 409.041H284.346C322.389 385.675 348.657 348.523 365.167 307.534C365.872 305.791 366.598 304.034 367.33 302.263C381.193 269.022 398.622 236.226 405.292 200.514C417.221 136.718 351.277 117.048 315.323 80.953C302.138 67.7119 294.918 48.0487 275.944 41.8219C254.618 34.821 231.869 43.2894 217.785 60.2061C185.699 98.7314 133.189 139.963 100.963 151.319C37.0207 173.823 -1.16312 236.152 44.315 352.825Z" fill="url(#paint1_linear)"/>
</g>
<mask id="mask1" mask-type="alpha" maskUnits="userSpaceOnUse" x="37" y="33" width="155" height="103">
<path d="M173.374 33.9325C183.456 34.6932 193.524 42.8721 191.704 53.7707C190.75 59.4926 187.197 64.4471 183.221 68.6611C174.576 77.8229 165.543 86.7424 155.924 94.8877C141.585 107.038 125.713 117.513 108.445 124.978C98.4505 129.3 88.0129 132.592 77.3134 134.605C8.28685 147.57 21.7268 22.529 173.374 33.9325Z" fill="url(#paint2_linear)"/>
</mask>
<g mask="url(#mask1)">
<path opacity="0.15" d="M173.374 33.9325C183.456 34.6932 193.524 42.8721 191.704 53.7707C190.75 59.4926 187.197 64.4471 183.221 68.6611C174.576 77.8229 165.543 86.7424 155.924 94.8877C141.585 107.038 125.713 117.513 108.445 124.978C98.4505 129.3 88.0129 132.592 77.3134 134.605C8.28685 147.57 21.7268 22.529 173.374 33.9325Z" fill="url(#paint3_linear)"/>
</g>
<mask id="mask2" mask-type="alpha" maskUnits="userSpaceOnUse" x="315" y="0" width="103" height="99">
<path d="M316.74 36.2685C313.213 48.3249 316.343 61.3507 324.967 70.4653C374.509 122.804 437.504 95.1302 411.027 49.1462C405.587 39.6949 399.018 30.9168 391.636 22.8994C386.841 17.6891 381.709 12.8154 376.309 8.25131C367.376 0.691648 355.239 -1.85965 344.002 1.37155C332.416 4.69699 323.329 13.7443 319.937 25.3363L316.74 36.2685Z" fill="url(#paint4_linear)"/>
</mask>
<g mask="url(#mask2)">
<path opacity="0.15" d="M316.74 36.2685C313.213 48.3249 316.343 61.3507 324.967 70.4653C374.509 122.804 437.504 95.1302 411.027 49.1462C405.587 39.6949 399.018 30.9168 391.636 22.8994C386.841 17.6891 381.709 12.8154 376.309 8.25131C367.376 0.691648 355.239 -1.85965 344.002 1.37155C332.416 4.69699 323.329 13.7443 319.937 25.3363L316.74 36.2685Z" fill="url(#paint5_linear)"/>
</g>
<mask id="mask3" mask-type="alpha" maskUnits="userSpaceOnUse" x="58" y="187" width="263" height="223">
<path d="M108.003 409.048H262.612C288.437 392.676 333.15 357.382 317.789 316.743C296.585 260.628 288.948 180.703 208.355 188.357C127.756 196.004 142.184 283.583 82.7953 291.237C35.9 297.282 62.5447 377.039 108.003 409.048Z" fill="url(#paint6_linear)"/>
</mask>
<g mask="url(#mask3)">
<path opacity="0.15" d="M108.003 409.048H262.612C288.437 392.676 333.15 357.382 317.789 316.743C296.585 260.628 288.948 180.703 208.355 188.357C127.756 196.004 142.184 283.583 82.7953 291.237C35.9 297.282 62.5447 377.039 108.003 409.048Z" fill="url(#paint7_linear)"/>
</g>
<path d="M410.113 406.503C415.587 406.503 415.681 407.425 410.328 408.556L389.406 412.966C384.053 414.097 375.193 415.019 369.719 415.019H4.16843C-1.3056 415.019 -1.39966 414.097 3.95346 412.966L24.8622 408.563C30.2154 407.432 39.0746 406.51 44.5486 406.51H410.113V406.503Z" fill="#092B67"/>
<path d="M185.732 179.592C185.732 176.664 183.355 174.274 180.426 174.274C177.504 174.274 175.12 176.657 175.12 179.592C175.12 182.52 177.498 184.91 180.426 184.91C183.348 184.903 185.732 182.52 185.732 179.592ZM183.119 179.592C183.119 181.08 181.91 182.292 180.426 182.292C178.942 182.292 177.733 181.08 177.733 179.592C177.733 178.104 178.942 176.893 180.426 176.893C181.91 176.893 183.119 178.104 183.119 179.592Z" fill="#E698AE"/>
<path d="M332.605 155.372C332.605 153.083 330.744 151.218 328.461 151.218C326.177 151.218 324.316 153.083 324.316 155.372C324.316 157.66 326.177 159.525 328.461 159.525C330.744 159.525 332.605 157.66 332.605 155.372ZM330.563 155.372C330.563 156.536 329.616 157.485 328.461 157.485C327.299 157.485 326.352 156.536 326.352 155.372C326.352 154.207 327.299 153.265 328.461 153.265C329.623 153.265 330.563 154.207 330.563 155.372Z" fill="#E698AE"/>
<path d="M283.713 137.93C281.506 137.93 279.717 136.137 279.717 133.925C279.717 131.712 281.506 129.919 283.713 129.919C285.92 129.919 287.71 131.712 287.71 133.925C287.71 136.137 285.92 137.93 283.713 137.93Z" fill="#E698AE"/>
<path d="M139.078 186.883C137.691 186.883 136.566 185.755 136.566 184.365C136.566 182.975 137.691 181.847 139.078 181.847C140.466 181.847 141.59 182.975 141.59 184.365C141.59 185.755 140.466 186.883 139.078 186.883Z" fill="#81C4EF"/>
<path d="M171.428 112.013H168.641V109.219C168.641 108.317 167.909 107.584 167.009 107.584C166.109 107.584 165.377 108.317 165.377 109.219V112.013H162.589C161.689 112.013 160.957 112.747 160.957 113.649C160.957 114.551 161.689 115.285 162.589 115.285H165.377V118.078C165.377 118.98 166.109 119.714 167.009 119.714C167.909 119.714 168.641 118.98 168.641 118.078V115.285H171.428C172.328 115.285 173.06 114.551 173.06 113.649C173.06 112.747 172.328 112.013 171.428 112.013Z" fill="#81C4EF"/>
<path d="M299.573 176.583H297.665V174.671C297.665 174.052 297.168 173.554 296.55 173.554C295.932 173.554 295.435 174.052 295.435 174.671V176.583H293.528C292.91 176.583 292.413 177.081 292.413 177.701C292.413 178.32 292.91 178.818 293.528 178.818H295.435V180.73C295.435 181.349 295.932 181.847 296.55 181.847C297.168 181.847 297.665 181.349 297.665 180.73V178.818H299.573C300.19 178.818 300.688 178.32 300.688 177.701C300.688 177.081 300.184 176.583 299.573 176.583Z" fill="#81C4EF"/>
<path fill-rule="evenodd" clip-rule="evenodd" d="M283.726 138.637L283.719 138.643L284.01 138.935C283.909 138.833 283.814 138.745 283.726 138.637Z" fill="#72B1E7"/>
<path fill-rule="evenodd" clip-rule="evenodd" d="M196.788 115.527V128.728C196.788 130.364 198.131 131.71 199.763 131.71H219.624L224.306 136.395L224.695 136.786C224.789 136.887 224.93 136.914 225.058 136.86C225.186 136.806 225.26 136.691 225.26 136.55V115.527C225.26 113.885 223.923 112.545 222.291 112.545H199.77C198.131 112.545 196.788 113.885 196.788 115.527Z" fill="#81C4EF"/>
<path fill-rule="evenodd" clip-rule="evenodd" d="M140.924 146.176C140.924 148.101 141.643 150.033 143.074 151.535C143.107 151.575 143.147 151.615 143.188 151.656L151.731 160.218C152.45 160.939 153.431 161.242 154.371 161.127C155.063 161.053 155.734 160.744 156.265 160.218L164.923 151.535C166.427 150.027 167.179 148.048 167.179 146.062C167.179 144.076 166.427 142.097 164.923 140.582C163.505 139.169 161.692 138.415 159.831 138.327C159.825 138.327 159.825 138.327 159.825 138.327C159.697 138.32 159.576 138.314 159.455 138.314C157.635 138.314 155.802 138.96 154.351 140.246C154.223 140.353 154.102 140.468 153.988 140.589C152.591 139.243 150.818 138.529 149.018 138.448C149.011 138.448 149.011 138.448 149.004 138.448C148.883 138.441 148.763 138.435 148.642 138.435C146.66 138.435 144.679 139.189 143.174 140.703C141.676 142.211 140.924 144.19 140.924 146.176Z" fill="#E698AE"/>
<path d="M153.795 191.548L154.393 191.238C154.084 190.646 153.795 190.047 153.513 189.434L152.901 189.717C153.184 190.336 153.486 190.942 153.795 191.548ZM152.089 187.859L152.707 187.603C152.451 186.984 152.21 186.364 151.981 185.732L151.35 185.96C151.585 186.6 151.827 187.233 152.089 187.859ZM150.698 184.035L151.337 183.833C151.135 183.2 150.947 182.554 150.772 181.908L150.128 182.083C150.309 182.736 150.497 183.389 150.698 184.035ZM149.644 180.104L150.302 179.956C150.154 179.303 150.027 178.65 149.906 177.99L149.248 178.111C149.362 178.778 149.496 179.444 149.644 180.104ZM148.932 176.099L149.597 176.011C149.51 175.351 149.429 174.685 149.369 174.019L148.697 174.079C148.764 174.759 148.838 175.432 148.932 176.099ZM148.556 172.053L149.228 172.019C149.194 171.353 149.174 170.686 149.167 170.013L148.495 170.02C148.502 170.7 148.522 171.38 148.556 172.053ZM149.194 168.007C149.214 167.334 149.254 166.668 149.301 166.008L148.63 165.954C148.576 166.627 148.542 167.307 148.522 167.987L149.194 168.007Z" fill="#81C4EF"/>
<path d="M167.214 132.498C167.369 132.376 167.523 132.255 167.685 132.134L167.275 131.596C167.114 131.717 166.959 131.838 166.798 131.966L167.214 132.498ZM169.303 130.949C169.847 130.566 170.405 130.195 170.969 129.839L170.606 129.273C170.035 129.637 169.471 130.014 168.92 130.404L169.303 130.949ZM172.675 128.795C173.253 128.459 173.837 128.135 174.428 127.826L174.119 127.227C173.521 127.543 172.923 127.866 172.339 128.21L172.675 128.795ZM176.221 126.937C176.826 126.655 177.43 126.385 178.048 126.123L177.786 125.503C177.162 125.766 176.544 126.042 175.932 126.331L176.221 126.937ZM179.909 125.389C180.533 125.16 181.165 124.938 181.803 124.736L181.595 124.096C180.95 124.305 180.312 124.527 179.674 124.763L179.909 125.389ZM183.717 124.164C184.362 123.989 185.007 123.827 185.658 123.672L185.51 123.019C184.852 123.174 184.194 123.336 183.542 123.518L183.717 124.164ZM187.619 123.268C188.271 123.147 188.929 123.04 189.594 122.945L189.5 122.279C188.828 122.373 188.157 122.481 187.498 122.602L187.619 123.268Z" fill="#81C4EF"/>
<path d="M96.0413 277.511C96.0413 277.511 88.1291 230.053 73.366 232.873C58.6029 235.701 96.0413 277.511 96.0413 277.511Z" fill="#E698AE"/>
<path d="M96.2287 277.451C94.9458 273.58 93.5152 269.925 92.0308 266.518C92.0241 266.491 92.0174 266.471 91.9973 266.444C90.3719 262.735 88.686 259.322 87.027 256.259C87.0203 256.212 86.4091 251.756 87.336 249.454C87.3763 249.353 87.3292 249.231 87.2217 249.191C87.1143 249.151 87.0001 249.198 86.9598 249.305C86.2613 251.049 86.3889 253.849 86.5165 255.33C85.012 252.597 83.5545 250.154 82.2112 248.04C81.9627 246.747 82.6478 241.598 82.6545 241.544C82.6679 241.429 82.5873 241.328 82.4798 241.315C82.3724 241.301 82.2649 241.376 82.2515 241.49C82.2246 241.672 81.7343 245.401 81.7545 247.326C78.2484 241.874 75.6827 238.784 75.6222 238.716C75.5483 238.629 75.4207 238.622 75.3401 238.69C75.2528 238.764 75.2461 238.892 75.3132 238.972C75.367 239.04 77.7043 241.853 80.9686 246.855C79.4708 245.549 76.8715 243.489 75.0715 243.132C74.964 243.112 74.8565 243.18 74.8364 243.294C74.8162 243.402 74.8901 243.516 74.9976 243.53C77.3282 243.987 81.291 247.67 81.8149 248.168C83.1448 250.268 84.6023 252.691 86.1001 255.411C83.6754 253.607 80.532 253.015 80.3843 252.988C80.2768 252.967 80.1693 253.042 80.1492 253.149C80.129 253.257 80.1895 253.358 80.3104 253.385C80.3507 253.392 84.2531 254.132 86.6307 256.387C88.0949 259.1 89.5927 262.082 91.0435 265.307C88.6927 262.661 86.4091 261.274 86.1203 261.2C86.0128 261.173 85.912 261.234 85.8852 261.342C85.8516 261.443 85.912 261.557 86.0195 261.591C86.2949 261.685 89.0151 263.301 91.6413 266.646C93.1256 270.046 94.5563 273.701 95.8391 277.572C95.8593 277.639 95.9198 277.686 95.9802 277.706C96.0138 277.713 96.0541 277.713 96.0944 277.7C96.2086 277.673 96.269 277.558 96.2287 277.451Z" fill="#6E7AC4"/>
<path d="M87.8816 261.53L88.251 261.066C88.3249 261.126 89.7622 262.304 91.0048 264.371C90.7764 260.662 90.9242 257.235 91.2735 254.172C90.1988 252.126 88.7346 250.914 88.7144 250.901L89.0838 250.436C89.1443 250.484 90.3399 251.466 91.3944 253.183C91.7168 250.753 92.16 248.578 92.6369 246.694C92.0257 244.593 90.81 243.2 90.7966 243.186L91.2399 242.789C91.2869 242.843 92.2407 243.927 92.9123 245.657C94.1012 241.328 95.3773 238.804 95.4109 238.737C95.525 238.521 95.7937 238.434 96.0087 238.548C96.2236 238.663 96.3109 238.932 96.1967 239.147C96.1632 239.208 95.0348 241.45 93.9265 245.32C95.3236 244.109 96.6535 243.597 96.7273 243.577L96.9355 244.129C96.9154 244.136 95.1557 244.809 93.6243 246.431C93.0332 248.666 92.4824 251.345 92.1399 254.395C93.8661 252.806 95.5989 252.14 95.6795 252.106L95.8878 252.658C95.8676 252.665 93.8258 253.452 92.0392 255.317C91.7302 258.501 91.663 262.062 92.0056 265.899C94.2489 263.705 96.6064 262.809 96.7206 262.769L96.9288 263.321C96.902 263.334 94.3362 264.317 92.0862 266.666C92.4354 270.052 93.1205 273.647 94.2489 277.397C94.3161 277.626 94.1952 277.868 93.9668 277.949C93.9601 277.949 93.9601 277.949 93.9534 277.955C93.7183 278.03 93.4698 277.895 93.4026 277.659C92.1533 273.513 91.4414 269.548 91.119 265.838C89.8563 263.153 87.9017 261.55 87.8816 261.53Z" fill="#6E7AC4"/>
<path d="M95.9162 239.201C95.9162 239.201 90.7443 236.798 92.1884 232.954C92.1884 232.954 94.0825 232.55 95.7684 235.499C95.7684 235.499 94.4721 229.764 98.3476 227.832C98.3476 227.832 100.557 232.375 97.8842 236.192C97.8842 236.192 99.6976 234.408 101.753 234.967C101.746 234.967 101.269 239.349 95.9162 239.201Z" fill="#81C4EF"/>
<path d="M91.3604 244.001C91.3604 244.001 87.6864 245.953 86.0946 243.415C86.0946 243.415 86.6991 242.136 89.1506 242.453C89.1506 242.453 85.255 240.676 85.846 237.572C85.846 237.572 89.4529 238.286 90.4872 241.531C90.4872 241.531 90.2521 239.686 91.488 238.737C91.4813 238.737 93.8052 240.952 91.3604 244.001Z" fill="#81C4EF"/>
<path d="M89.4724 251.749C89.4724 251.749 85.6843 254.63 83.4141 252.066C83.4141 252.066 83.8573 250.511 86.685 250.41C86.685 250.41 81.9566 249.131 82.0506 245.509C82.0506 245.509 86.2619 245.65 88.0216 249.124C88.0216 249.124 87.4171 247.084 88.6328 245.785C88.6328 245.785 91.6755 247.852 89.4724 251.749Z" fill="#81C4EF"/>
<path d="M88.7274 262.553C88.7274 262.553 84.3213 265.906 81.6817 262.924C81.6817 262.924 82.1989 261.113 85.49 260.998C85.49 260.998 79.9891 259.511 80.0966 255.297C80.0966 255.297 84.993 255.458 87.0483 259.497C87.0483 259.497 86.343 257.128 87.7602 255.606C87.7602 255.613 91.2932 258.016 88.7274 262.553Z" fill="#81C4EF"/>
<path d="M96.0623 244.593C96.0623 244.593 98.4064 248.027 100.992 246.525C100.992 246.525 101.053 245.112 98.7355 244.25C98.7355 244.25 103.007 244.492 103.927 241.47C103.927 241.47 100.401 240.427 97.9833 242.816C97.9833 242.816 99.0445 241.295 98.393 239.875C98.393 239.875 95.3101 240.75 96.0623 244.593Z" fill="#81C4EF"/>
<path d="M94.888 253.257C94.888 253.257 97.6418 257.289 100.671 255.526C100.671 255.526 100.745 253.87 98.0247 252.86C98.0247 252.86 103.035 253.149 104.11 249.595C104.11 249.595 99.9725 248.37 97.1381 251.17C97.1381 251.17 98.3807 249.386 97.6217 247.724C97.6217 247.73 94.0014 248.754 94.888 253.257Z" fill="#81C4EF"/>
<path d="M95.7062 264.136C95.7062 264.136 99.1452 269.178 102.94 266.976C102.94 266.976 103.027 264.903 99.6288 263.644C99.6288 263.644 105.895 264.001 107.239 259.565C107.239 259.565 102.067 258.03 98.5205 261.537C98.5205 261.537 100.079 259.302 99.125 257.229C99.125 257.222 94.598 258.501 95.7062 264.136Z" fill="#81C4EF"/>
<path d="M96.7554 278.609L96.7486 278.588C96.48 278.083 92.0336 269.985 86.7074 267.596C81.2132 265.125 81.0117 267.279 76.6996 265.307C72.3943 263.328 73.1599 261.375 70.5606 260.44C68.0553 259.538 61.6208 259.026 56.7714 263.186C56.5834 263.348 56.3953 263.516 56.214 263.691C56.214 263.691 60.5999 253.634 71.2323 254.152C81.8579 254.664 93.1083 258.481 96.7554 278.609Z" fill="#81C4EF"/>
<path d="M96.7559 278.609C96.5678 278.373 89.4146 269.386 82.5234 269.265C75.5381 269.137 73.9463 267.192 68.9357 263.382C63.9184 259.565 56.2077 263.691 56.2077 263.691L56.7652 263.186C61.6146 259.026 68.0491 259.538 70.5544 260.44C73.1537 261.376 72.388 263.328 76.6934 265.307C81.0054 267.286 81.2002 265.132 86.7011 267.596C92.0274 269.985 96.4738 278.084 96.7425 278.588L96.7559 278.609Z" fill="#72B1E7"/>
<path d="M96.9369 278.521C95.0764 273.284 92.7995 268.955 90.133 265.549C89.5621 263.025 87.8896 261.376 87.8158 261.308C87.7352 261.234 87.6075 261.234 87.527 261.315C87.4464 261.396 87.4531 261.524 87.5337 261.604C87.5471 261.618 88.7897 262.843 89.4748 264.741C87.9367 262.904 86.271 261.362 84.4843 260.117C84.1888 258.461 82.0328 257.054 81.9387 256.993C81.8447 256.933 81.7171 256.96 81.6566 257.054C81.5962 257.148 81.623 257.276 81.7171 257.337C81.7372 257.35 83.4365 258.461 83.9604 259.767C82.6037 258.878 81.1798 258.151 79.6887 257.599C79.6282 257.579 79.5745 257.559 79.514 257.539C79.0304 257.364 78.5469 257.215 78.0633 257.088C78.0565 257.081 78.0565 257.074 78.0565 257.061C77.2438 255.782 74.9199 255.108 74.8191 255.081C74.7117 255.048 74.5975 255.115 74.5706 255.223C74.5437 255.331 74.6042 255.438 74.7116 255.472C74.7318 255.479 76.5117 255.99 77.4184 256.919C76.0415 256.583 74.6848 256.408 73.375 256.347C73.3414 256.334 73.3079 256.327 73.2676 256.334C73.2676 256.334 73.2541 256.334 73.2474 256.34C72.1727 256.293 71.1317 256.334 70.1376 256.421L67.142 255.344C67.0346 255.304 66.9204 255.364 66.8801 255.465C66.8398 255.573 66.9002 255.687 67.001 255.728L69.204 256.522C63.9315 257.195 60.15 259.322 60.0896 259.356C59.9955 259.41 59.9619 259.538 60.0157 259.632C60.0694 259.726 60.197 259.76 60.2911 259.706C60.3582 259.666 65.2009 256.933 71.5548 256.731C70.0503 257.121 67.9547 257.761 67.0413 258.501C66.9539 258.568 66.9405 258.696 67.0144 258.784C67.0413 258.811 67.0681 258.838 67.1017 258.844C67.1689 258.865 67.2428 258.858 67.2965 258.811C68.6062 257.747 72.7504 256.852 73.281 256.737C75.2825 256.825 77.405 257.188 79.5409 257.983C80.3267 258.272 81.0857 258.616 81.8313 258.999C80.1655 258.878 76.9013 258.939 74.9064 260.911C74.8258 260.992 74.8258 261.12 74.9064 261.201C74.9266 261.221 74.9534 261.241 74.9803 261.248C75.0542 261.275 75.1348 261.254 75.1885 261.201C77.6401 258.77 82.3485 259.444 82.7649 259.511C84.6455 260.608 86.3986 262.015 88.024 263.738C86.6605 263.308 83.7656 262.85 80.2931 264.95C80.1991 265.011 80.1655 265.132 80.226 265.226C80.2529 265.267 80.2864 265.3 80.3334 265.314C80.3872 265.334 80.4543 265.327 80.5081 265.293C84.9478 262.607 88.3665 264.263 88.6486 264.412C89.0315 264.849 89.4076 265.3 89.777 265.771C89.7837 265.778 89.7837 265.785 89.7904 265.792C90.5561 266.768 91.2883 267.825 91.9935 268.962C91.1607 268.397 89.7905 267.623 88.165 267.353C88.0576 267.333 87.9501 267.407 87.9299 267.522C87.9098 267.629 87.9904 267.737 88.0978 267.757C90.4554 268.148 92.3293 269.709 92.551 269.898C94.0421 272.456 95.372 275.378 96.5406 278.663C96.5608 278.723 96.6078 278.764 96.6615 278.784C96.7018 278.797 96.7489 278.797 96.7959 278.784C96.9168 278.743 96.9705 278.622 96.9369 278.521Z" fill="#6E7AC4"/>
<path d="M90.8541 280.709L90.8608 280.688C91.0086 280.251 93.4064 273.243 97.2886 270.625C101.292 267.919 101.748 269.595 104.878 267.434C108.008 265.28 107.135 263.839 109.063 262.749C110.923 261.692 115.934 260.399 120.333 263.018C120.508 263.119 120.676 263.227 120.844 263.341C120.844 263.341 116.001 255.997 107.672 257.868C99.3372 259.746 90.9683 264.31 90.8541 280.709Z" fill="#81C4EF"/>
<path d="M90.8542 280.709C90.9751 280.493 95.3946 272.415 100.815 271.365C106.316 270.302 107.303 268.551 110.742 264.849C114.181 261.147 120.837 263.341 120.837 263.341L120.327 263.018C115.927 260.399 110.917 261.692 109.056 262.749C107.129 263.846 108.002 265.28 104.872 267.434C101.735 269.588 101.285 267.912 97.282 270.625C93.3998 273.25 91.002 280.258 90.8542 280.689V280.709Z" fill="#72B1E7"/>
<path d="M90.7004 280.668C91.4526 276.279 92.6549 272.543 94.3004 269.487C94.4079 267.414 95.5027 265.886 95.5497 265.818C95.6035 265.744 95.7042 265.731 95.7781 265.785C95.852 265.839 95.8654 265.94 95.8117 266.014C95.805 266.027 94.9922 267.165 94.7101 268.76C95.6773 267.097 96.7789 265.65 98.0214 264.425C98.0281 263.079 99.5394 261.672 99.6065 261.611C99.6737 261.551 99.7745 261.557 99.8349 261.618C99.8954 261.685 99.8886 261.786 99.8282 261.847C99.8148 261.86 98.6259 262.971 98.3908 264.075C99.3379 263.186 100.366 262.419 101.474 261.779C101.514 261.752 101.561 261.732 101.601 261.705C101.957 261.503 102.32 261.322 102.683 261.147C102.683 261.14 102.683 261.133 102.689 261.126C103.153 260.002 104.899 259.154 104.973 259.114C105.054 259.073 105.148 259.107 105.188 259.188C105.228 259.269 105.188 259.363 105.114 259.403C105.101 259.41 103.764 260.063 103.173 260.918C104.214 260.467 105.262 260.137 106.29 259.908C106.316 259.895 106.343 259.881 106.37 259.888H106.384C107.223 259.706 108.056 259.592 108.855 259.524L111.072 258.265C111.152 258.218 111.246 258.245 111.293 258.326C111.34 258.407 111.314 258.501 111.233 258.548L109.601 259.477C113.859 259.282 117.137 260.447 117.191 260.46C117.278 260.494 117.318 260.581 117.285 260.669C117.251 260.749 117.164 260.797 117.076 260.763C117.016 260.743 112.818 259.248 107.774 259.962C109.016 260.063 110.763 260.278 111.582 260.736C111.663 260.776 111.69 260.877 111.643 260.958C111.629 260.985 111.609 261.005 111.582 261.019C111.535 261.046 111.475 261.046 111.421 261.019C110.239 260.359 106.84 260.218 106.41 260.204C104.839 260.548 103.213 261.133 101.635 262.049C101.057 262.385 100.5 262.756 99.9625 263.166C101.259 262.843 103.845 262.439 105.692 263.725C105.766 263.779 105.786 263.88 105.732 263.954C105.719 263.974 105.698 263.987 105.678 264.001C105.625 264.028 105.557 264.028 105.504 263.994C103.234 262.412 99.6065 263.597 99.2909 263.705C97.9543 264.829 96.7654 266.182 95.7176 267.771C96.7318 267.246 98.955 266.485 101.991 267.663C102.072 267.697 102.119 267.791 102.085 267.872C102.072 267.905 102.045 267.939 102.011 267.952C101.971 267.973 101.917 267.979 101.87 267.966C97.9945 266.458 95.5161 268.235 95.3213 268.39C95.0795 268.787 94.8378 269.198 94.6161 269.615C94.6161 269.622 94.6094 269.629 94.6094 269.635C94.1392 270.51 93.7026 271.453 93.3064 272.442C93.884 271.877 94.8646 271.083 96.1072 270.645C96.1945 270.618 96.2818 270.658 96.3154 270.746C96.3423 270.834 96.2953 270.928 96.2147 270.955C94.4012 271.587 93.1385 273.082 92.9907 273.257C92.1646 275.485 91.513 277.976 91.0429 280.729C91.0362 280.776 91.0026 280.817 90.9623 280.843C90.9287 280.864 90.8951 280.87 90.8548 280.864C90.7407 280.837 90.6802 280.756 90.7004 280.668Z" fill="#6E7AC4"/>
<path d="M93.959 278.386C95.1949 277.827 110.791 270.49 106.351 258.716C106.351 258.716 124.694 248.235 116.56 237.875C116.554 237.862 116.54 237.848 116.534 237.841C116.44 237.72 116.345 237.606 116.245 237.491C111.51 240.366 97.5726 251.002 93.959 278.386Z" fill="#808285"/>
<path d="M92.2193 277.955L93.8783 278.42C93.8783 278.42 93.9052 278.406 93.9589 278.38C97.5658 250.995 111.503 240.359 116.245 237.485C108.144 228.06 97.3105 249.164 97.2031 254.442C97.2098 254.455 84.4281 258.932 92.2193 277.955Z" fill="#6E7AC4"/>
<path d="M93.959 278.386C95.1949 277.827 110.791 270.49 106.351 258.716C106.351 258.716 124.694 248.235 116.56 237.875C116.554 237.862 116.54 237.848 116.534 237.841C116.44 237.72 116.345 237.606 116.245 237.491C111.51 240.366 97.5726 251.002 93.959 278.386Z" fill="#798ED3"/>
<path d="M93.7158 263.617C93.7696 263.556 93.8636 263.556 93.9173 263.61C93.9778 263.671 95.3547 264.977 95.9121 267.744C96.604 265.159 97.4167 262.681 98.3503 260.318C98.263 259.013 96.7182 257.249 96.698 257.229C96.6443 257.168 96.651 257.081 96.7114 257.027C96.7719 256.973 96.8592 256.98 96.913 257.04C96.9734 257.107 98.2093 258.514 98.5518 259.82C99.4988 257.478 100.567 255.256 101.756 253.143C101.756 253.136 101.756 253.136 101.756 253.129C102.716 250.719 101.426 248.498 101.413 248.477C101.373 248.41 101.393 248.323 101.46 248.282C101.527 248.242 101.615 248.262 101.655 248.329C101.702 248.41 102.662 250.073 102.32 252.133C102.77 251.365 103.247 250.625 103.73 249.898C103.737 249.878 103.744 249.857 103.757 249.844C103.764 249.831 103.777 249.824 103.784 249.81C103.972 249.528 104.16 249.238 104.355 248.955C104.886 248.188 105.423 247.461 105.96 246.774C107.082 244.263 106.007 241.961 105.994 241.934C105.96 241.86 105.987 241.779 106.061 241.739C106.135 241.705 106.215 241.732 106.249 241.806C106.289 241.894 107.169 243.779 106.511 246.068C107.854 244.412 109.177 243.005 110.42 241.827C111.206 239.619 110.024 237.761 110.01 237.747C109.97 237.68 109.983 237.592 110.051 237.545C110.118 237.498 110.205 237.518 110.252 237.586C110.299 237.66 111.36 239.322 110.836 241.436C113.006 239.437 114.9 238.138 116.163 237.37C116.23 237.33 116.317 237.35 116.357 237.417C116.398 237.485 116.378 237.572 116.31 237.613C114.698 238.589 112.045 240.453 109.104 243.543C111.555 242.338 114.195 243.193 115.256 243.543C115.404 243.59 115.558 243.644 115.612 243.651C115.672 243.637 115.733 243.664 115.766 243.725C115.807 243.792 115.78 243.88 115.713 243.92C115.625 243.967 115.538 243.94 115.175 243.819C114.02 243.442 110.957 242.432 108.405 244.297C107.156 245.67 105.866 247.266 104.59 249.11C104.59 249.11 104.59 249.11 104.59 249.117C107.162 247.474 111.931 248.35 112.153 248.397C112.227 248.41 112.281 248.484 112.267 248.565C112.254 248.646 112.18 248.693 112.099 248.679C112.039 248.666 106.101 247.569 104.012 249.985C102.656 252.032 101.426 254.206 100.325 256.502C102.958 254.045 107.539 254.65 107.747 254.684C107.827 254.698 107.881 254.765 107.868 254.846C107.854 254.926 107.787 254.98 107.706 254.967C107.653 254.96 102.219 254.233 99.8884 257.417C99.4451 258.38 99.0354 259.363 98.6391 260.366C98.6391 260.406 98.6458 260.446 98.6458 260.487C98.6458 260.554 98.5988 260.601 98.5384 260.621C98.0816 261.779 97.6585 262.971 97.2622 264.182C99.3309 262.022 103.509 261.813 103.703 261.799C103.784 261.793 103.851 261.86 103.851 261.934C103.858 262.015 103.791 262.082 103.717 262.082C103.67 262.082 98.8339 262.331 97.0674 264.862C97.0607 264.876 97.0406 264.883 97.0271 264.889C96.6644 266.04 96.3286 267.218 96.0196 268.423C96.0196 268.444 96.0129 268.464 96.0062 268.477C95.6972 269.675 95.4151 270.901 95.1599 272.153C97.0741 269.016 101.4 268.403 101.447 268.396C101.527 268.383 101.594 268.444 101.608 268.518C101.621 268.598 101.561 268.666 101.487 268.679C101.433 268.686 96.3756 269.399 94.9383 273.27C94.542 275.317 94.2129 277.424 93.9576 279.591C93.9509 279.672 93.877 279.726 93.7964 279.719C93.7897 279.719 93.783 279.719 93.7763 279.712C93.7091 279.692 93.6621 279.632 93.6755 279.558C94.139 275.64 94.8308 271.917 95.7442 268.39C95.3077 265.3 93.7494 263.819 93.736 263.805C93.6688 263.765 93.6621 263.671 93.7158 263.617Z" fill="#366DBF"/>
<path d="M102.835 270.443C103.379 270.443 103.816 270.887 103.816 271.426V279.457C103.816 283.577 100.484 286.922 96.367 286.922H93.1363C92.9616 286.922 92.787 286.916 92.6191 286.902C96.4879 286.633 99.5439 283.402 99.5439 279.457V270.443H102.835Z" fill="#2360B4"/>
<path d="M99.5466 270.443V279.457C99.5466 283.402 96.4906 286.633 92.6218 286.902C88.7531 286.633 85.697 283.402 85.697 279.457V271.426C85.697 270.881 86.1403 270.443 86.6776 270.443H99.5466Z" fill="#3889E0"/>
<path d="M99.5466 270.443V279.457C99.5466 283.402 96.4906 286.633 92.6218 286.902C88.7531 286.633 85.697 283.402 85.697 279.457V271.426C85.697 270.881 86.1403 270.443 86.6776 270.443H99.5466Z" fill="#3889E0"/>
<path d="M85.6972 272.335H103.819V275.465H85.6972V272.335Z" fill="#0E69C5"/>
<path d="M99.5469 272.335H103.819V275.465H99.5469V272.335Z" fill="#0D4FA5"/>
<path fill-rule="evenodd" clip-rule="evenodd" d="M195.559 236.307C195.626 236.414 195.7 236.509 195.768 236.616V236.623C201.752 245.428 204.734 250.133 208.032 255C210.007 257.915 212.955 259.659 215.931 259.659C217.999 259.659 219.914 258.824 221.459 257.235C227.933 250.584 236.732 238.34 240.755 227.152C242.542 222.19 243.422 210.194 237.363 204.95C236.934 204.58 236.416 204.378 235.872 204.378C233.139 204.378 230.936 209.272 230.701 209.831C229.498 212.604 217.543 234.994 214.426 240.635C212.069 237.828 210.195 236.32 204.714 229.588C204.707 229.582 204.701 229.568 204.694 229.568C204.687 229.555 204.674 229.548 204.674 229.541C203.243 227.764 200.12 227.892 197.662 229.824C195.331 231.662 194.444 234.476 195.559 236.307Z" fill="#0B3080"/>
<path fill-rule="evenodd" clip-rule="evenodd" d="M238.614 175.048C241.079 175.291 242.94 177.519 242.785 180.023C242.624 182.534 240.495 184.372 238.03 184.129C235.565 183.887 233.698 181.659 233.859 179.155C234.027 176.644 236.156 174.806 238.614 175.048Z" fill="#F4AE8C"/>
<path d="M276.886 300.116H282.192V308.773H276.886V300.116Z" fill="#101537"/>
<path fill-rule="evenodd" clip-rule="evenodd" d="M235.322 229.184V244.815V298.312C235.322 300.89 237.424 303.004 240.004 303.004H288.578C291.151 303.004 293.26 300.897 293.26 298.312V244.815V229.184V224.378C293.26 208.411 280.223 195.344 264.291 195.344C248.359 195.344 235.322 208.411 235.322 224.378V229.184Z" fill="#E37BA3"/>
<path fill-rule="evenodd" clip-rule="evenodd" d="M231.359 229.184V244.815V298.312C231.359 300.89 233.468 303.004 236.041 303.004H284.615C287.188 303.004 289.297 300.897 289.297 298.312V244.815V229.184V224.378C289.297 208.411 276.26 195.344 260.328 195.344C244.396 195.344 231.359 208.411 231.359 224.378V229.184Z" fill="#E698AE"/>
<path fill-rule="evenodd" clip-rule="evenodd" d="M247.555 400.714V315.855C247.555 315.336 246.917 314.906 246.145 314.906H245.104C244.325 314.906 243.693 315.33 243.693 315.855V400.714C243.693 401.239 244.325 401.663 245.104 401.663H246.145C246.917 401.656 247.555 401.232 247.555 400.714Z" fill="#101F30"/>
<path fill-rule="evenodd" clip-rule="evenodd" d="M246.918 312.489H244.319C242.378 312.489 240.793 314.078 240.793 316.023V319.45C240.793 321.395 242.378 322.984 244.319 322.984H246.918C248.859 322.984 250.444 321.395 250.444 319.45V316.023C250.444 314.078 248.859 312.489 246.918 312.489Z" fill="#101F30"/>
<path fill-rule="evenodd" clip-rule="evenodd" d="M247.79 399.22H243.505C242.464 399.22 241.618 400.068 241.618 401.111V402.505C241.618 403.548 242.464 404.396 243.505 404.396H247.79C248.831 404.396 249.678 403.548 249.678 402.505V401.111C249.678 400.068 248.831 399.22 247.79 399.22Z" fill="#101F30"/>
<path fill-rule="evenodd" clip-rule="evenodd" d="M257.826 401.805H235.09C233.498 401.805 232.188 403.111 232.188 404.706V406.847C232.188 408.442 233.491 409.748 235.09 409.748H257.826C259.417 409.748 260.72 408.442 260.72 406.847V404.706C260.72 403.111 259.417 401.805 257.826 401.805Z" fill="#101F30"/>
<path fill-rule="evenodd" clip-rule="evenodd" d="M263.734 314.246C263.734 312.873 262.613 311.748 261.243 311.748H229.997C228.627 311.748 227.505 312.873 227.505 314.246C227.505 315.619 228.627 316.743 229.997 316.743H261.243C262.613 316.743 263.734 315.619 263.734 314.246Z" fill="#030822"/>
<path fill-rule="evenodd" clip-rule="evenodd" d="M270.426 313.222C270.426 312.448 269.794 311.815 269.022 311.815H222.261C221.489 311.815 220.857 312.448 220.857 313.222C220.857 313.996 221.489 314.629 222.261 314.629H269.022C269.794 314.629 270.426 313.989 270.426 313.222Z" fill="#101F30"/>
<path fill-rule="evenodd" clip-rule="evenodd" d="M208.475 306.43H284.01C285.871 306.43 287.396 307.958 287.396 309.823C287.396 311.688 285.871 313.216 284.01 313.216H208.475C206.615 313.216 205.09 311.688 205.09 309.823C205.084 307.958 206.608 306.43 208.475 306.43Z" fill="#E698AE"/>
<path fill-rule="evenodd" clip-rule="evenodd" d="M242.314 306.43H284.01C285.871 306.43 287.396 307.958 287.396 309.823C287.396 311.688 285.871 313.216 284.01 313.216H242.314C240.453 313.216 238.929 311.688 238.929 309.823C238.922 307.958 240.446 306.43 242.314 306.43Z" fill="#E37BA3"/>
<path fill-rule="evenodd" clip-rule="evenodd" d="M204.313 391.64C203.406 395.995 203.212 396.917 203.212 396.917C203.212 396.917 200.451 398.553 196.535 400.593C196.226 400.761 193.842 400.916 192.532 401.259C189.973 401.912 187.992 406.402 191.243 407.668C195.689 409.398 198.765 409.236 202.883 407.641C206.993 406.039 210.083 405.743 210.083 405.743H210.09C212.4 405.433 214.146 403.508 214.234 401.172C214.328 398.668 214.308 395.692 213.777 394.373C212.776 391.896 204.313 391.64 204.313 391.64Z" fill="#6E7AC4"/>
<path fill-rule="evenodd" clip-rule="evenodd" d="M202.602 395.941C202.602 395.941 193.454 315.471 192.849 305.851C192.339 297.787 187.221 284.169 228.917 278.851C230.959 278.588 232.296 276.387 234.526 276.07C234.526 276.07 274.113 278.002 278.667 279.78C283.221 281.55 273.824 296.575 237.441 300.123C201.064 303.67 217.748 316.265 217.748 316.265C217.748 316.265 212.294 390.677 213.63 394.198C214.967 397.718 201.99 401.192 202.602 395.941Z" fill="#101F30"/>
<path fill-rule="evenodd" clip-rule="evenodd" d="M235.668 392.872C234.654 397.207 234.439 398.116 234.439 398.116C234.439 398.116 231.638 399.677 227.675 401.623C227.36 401.784 223.78 402.087 222.463 402.397C219.891 402.989 215.29 405.244 221.207 407.951C225.499 409.909 229.684 410.32 233.834 408.832C237.985 407.338 241.082 407.123 241.082 407.123H241.088C243.406 406.873 245.199 404.989 245.347 402.659C245.508 400.162 245.562 397.18 245.065 395.854C244.131 393.343 235.668 392.872 235.668 392.872Z" fill="#6E7AC4"/>
<path fill-rule="evenodd" clip-rule="evenodd" d="M237.232 272.079C236.285 272.516 235.002 274.879 233.686 276.952C230.831 281.469 219.642 282.957 213.355 287.252C207.122 291.506 206.954 297.834 206.846 302.385C206.699 308.315 233.659 399.024 233.659 399.024C233.659 399.024 234.66 400.519 241.417 400.236C244.701 400.101 245.749 396.958 244.587 396.736C241.249 359.631 237.434 321.866 232.598 306.397L258.759 306.444C286.599 306.484 276.947 263.651 270.432 263.018C264.28 262.419 249.456 258.238 239.778 263.126C233.908 266.087 239.946 272.099 237.232 272.079Z" fill="#0B3080"/>
<path fill-rule="evenodd" clip-rule="evenodd" d="M256.977 187.138L257.044 190.753C257.044 190.753 257.548 198.448 257.602 199.276C257.656 200.11 258.052 200.386 259.08 201.053C260.497 203.173 257.481 212.436 254.929 212.833C252.37 213.23 240.421 212.47 239.548 211.83C238.936 211.386 244.525 203.274 244.102 201.962C244.619 201.82 245.082 201.652 245.452 201.309C247.843 199.101 247.151 193.15 245.196 191.063C243.725 189.515 256.977 187.138 256.977 187.138Z" fill="#EA9983"/>
<path fill-rule="evenodd" clip-rule="evenodd" d="M237.028 214.907C239.11 213.641 240.406 214.637 242.905 216.906C245.396 219.174 247.606 218.919 248.936 219.41C250.266 219.895 251.616 241.241 243.361 244.627C240.305 245.879 238.277 244.654 236.9 242.129C234.428 237.599 231.621 218.198 237.028 214.907Z" fill="#F6F5F4"/>
<path fill-rule="evenodd" clip-rule="evenodd" d="M278.282 272.422C277.362 274.724 273.99 276.636 269.94 278.07C263.754 275.646 253.504 279.356 245.679 278.979C236.787 278.548 233.086 276.488 233.086 276.488L232.528 276.899C232.246 276.697 232.031 276.488 231.884 276.272C230.822 274.697 231.246 272.355 231.568 270.261C232.159 266.505 235.343 269.13 233.422 251.372C231.501 233.614 225.872 203.315 244.565 201.06C244.565 201.06 244.39 201.49 244.128 202.291L244.914 202.325C244.914 202.325 243.409 207.731 246.989 209.494C250.576 211.258 254.33 208.747 255.929 206.68C256.157 206.384 256.446 206.25 256.762 206.25C257.877 204.722 259.113 203.173 260.49 201.605C264.499 202.231 270.927 205.206 270.927 205.206C274.171 206.627 277.724 209.622 278.463 212.86C279.504 217.458 275.461 233.069 272.653 243.119C267.952 259.941 280.975 265.697 278.282 272.422Z" fill="#F0F5FA"/>
<path fill-rule="evenodd" clip-rule="evenodd" d="M261.592 201.241C261.592 201.241 249.905 228.336 248.924 241.086C247.943 253.836 259.167 280.399 259.892 281.86C260.618 283.321 273.896 289.601 279.961 289.635C279.961 289.635 280.929 289.608 281.15 289.325C281.372 289.042 282.245 287.992 282.554 287.588C282.856 287.178 283.091 286.451 282.782 285.421C282.473 284.391 275.334 252.119 274.44 247.912C273.54 243.705 278.403 221.477 279.108 217.357C279.814 213.23 280.747 205.678 261.592 201.241Z" fill="#0B3080"/>
<path fill-rule="evenodd" clip-rule="evenodd" d="M265.895 220.103C265.895 220.103 259.447 240.197 261.046 258.757C262.644 277.316 269.777 281.476 269.777 281.476C269.777 281.476 276.386 275.209 276.353 274.004C276.326 272.799 276.353 253.923 276.353 253.923L265.895 220.103Z" fill="#0C2D66"/>
<path fill-rule="evenodd" clip-rule="evenodd" d="M243 201.322C243 201.322 241.57 234.476 241.019 238.42C240.468 242.365 235.861 273.714 235.458 276.064C235.055 278.413 228.607 279.046 228.607 279.046C228.607 279.046 231.273 248.033 231.287 247.171C231.3 246.31 230.635 223.267 230.541 220.433C230.447 217.599 233.349 207.259 233.839 206.142C234.336 205.038 237.808 202.352 243 201.322Z" fill="#0B3080"/>
<path fill-rule="evenodd" clip-rule="evenodd" d="M268.389 176.913C270.854 177.155 272.714 179.384 272.56 181.888C272.399 184.399 270.27 186.236 267.804 185.994C265.339 185.752 263.479 183.524 263.64 181.019C263.795 178.508 265.924 176.671 268.389 176.913Z" fill="#EA9983"/>
<path fill-rule="evenodd" clip-rule="evenodd" d="M254.351 153.473C262.753 154.295 269.175 161.969 268.624 170.525L267.71 184.661C267.16 193.217 259.832 199.545 251.429 198.724C243.027 197.902 236.606 190.228 237.157 181.672L237.613 174.611L238.07 167.536C238.627 158.98 245.949 152.652 254.351 153.473Z" fill="#F4AE8C"/>
<path fill-rule="evenodd" clip-rule="evenodd" d="M260.503 155.446L260.536 155.466C265.674 158.435 269.033 164.238 268.623 170.525L267.71 184.661C267.159 193.217 259.831 199.545 251.428 198.724C249.501 198.535 247.674 197.983 246.015 197.149C261.658 200.535 264.976 185.584 263.834 179.882C262.121 168.761 251.449 181.248 238.868 172.053C238.465 171.757 238.445 169.158 237.975 169.091L238.076 167.543C238.163 166.149 238.439 164.81 238.862 163.558C245.142 160.279 253.82 156.079 257.809 155.655C258.998 155.527 259.818 155.439 260.368 155.379L260.462 155.433C260.382 155.446 260.368 155.453 260.503 155.446Z" fill="#EA9983"/>
<path fill-rule="evenodd" clip-rule="evenodd" d="M253.707 278.831C253.519 278.837 253.337 278.837 253.162 278.837C253.25 278.844 253.337 278.844 253.418 278.844C253.512 278.844 253.606 278.837 253.707 278.831Z" fill="#101F30"/>
<path fill-rule="evenodd" clip-rule="evenodd" d="M245.728 200.885L244.902 202.318C244.902 202.318 243.538 208.007 246.977 209.488C250.416 210.969 254.708 208.195 256.132 205.886C257.549 203.584 258.933 201.241 258.933 201.241L261.364 201.766C261.364 201.766 256.367 212.759 248.287 211.346C239.367 209.784 244.123 200.885 244.123 200.885H245.728Z" fill="white"/>
<path fill-rule="evenodd" clip-rule="evenodd" d="M195.56 236.307C195.628 236.414 195.701 236.509 195.769 236.616V236.623C196.313 237.31 197.098 237.713 198.005 237.841C199.483 238.07 201.269 237.565 202.801 236.36C204.265 235.196 205.165 233.648 205.347 232.2C205.467 231.238 205.273 230.315 204.708 229.588C204.702 229.582 204.695 229.568 204.688 229.568C204.682 229.555 204.668 229.548 204.668 229.541C204.07 228.801 203.184 228.39 202.17 228.303C200.752 228.181 199.087 228.7 197.656 229.824C196.292 230.901 195.426 232.315 195.164 233.668C194.976 234.624 195.097 235.553 195.56 236.307Z" fill="#081119"/>
<path fill-rule="evenodd" clip-rule="evenodd" d="M190.475 225.516C190.515 225.576 190.878 227.333 195.17 233.661C196.077 234.994 197.024 236.394 198.004 237.835C199.482 238.063 201.268 237.559 202.8 236.354C204.264 235.189 205.164 233.641 205.345 232.193C204.271 230.867 203.196 229.555 202.168 228.289C197.628 222.695 196.849 221.201 196.789 221.12C196.641 220.911 196.305 220.958 196.305 220.958C196.305 220.958 192.765 224.6 190.623 224.836C190.629 224.842 190.374 225.368 190.475 225.516Z" fill="#EA9983"/>
<path d="M192.384 227.562C189.275 227.562 186.755 224.223 186.755 220.103C186.755 215.984 189.275 212.645 192.384 212.645C195.493 212.645 198.012 215.984 198.012 220.103C198.012 224.223 195.493 227.562 192.384 227.562Z" fill="#EA9983"/>
<path fill-rule="evenodd" clip-rule="evenodd" d="M192.94 213.089C192.94 215.385 193.813 217.249 194.895 217.249C195.976 217.249 196.849 215.385 196.849 213.089C196.849 210.794 195.976 208.929 194.895 208.929C193.813 208.929 192.94 210.794 192.94 213.089Z" fill="#EA9983"/>
<path fill-rule="evenodd" clip-rule="evenodd" d="M249.574 279.342C249.574 282.654 251.622 285.347 254.215 285.515C254.222 285.515 254.228 285.515 254.228 285.515C254.41 285.515 254.584 285.515 254.773 285.508C257.882 285.495 261.724 285.441 265.653 285.313C265.895 285.327 266.634 285.374 267.648 285.374C271.705 285.374 277.763 282.365 280.719 273.802C284.332 263.334 285.75 245.98 285.058 231.83C284.87 228.04 283.983 217.747 280.443 211.696C279.617 210.282 278.375 209.144 276.857 208.545C271.295 206.357 269.2 210.309 267.393 214.079C267.111 214.671 266.903 215.29 266.782 215.937C264.693 226.95 265.653 260.796 266.164 267.4C264.142 268.033 258.01 272.072 254.141 273.176C253.637 273.324 253.147 273.465 252.67 273.6C252.664 273.6 252.65 273.607 252.643 273.613C250.837 274.536 249.574 276.75 249.574 279.342Z" fill="#0B3080"/>
<path fill-rule="evenodd" clip-rule="evenodd" d="M251.554 275.343C252.757 275.014 254.174 274.61 255.631 274.192C255.262 274.078 254.879 274.01 254.483 274.01C253.368 274.017 252.347 274.515 251.554 275.343Z" fill="#081119"/>
<path fill-rule="evenodd" clip-rule="evenodd" d="M251.501 284.128C252.3 284.996 253.341 285.515 254.476 285.515C255.632 285.515 256.686 284.983 257.485 284.094C255.363 284.121 253.335 284.128 251.501 284.128Z" fill="#081119"/>
<path fill-rule="evenodd" clip-rule="evenodd" d="M243.005 283.994C243.099 284.054 246.605 284.142 251.508 284.142C253.348 284.142 255.377 284.135 257.499 284.108C258.459 283.058 259.064 281.503 259.064 279.773C259.064 277.094 257.606 274.839 255.632 274.199C254.174 274.617 252.757 275.014 251.555 275.35C249.479 275.929 248.015 276.306 247.948 276.266C247.686 276.098 247.343 276.306 247.343 276.306C247.343 276.306 245.114 281.941 242.864 283.186C242.857 283.179 242.823 283.866 243.005 283.994Z" fill="#EA9983"/>
<path d="M243.51 283.664C240.472 283.664 238.009 281.702 238.009 279.282C238.009 276.861 240.472 274.899 243.51 274.899C246.548 274.899 249.01 276.861 249.01 279.282C249.01 281.702 246.548 283.664 243.51 283.664Z" fill="#F4AE8C"/>
<path d="M232.703 284.842H245.471V283.657C245.471 282.304 244.947 281.086 244.087 280.163C244.087 280.163 244.074 280.163 244.054 280.15C243.113 279.147 241.81 278.548 240.353 278.548C238.492 278.548 236.76 279.207 235.403 280.318C234.053 281.436 233.072 283.011 232.703 284.842Z" fill="#0B3080"/>
<path d="M238.639 284.842H245.463C245.517 283.058 245.221 280.85 243.623 280.513C240.849 279.901 238.639 284.842 238.639 284.842Z" fill="#101F30"/>
<path d="M265.488 171.824C265.488 171.824 261.458 168.707 258.342 171.824C255.232 174.941 240.288 173.325 238.871 172.046C238.871 172.046 237.527 175.695 237.165 181.672C237.165 181.672 234.76 173.79 236.076 165.712C236.076 165.712 230.273 157.465 231.408 152.08C231.408 152.08 239.757 156.052 248.811 153.069C257.865 150.094 265.321 153.393 266.697 158.159C266.697 158.159 272.286 156.26 273.354 163.833C273.945 168.054 267.403 185.577 267.403 185.577C267.403 185.577 267.127 174.671 265.488 171.824Z" fill="#101F30"/>
<path d="M117.202 286.108H139.669L139.663 253.52H117.202V286.108Z" fill="#3889E0"/>
<path d="M147.813 253.52L151.923 286.107H139.672L139.666 253.52H147.813Z" fill="#092B67"/>
<path d="M327.412 410.239H321.87L291.948 302.129L290.423 296.609L262.227 410.239H256.74L286.716 289.44H293.976L327.412 410.239Z" fill="#0B3080"/>
<path d="M291.949 302.129L265.123 410.239H262.228L290.424 296.609L291.949 302.129Z" fill="#142538"/>
<path d="M330.287 410.239H327.412L293.977 289.44H296.872L330.287 410.239Z" fill="#101F30"/>
<path d="M297.097 410.239H291.556L261.633 302.129L260.109 296.609L231.912 410.239H226.425L256.394 289.44H263.662L297.097 410.239Z" fill="#3889E0"/>
<path d="M261.635 302.129L234.809 410.239H231.914L260.11 296.609L261.635 302.129Z" fill="#0B3080"/>
<path d="M299.972 410.239H297.098L263.662 289.44H266.557L299.972 410.239Z" fill="#0B3080"/>
<path d="M281.225 286.107H339.875V292.779H281.225V286.107Z" fill="#334C8F"/>
<path d="M41.1156 292.785H93.9148V410.246H41.1156V292.785Z" fill="#3889E0"/>
<path d="M46.0998 404.464H87.3733V298.561H46.0998V404.464ZM85.9292 403.023H47.5372V300.008H85.9292V403.023Z" fill="#092B67"/>
<path d="M93.9136 292.785H152.563V410.246H93.9136V292.785Z" fill="#092B67"/>
<path d="M41.1084 286.107H281.22V292.779H41.1084V286.107Z" fill="#3889E0"/>
<path d="M235.8 286.111H185.822V283.66H235.8V286.111Z" fill="#4084E2"/>
<path d="M251.229 286.111H235.801V283.66H251.229V286.111Z" fill="#3889E0"/>
<path d="M146.284 266.007H255.738L250.21 194.314L141.32 196.092L146.284 266.007Z" fill="#3889E0"/>
<path d="M255.735 266.007H258.341L252.82 194.314H250.208L255.735 266.007Z" fill="#092B67"/>
<path d="M195.261 240.972C197.484 240.972 199.526 240.083 201.017 238.468C202.582 236.778 203.335 234.523 203.153 232.113C202.784 227.333 198.727 223.496 194.072 223.496C194.032 223.496 193.992 223.496 193.945 223.496C191.675 223.53 189.599 224.459 188.108 226.115C186.59 227.798 185.865 230.019 186.066 232.362C186.483 237.108 190.607 240.972 195.261 240.972ZM194.079 225.099C197.914 225.099 201.266 228.283 201.568 232.241C201.716 234.2 201.111 236.024 199.855 237.384C198.673 238.663 197.041 239.37 195.268 239.37C191.419 239.37 188.007 236.165 187.665 232.221C187.504 230.329 188.081 228.538 189.304 227.185C190.492 225.866 192.158 225.119 193.985 225.092C194.005 225.099 194.045 225.099 194.079 225.099Z" fill="#F0F5FA"/>
<path d="M194.803 236.939C197.329 236.939 199.236 234.799 199.028 232.173C198.826 229.555 196.576 227.441 194.024 227.481C191.472 227.522 189.571 229.662 189.799 232.247C190.021 234.826 192.278 236.939 194.803 236.939Z" fill="#F0F5FA"/>
<path d="M212.655 286.108H231.945V283.657H212.662C212.655 284.465 212.655 285.3 212.655 286.108Z" fill="#101F30"/>
<path d="M171.495 283.657V286.108H212.654C212.654 285.3 212.654 284.458 212.661 283.657H171.495Z" fill="#0A2B5B"/>
<path d="M191.028 249.474H203.299L196.938 286.114H184.654L191.028 249.474ZM189.698 281.234H193.399C194.379 281.234 195.313 280.453 195.488 279.497L199.719 255.33C199.86 254.543 199.45 253.87 198.772 253.648C198.618 253.587 198.436 253.56 198.255 253.56H194.568C194.171 253.56 193.775 253.695 193.432 253.917C192.942 254.24 192.573 254.751 192.459 255.324L188.247 279.49C188.059 280.46 188.717 281.234 189.698 281.234Z" fill="#092B67"/>
<path d="M189.698 281.234H191.572C190.591 281.234 189.939 280.453 190.128 279.497L193.432 260.541V253.923C192.942 254.247 192.572 254.758 192.458 255.33L188.247 279.497C188.059 280.46 188.717 281.234 189.698 281.234Z" fill="#101F30"/>
<path d="M196.946 286.108H198.82L203.307 260.298V249.474L196.946 286.108Z" fill="#101F30"/>
<path d="M193.433 253.271V253.923C193.769 253.701 194.172 253.567 194.568 253.567H198.255C198.437 253.567 198.611 253.594 198.773 253.654L198.974 253.277H193.433V253.271Z" fill="#0A2B5B"/>
<path d="M260.126 286.108H282.6L282.593 253.52H260.126V286.108Z" fill="#3889E0"/>
<path d="M290.731 253.52L294.841 286.108H282.59L282.583 253.52H290.731Z" fill="#092B67"/>
<path d="M100.603 185.624V202.904H91.3674V185.624H100.603ZM97.9363 190.074C97.9363 189.239 97.3653 188.545 96.5862 188.35C96.4452 188.317 96.3041 188.296 96.1631 188.296H95.8071C94.813 188.296 94.0339 189.097 94.0339 190.074V194.308C94.0339 195.284 94.813 196.085 95.8071 196.085H96.1631C96.3041 196.085 96.4452 196.065 96.5862 196.031C97.3653 195.836 97.9363 195.142 97.9363 194.308V190.074Z" fill="#3A75B9"/>
<path d="M101.813 185.624V202.904H100.604V185.624H101.813Z" fill="#33466E"/>
<path d="M96.5859 196.038C96.4449 196.071 96.3038 196.092 96.1628 196.092H95.8069C94.8128 196.092 94.0337 195.291 94.0337 194.314V190.08C94.0337 189.104 94.8128 188.303 95.8069 188.303H96.1628C96.3038 188.303 96.4449 188.323 96.5859 188.357C95.8068 188.552 95.236 189.246 95.236 190.08V194.314C95.236 195.149 95.8068 195.843 96.5859 196.038Z" fill="#33466E"/>
<path d="M97.4404 208.532L58.1953 231.985L56.9863 232.712L50.3973 226.108L90.8447 201.921L97.4404 208.532ZM89.4007 208.209L89.2059 208.014C89.0111 207.818 88.7827 207.677 88.5342 207.569C87.8625 207.286 87.023 207.3 86.4185 207.657L61.1842 222.783C60.3513 223.281 60.2237 224.257 60.9155 224.957L61.0902 225.132C61.7282 225.772 62.8634 225.967 63.7029 225.576C63.7567 225.556 63.8306 225.523 63.8776 225.489L89.1253 210.376C89.9648 209.885 90.0925 208.902 89.4007 208.209Z" fill="#3A75B9"/>
<path d="M62.8493 224.957L63.024 225.132C63.2188 225.327 63.4471 225.469 63.6956 225.576C62.8628 225.967 61.7277 225.772 61.0829 225.132L60.9082 224.957C60.2164 224.264 60.3373 223.281 61.1769 222.783L86.4112 207.657C87.0156 207.3 87.8485 207.28 88.5269 207.569C88.4731 207.589 88.406 207.623 88.3523 207.657L63.118 222.783C62.2852 223.288 62.1575 224.264 62.8493 224.957Z" fill="#33466E"/>
<path d="M99.3738 208.532L58.9264 232.719L58.201 231.985L97.4394 208.532L90.8504 201.928H92.7915L99.3738 208.532Z" fill="#33466E"/>
<path d="M70.5107 284.182H61.1881L47.9631 232.719H57.2858L70.5107 284.182ZM66.3129 278.063L56.0835 238.394C55.8685 237.572 55.0894 236.879 54.2566 236.704C54.1155 236.684 53.9879 236.67 53.867 236.67H53.5983C52.6244 236.67 52.0199 237.451 52.2685 238.394L62.4978 278.063C62.7463 279.006 63.7404 279.787 64.7143 279.787H64.983C65.1039 279.787 65.2315 279.766 65.3591 279.753C65.3792 279.753 65.3793 279.753 65.3793 279.753C66.1181 279.558 66.5211 278.885 66.3129 278.063Z" fill="#3A75B9"/>
<path d="M65.3508 279.753C65.2299 279.773 65.1023 279.787 64.9747 279.787H64.7061C63.7322 279.787 62.7381 279.006 62.4896 278.063L52.2603 238.394C52.0118 237.451 52.6163 236.67 53.5902 236.67H53.8588C53.9864 236.67 54.1073 236.69 54.2484 236.704C53.5028 236.879 53.0797 237.579 53.2879 238.394L63.5172 278.063C63.7322 278.885 64.518 279.578 65.3508 279.753Z" fill="#142538"/>
<path d="M71.5459 284.182H70.5116L57.2867 232.719H58.3143L71.5459 284.182Z" fill="#142538"/>
<path d="M58.2202 230.78C58.2202 233.574 56.2858 235.903 53.6932 236.509C53.4985 236.563 53.3037 236.596 53.1089 236.617C52.8604 236.65 52.6119 236.67 52.3432 236.67C49.0924 236.67 46.4662 234.038 46.4662 230.78C46.4662 227.522 49.0924 224.89 52.3432 224.89C52.6119 224.89 52.8604 224.91 53.1089 224.944C53.3037 224.964 53.4985 224.998 53.6932 225.052C56.2858 225.651 58.2202 227.98 58.2202 230.78Z" fill="#4782D5"/>
<path d="M59.7317 230.78C59.7317 234.038 57.1055 236.67 53.8546 236.67H52.3434C52.612 236.67 52.8605 236.65 53.1091 236.616C53.3038 236.596 53.4986 236.563 53.6934 236.509C56.286 235.903 58.2204 233.574 58.2204 230.78C58.2204 227.986 56.286 225.657 53.6934 225.051C53.4986 224.997 53.3038 224.964 53.1091 224.944C52.8605 224.91 52.612 224.89 52.3434 224.89H53.6934V224.91C53.7471 224.89 53.8009 224.89 53.8546 224.89C57.1055 224.883 59.7317 227.522 59.7317 230.78Z" fill="#0B3080"/>
<path d="M54.8418 230.78C54.8418 231.965 54.0224 232.954 52.9209 233.217C52.8403 233.237 52.7529 233.257 52.6723 233.264C52.5648 233.277 52.4641 233.284 52.3499 233.284C50.9663 233.284 49.8513 232.167 49.8513 230.78C49.8513 229.393 50.9663 228.276 52.3499 228.276C52.4641 228.276 52.5715 228.283 52.6723 228.296C52.7529 228.303 52.8403 228.316 52.9209 228.343C54.0157 228.599 54.8418 229.589 54.8418 230.78Z" fill="#0B3080"/>
<path d="M100.953 204.526C100.953 207.32 99.0183 209.649 96.4256 210.255C96.2309 210.309 96.0361 210.343 95.8413 210.363C95.5928 210.396 95.3443 210.417 95.0756 210.417C91.8247 210.417 89.1985 207.785 89.1985 204.526C89.1985 201.268 91.8247 198.636 95.0756 198.636C95.3443 198.636 95.5928 198.656 95.8413 198.69C96.0361 198.71 96.2309 198.744 96.4256 198.798C99.0183 199.404 100.953 201.733 100.953 204.526Z" fill="#4782D5"/>
<path d="M102.458 204.527C102.458 207.786 99.8323 210.418 96.5815 210.418H95.0703C95.3389 210.418 95.5874 210.397 95.8359 210.364C96.0307 210.344 96.2255 210.31 96.4203 210.256C99.0129 209.65 100.947 207.321 100.947 204.527C100.947 201.734 99.0129 199.405 96.4203 198.799C96.2255 198.745 96.0307 198.711 95.8359 198.691C95.5874 198.657 95.3389 198.637 95.0703 198.637H96.4203V198.657C96.474 198.637 96.5278 198.637 96.5815 198.637C99.8323 198.637 102.458 201.269 102.458 204.527Z" fill="#0B3080"/>
<path d="M97.5688 204.526C97.5688 205.711 96.7494 206.701 95.6479 206.963C95.5673 206.983 95.48 207.004 95.3994 207.01C95.2919 207.024 95.1911 207.031 95.077 207.031C93.6933 207.031 92.5784 205.913 92.5784 204.526C92.5784 203.14 93.6933 202.022 95.077 202.022C95.1911 202.022 95.2986 202.029 95.3994 202.042C95.48 202.049 95.5673 202.063 95.6479 202.09C96.7494 202.352 97.5688 203.342 97.5688 204.526Z" fill="#0B3080"/>
<path d="M115.262 166.425V192.194L88.1475 188.189C83.8153 187.549 80.6183 183.827 80.6183 179.451C80.6183 177.277 81.4175 175.25 82.734 173.702C83.5131 172.78 84.4937 172.026 85.6087 171.494C86.3744 171.117 87.1871 170.855 88.0602 170.713L115.262 166.425Z" fill="#4074C3"/>
<path d="M115.266 187.266V192.194L88.1506 188.189C83.8184 187.549 80.6213 183.827 80.6213 179.451C80.6213 177.277 81.4206 175.25 82.737 173.702C83.5162 172.78 84.4968 172.026 85.6118 171.494V187.266H115.266Z" fill="#0B3080"/>
<path d="M76.2877 286.109H50.9526V284.183H76.2877V286.109Z" fill="#8CA9DF"/>
<path d="M83.8093 286.109H76.2866V284.183H83.8093V286.109Z" fill="#0B3080"/>
<path d="M354.729 251.689L353.386 251.17C353.305 251.386 351.693 255.62 351.586 261.49C347.576 253.392 343.123 246.337 338.67 240.305C338.455 234.678 340.087 230.349 340.101 230.302L338.757 229.784C338.683 229.965 337.36 233.479 337.212 238.38C333.592 233.654 330.019 229.595 326.728 226.202C325.465 221.026 326.358 216.61 326.365 216.563L324.955 216.267C324.921 216.442 324.223 219.875 324.894 224.351C317.15 216.67 311.401 212.887 311.253 212.793C310.756 212.47 310.084 212.618 309.762 213.116C309.439 213.621 309.587 214.287 310.084 214.611C310.225 214.698 315.33 218.057 322.355 224.863C317.949 224.008 314.517 224.553 314.342 224.587L314.577 226.007C314.624 226.001 319.158 225.28 324.35 226.842C328.293 230.834 332.706 235.822 337.125 241.833C331.557 240.575 327.097 241.288 326.882 241.322L327.117 242.742C327.171 242.735 332.417 241.907 338.448 243.664C342.955 250.012 347.415 257.431 351.331 265.953C343.942 264.061 337.877 265.031 337.595 265.078L337.83 266.498C337.898 266.485 344.507 265.441 352.096 267.663C355.455 275.236 358.376 283.651 360.526 292.927C360.66 293.499 361.218 293.856 361.788 293.741C361.802 293.741 361.809 293.735 361.822 293.735C362.4 293.6 362.762 293.021 362.628 292.435C360.25 282.163 356.932 272.94 353.124 264.721C352.54 257.505 354.709 251.749 354.729 251.689Z" fill="#6E7AC4"/>
<path d="M310.74 214.348C310.74 214.348 318.733 202.998 311.043 196.637C311.043 196.637 306.569 198.091 306.569 206.358C306.569 206.358 302.365 192.679 291.853 193.325C291.853 193.325 292.693 205.597 302.963 210.397C302.963 210.397 296.978 208.842 293.311 212.524C293.318 212.524 299.638 221.181 310.74 214.348Z" fill="#E698AE"/>
<path d="M326.17 218.939C326.17 218.939 336.279 218.582 336.567 211.305C336.567 211.305 333.753 209.34 328.957 212.995C328.957 212.995 335.029 204.513 330.019 198.677C330.019 198.677 323.275 204.58 325.028 212.672C325.028 212.672 323.289 208.505 319.541 207.993C319.548 207.987 317.318 215.486 326.17 218.939Z" fill="#E698AE"/>
<path d="M339.535 232.988C339.535 232.988 351.013 234.462 352.692 226.29C352.692 226.29 349.871 223.55 343.786 226.782C343.786 226.782 352.209 218.327 347.628 210.807C347.628 210.807 338.923 216.22 339.407 225.691C339.407 225.691 338.211 220.656 334.074 219.383C334.074 219.39 330.172 227.448 339.535 232.988Z" fill="#E698AE"/>
<path d="M354.184 254.866C354.184 254.866 367.543 256.583 369.491 247.077C369.491 247.077 366.213 243.887 359.127 247.65C359.127 247.65 368.927 237.815 363.601 229.063C363.601 229.063 353.472 235.364 354.029 246.384C354.029 246.384 352.639 240.528 347.823 239.047C347.823 239.047 343.283 248.417 354.184 254.866Z" fill="#E698AE"/>
<path d="M316.961 225.906C316.961 225.906 316.175 236.011 308.901 235.99C308.901 235.99 307.06 233.089 310.909 228.444C310.909 228.444 302.191 234.159 296.589 228.888C296.589 228.888 302.762 222.392 310.755 224.493C310.755 224.493 306.671 222.567 306.328 218.798C306.335 218.791 313.905 216.886 316.961 225.906Z" fill="#E698AE"/>
<path d="M329.938 242.749C329.938 242.749 329.011 254.597 320.488 254.57C320.488 254.57 318.332 251.164 322.846 245.724C322.846 245.724 312.623 252.422 306.061 246.249C306.061 246.249 313.295 238.636 322.671 241.1C322.671 241.1 317.889 238.845 317.479 234.422C317.479 234.415 326.352 232.174 329.938 242.749Z" fill="#E698AE"/>
<path d="M341.388 266.693C341.388 266.693 340.233 281.51 329.567 281.476C329.567 281.476 326.873 277.215 332.515 270.409C332.515 270.409 319.734 278.79 311.519 271.062C311.519 271.062 320.573 261.537 332.3 264.62C332.3 264.62 326.316 261.799 325.805 256.266C325.799 256.266 336.901 253.466 341.388 266.693Z" fill="#E698AE"/>
<path d="M354.405 296.225L352.639 294.98C371.23 268.565 389.694 189.091 389.876 188.29L391.978 188.774C391.226 192.06 373.239 269.467 354.405 296.225Z" fill="#6E7AC4"/>
<path d="M402.506 145.571C402.506 145.571 383.8 164.076 390.039 191.952C390.039 191.959 403.466 176.577 402.506 145.571Z" fill="#81C4EF"/>
<path d="M374.253 165.496C374.253 165.496 365.475 191.696 384.476 214.839C384.476 214.839 389.789 194.072 374.253 165.496Z" fill="#81C4EF"/>
<path d="M360.842 182.709C360.842 182.709 353.615 213.298 377.533 237.538C377.533 237.538 381.402 213.459 360.842 182.709Z" fill="#81C4EF"/>
<path d="M354.553 202.844C354.553 202.844 347.326 233.432 371.244 257.673C371.244 257.673 375.106 233.594 354.553 202.844Z" fill="#81C4EF"/>
<path d="M419.752 179.747C419.752 179.747 412.471 206.405 383.825 215.008C383.825 215.014 390.965 194.799 419.752 179.747Z" fill="#81C4EF"/>
<path d="M421.317 201.531C421.317 201.531 410.309 230.962 376.967 237.727C376.967 237.734 387.15 215.58 421.317 201.531Z" fill="#81C4EF"/>
<path d="M415.191 222.157C415.191 222.157 404.183 251.588 370.842 258.353C370.835 258.353 381.017 236.199 415.191 222.157Z" fill="#81C4EF"/>
<path d="M422.364 214.355C379.976 248.235 356.273 357.329 356.273 357.329C356.273 357.329 311.036 328.497 343.007 298.79C343.007 298.79 337.345 272.617 366.012 268.693C366.012 268.693 363.856 244.183 386.423 237.458C386.423 237.458 394.383 203.914 420.389 213.527C421.088 213.796 421.739 214.072 422.364 214.355Z" fill="#6E7AC4"/>
<path d="M407.56 253.984C407.56 253.984 420.248 276.111 394.497 297.356C394.497 297.356 424.775 344.007 356.272 357.335C356.272 357.335 379.969 248.242 422.364 214.361C444.764 224.809 415.627 254.253 407.56 253.984Z" fill="#798ED3"/>
<path d="M422.706 214.079C422.552 213.884 422.27 213.857 422.075 214.011C412.678 221.524 404.182 232.8 396.653 245.771C396.465 243.072 396.418 235.465 396.444 230.524C396.444 230.275 396.25 230.073 396.001 230.073C395.753 230.073 395.551 230.268 395.551 230.518C395.491 242.668 395.699 246 395.968 246.956C392.341 253.311 388.935 260.049 385.772 266.943C386.175 262.385 386.867 252.705 385.805 248.922C385.738 248.686 385.49 248.545 385.255 248.612C385.013 248.68 384.878 248.929 384.946 249.164C386.282 253.917 384.664 269.13 384.65 269.285L384.63 269.467C382.279 274.718 380.056 280.036 377.981 285.327L374.36 268.713C374.307 268.471 374.071 268.316 373.83 268.37C373.608 268.417 373.433 268.659 373.487 268.902L377.389 286.828C374.938 293.135 372.688 299.382 370.639 305.407L365.259 289.81C365.179 289.574 364.923 289.453 364.688 289.534C364.453 289.615 364.332 289.871 364.413 290.106L370.169 306.787C368.208 312.604 366.441 318.198 364.876 323.401L359.624 308.188C359.543 307.952 359.288 307.831 359.053 307.912C358.818 307.992 358.697 308.248 358.778 308.484L364.433 324.869C358.865 343.529 355.91 356.871 355.829 357.255C355.775 357.497 355.93 357.733 356.172 357.786C356.252 357.807 356.34 357.8 356.414 357.773C356.555 357.726 356.669 357.605 356.702 357.443C356.783 357.066 359.745 343.663 365.333 324.956C366.663 323.67 376.778 314.098 386.222 311.123C386.47 311.028 386.584 310.799 386.511 310.564C386.437 310.328 386.188 310.2 385.953 310.274C377.752 312.873 369.054 320.318 365.844 323.26C367.422 318.043 369.195 312.449 371.156 306.626C372.177 304.943 378.088 296.205 391.837 293.391C392.072 293.344 392.233 293.109 392.186 292.866C392.139 292.624 391.904 292.469 391.656 292.516C381.03 294.691 374.945 300.352 372.13 303.765C374.024 298.265 376.086 292.59 378.31 286.875C379.794 285.428 390.373 275.492 403.121 273.371C403.363 273.331 403.53 273.102 403.49 272.86C403.45 272.617 403.222 272.449 402.98 272.489C392.018 274.314 382.655 281.766 379.062 284.963C381.104 279.8 383.273 274.61 385.577 269.501C386.887 268.262 394.927 260.776 400.535 259.127C400.777 259.053 400.904 258.811 400.837 258.568C400.77 258.333 400.521 258.198 400.28 258.265C395.625 259.652 389.493 264.762 386.524 267.414C389.748 260.386 393.214 253.526 396.921 247.077C398.164 246.068 407.144 241.531 412.746 238.784C412.967 238.676 413.061 238.407 412.954 238.185C412.846 237.963 412.571 237.875 412.356 237.976C408.709 239.76 401.301 243.429 397.862 245.448C405.223 232.907 413.498 222.036 422.626 214.738C422.827 214.557 422.861 214.274 422.706 214.079Z" fill="#366DBF"/>
<path d="M352.233 360.621C352.233 360.621 336.275 264.58 306.399 270.275C276.517 275.977 352.233 360.621 352.233 360.621Z" fill="#798ED3"/>
<path d="M352.628 360.493C350.029 352.65 347.147 345.259 344.145 338.372C344.131 338.319 344.111 338.271 344.084 338.224C340.807 330.712 337.381 323.812 334.043 317.612C334.03 317.524 332.8 308.504 334.674 303.839C334.762 303.63 334.654 303.388 334.446 303.307C334.231 303.22 333.996 303.327 333.915 303.536C332.498 307.07 332.753 312.731 333.015 315.734C329.979 310.2 327.017 305.259 324.311 300.985C323.807 298.366 325.197 287.946 325.211 287.845C325.244 287.622 325.083 287.407 324.861 287.38C324.64 287.346 324.432 287.508 324.398 287.73C324.351 288.1 323.343 295.647 323.391 299.537C316.298 288.498 311.113 282.251 310.998 282.109C310.851 281.934 310.595 281.914 310.421 282.062C310.246 282.21 310.226 282.466 310.374 282.641C310.481 282.769 315.216 288.477 321.812 298.595C318.783 295.956 313.524 291.776 309.89 291.056C309.668 291.015 309.454 291.157 309.407 291.379C309.36 291.601 309.514 291.823 309.729 291.863C314.451 292.792 322.464 300.251 323.518 301.254C326.211 305.502 329.16 310.409 332.189 315.916C327.279 312.26 320.926 311.055 320.623 311.001C320.402 310.961 320.187 311.109 320.146 311.331C320.106 311.553 320.234 311.755 320.476 311.809C320.556 311.823 328.448 313.317 333.264 317.881C336.226 323.368 339.248 329.399 342.184 335.929C337.435 330.57 332.814 327.77 332.23 327.622C332.015 327.568 331.813 327.696 331.746 327.905C331.686 328.113 331.806 328.342 332.015 328.416C332.565 328.611 338.08 331.883 343.386 338.655C346.388 345.535 349.27 352.926 351.869 360.769C351.916 360.91 352.023 361.004 352.158 361.038C352.232 361.058 352.312 361.058 352.386 361.031C352.581 360.944 352.695 360.708 352.628 360.493Z" fill="#6E7AC4"/>
<path d="M449.164 277.734C407.998 292.335 361.304 369.109 361.304 369.109C361.304 369.109 334.451 335.229 366.583 321.059C366.583 321.059 369.149 299.645 391.999 304.223C391.999 304.223 396.794 285.004 415.735 285.838C415.735 285.838 430.606 262.406 447.868 276.589C448.344 276.966 448.768 277.35 449.164 277.734Z" fill="#E37BA3"/>
<path d="M427.49 303.98C427.49 303.98 431.332 324.169 406.151 333.539C406.151 333.539 416.945 377.039 361.305 369.102C361.305 369.102 407.999 292.321 449.165 277.727C463.478 291.594 433.562 306.316 427.49 303.98Z" fill="#E698AE"/>
<path d="M448.473 277.525C448.405 277.336 448.197 277.235 448.016 277.303C438.888 280.541 429.465 286.875 420.323 294.765C420.887 292.658 422.855 286.862 424.172 283.105C424.239 282.917 424.138 282.715 423.95 282.648C423.762 282.58 423.561 282.681 423.494 282.87C420.256 292.106 419.537 294.691 419.49 295.492C415.057 299.369 410.698 303.597 406.48 308.012C407.985 304.653 411.054 297.464 411.242 294.307C411.256 294.112 411.101 293.937 410.907 293.923C410.705 293.91 410.537 294.064 410.524 294.26C410.289 298.231 405.063 309.379 405.009 309.493L404.949 309.628C401.779 313.001 398.696 316.461 395.72 319.941L397.332 306.343C397.359 306.148 397.218 305.966 397.017 305.939C396.835 305.919 396.641 306.054 396.62 306.256L394.881 320.931C391.361 325.084 388.003 329.244 384.866 333.29V320.002C384.866 319.8 384.705 319.638 384.504 319.638C384.302 319.638 384.141 319.8 384.141 320.002V334.219C381.119 338.13 378.311 341.92 375.745 345.467V332.502C375.745 332.3 375.584 332.139 375.383 332.139C375.181 332.139 375.02 332.3 375.02 332.502V346.47C365.879 359.2 360.129 368.584 359.968 368.847C359.867 369.015 359.921 369.237 360.089 369.345C360.149 369.378 360.21 369.399 360.277 369.399C360.398 369.399 360.519 369.338 360.586 369.224C360.747 368.954 366.523 359.537 375.691 346.773C377.042 346.147 387.257 341.529 395.223 341.758C395.438 341.752 395.586 341.61 395.593 341.408C395.599 341.206 395.445 341.045 395.244 341.038C388.319 340.85 379.742 344.222 376.531 345.616C379.104 342.061 381.924 338.271 384.947 334.36C386.169 333.35 392.96 328.255 404.163 329.742C404.351 329.769 404.539 329.628 404.566 329.433C404.593 329.237 404.452 329.056 404.257 329.029C395.599 327.878 389.481 330.584 386.438 332.442C389.326 328.753 392.382 324.983 395.579 321.22C397.091 320.506 407.75 315.74 418.013 317.491C418.208 317.524 418.396 317.39 418.429 317.194C418.463 316.999 418.328 316.811 418.134 316.777C409.315 315.276 400.227 318.473 396.654 319.961C399.562 316.568 402.578 313.196 405.674 309.911C406.998 309.312 415.078 305.737 419.786 305.959C419.987 305.966 420.155 305.818 420.162 305.616C420.169 305.414 420.021 305.246 419.82 305.239C415.917 305.071 409.899 307.333 406.944 308.571C411.242 304.074 415.682 299.766 420.196 295.835C421.405 295.397 429.431 294.307 434.421 293.701C434.616 293.674 434.757 293.499 434.737 293.297C434.71 293.102 434.529 292.96 434.334 292.981C431.09 293.378 424.488 294.213 421.337 294.839C430.237 287.232 439.392 281.146 448.251 277.996C448.439 277.915 448.54 277.707 448.473 277.525Z" fill="#366DBF"/>
<path d="M354.313 368.57C354.293 368.57 354.273 368.57 354.259 368.564C354.064 368.53 353.93 368.348 353.957 368.153C354.118 367.143 354.266 366.147 354.4 365.157C354.427 364.962 354.615 364.828 354.803 364.848C354.998 364.875 355.139 365.057 355.112 365.252C354.978 366.241 354.823 367.244 354.669 368.261C354.642 368.442 354.488 368.57 354.313 368.57Z" fill="#414042"/>
<path d="M354.313 368.57C354.293 368.57 354.273 368.57 354.259 368.564C354.064 368.53 353.93 368.348 353.957 368.153C354.118 367.143 354.266 366.147 354.4 365.157C354.427 364.962 354.615 364.828 354.803 364.848C354.998 364.875 355.139 365.057 355.112 365.252C354.978 366.241 354.823 367.244 354.669 368.261C354.642 368.442 354.488 368.57 354.313 368.57Z" fill="#414042"/>
<path d="M354.757 373.054C352.151 370.866 319.481 342.593 338.14 317.201C338.14 317.201 300.97 279.47 327.588 260.002C327.615 259.982 327.656 259.962 327.682 259.935C327.991 259.713 328.3 259.497 328.609 259.296C338.107 269.44 364.543 304.546 354.757 373.054Z" fill="#808285"/>
<path d="M359.244 373.195H354.925C354.925 373.195 354.864 373.155 354.757 373.054C364.543 304.546 338.106 269.44 328.609 259.295C354.515 242.056 366.39 300.305 363.079 313.115C363.085 313.115 390.892 332.583 359.244 373.195Z" fill="#81C4EF"/>
<path d="M354.757 373.054C352.151 370.866 319.481 342.593 338.14 317.201C338.14 317.201 300.97 279.47 327.588 260.002C327.615 259.982 327.656 259.962 327.682 259.935C327.991 259.713 328.3 259.497 328.609 259.296C338.107 269.44 364.543 304.546 354.757 373.054Z" fill="#72B1E7"/>
<path d="M365.316 337.585C365.229 337.41 365.007 337.336 364.833 337.43C364.645 337.531 360.44 339.752 357.236 346.053C357.31 339.342 357.021 332.812 356.363 326.484C357.464 323.388 362.381 320.183 362.435 320.15C362.603 320.042 362.65 319.82 362.542 319.652C362.435 319.483 362.213 319.436 362.045 319.544C361.85 319.672 357.928 322.23 356.215 325.131C355.51 318.844 354.435 312.745 352.998 306.861C352.998 306.848 353.005 306.841 352.998 306.828C352.306 300.365 356.92 295.875 356.967 295.835C357.109 295.7 357.115 295.471 356.981 295.323C356.847 295.182 356.618 295.175 356.47 295.31C356.296 295.471 352.857 298.824 352.293 304.034C351.722 301.887 351.077 299.773 350.405 297.679C350.405 297.632 350.399 297.578 350.378 297.531C350.365 297.498 350.345 297.464 350.331 297.43C350.07 296.616 349.814 295.794 349.539 294.987C348.773 292.772 347.967 290.658 347.148 288.639C346.14 281.82 350.284 276.993 350.331 276.939C350.459 276.791 350.446 276.562 350.298 276.427C350.15 276.293 349.922 276.313 349.787 276.461C349.626 276.643 346.234 280.601 346.275 286.552C344.159 281.645 341.909 277.363 339.706 273.681C339.296 267.831 343.407 264.149 343.447 264.115C343.595 263.987 343.608 263.758 343.481 263.604C343.346 263.456 343.118 263.442 342.977 263.57C342.809 263.718 339.135 267.003 338.967 272.463C335.085 266.175 331.397 261.746 328.865 259.046C328.731 258.898 328.503 258.891 328.355 259.033C328.207 259.167 328.2 259.396 328.341 259.544C331.579 262.998 336.71 269.285 341.721 278.736C336.616 274.159 329.671 274.448 326.87 274.57C326.481 274.59 326.078 274.603 325.944 274.59C325.809 274.522 325.641 274.549 325.527 274.664C325.386 274.805 325.393 275.034 325.534 275.175C325.708 275.35 325.937 275.337 326.897 275.297C329.94 275.162 338.013 274.819 342.903 281.045C344.985 285.206 347.02 289.931 348.847 295.236V295.242C343.756 289.534 331.659 288.423 331.082 288.369C330.887 288.356 330.712 288.497 330.692 288.699C330.672 288.895 330.82 289.07 331.021 289.09C331.176 289.103 346.234 290.483 349.653 297.72C351.54 303.57 353.038 309.648 354.153 315.942C349.458 308.228 338.007 306.585 337.476 306.518C337.281 306.491 337.1 306.632 337.073 306.828C337.046 307.023 337.187 307.205 337.382 307.232C337.516 307.252 351.111 309.184 354.59 318.453C354.59 318.453 354.59 318.453 354.597 318.46C355.013 321.072 355.342 323.731 355.624 326.417C355.591 326.518 355.55 326.612 355.53 326.713C355.49 326.875 355.564 327.029 355.698 327.103C356.007 330.207 356.229 333.364 356.363 336.568C352.823 329.951 342.889 326.605 342.439 326.457C342.251 326.397 342.05 326.498 341.983 326.686C341.922 326.875 342.023 327.077 342.211 327.144C342.325 327.184 353.824 331.048 356.37 338.366C356.383 338.406 356.417 338.426 356.444 338.46C356.538 341.489 356.551 344.559 356.484 347.662C356.47 347.709 356.47 347.756 356.484 347.803C356.423 350.907 356.269 354.057 356.054 357.241C353.555 348.369 343.534 343.966 343.427 343.919C343.245 343.838 343.031 343.926 342.957 344.108C342.876 344.289 342.963 344.505 343.145 344.579C343.266 344.633 354.979 349.789 355.846 360.102C355.416 365.306 354.785 370.61 353.945 376.009C353.911 376.204 354.046 376.393 354.247 376.42C354.267 376.42 354.288 376.426 354.301 376.426C354.476 376.426 354.63 376.298 354.657 376.123C356.182 366.356 357.028 356.905 357.209 347.79C360.353 340.634 365.101 338.11 365.155 338.09C365.343 337.975 365.41 337.76 365.316 337.585Z" fill="#6E7AC4"/>
<path d="M352.317 371.842L352.29 371.815C351.538 371.135 339.253 360.256 328.91 359.455C318.237 358.627 319.191 362.357 310.795 361.63C302.406 360.909 302.52 357.18 297.61 357.18C292.875 357.18 281.806 360.189 276.178 370.065C275.956 370.448 275.748 370.839 275.546 371.243C275.546 371.243 276.869 351.775 294.971 346.255C313.072 340.721 334.175 340.351 352.317 371.842Z" fill="#81C4EF"/>
<path d="M352.319 371.842C351.856 371.559 334.513 360.822 322.914 364.753C311.146 368.732 307.325 366.443 296.659 363.07C285.986 359.705 275.555 371.236 275.555 371.236L276.186 370.058C281.815 360.182 292.884 357.173 297.619 357.173C302.536 357.173 302.415 360.903 310.804 361.623C319.2 362.343 318.239 358.614 328.918 359.449C339.262 360.25 351.54 371.128 352.299 371.808L352.319 371.842Z" fill="#72B1E7"/>
<path d="M352.568 371.586C346.321 363.945 339.92 358.069 333.426 353.969C330.954 350.085 327.172 348.335 327.011 348.261C326.837 348.18 326.615 348.261 326.534 348.442C326.454 348.624 326.534 348.84 326.716 348.92C326.749 348.934 329.557 350.24 331.834 353.007C328.16 350.859 324.452 349.277 320.718 348.274C319.227 345.682 314.787 344.626 314.592 344.579C314.397 344.538 314.203 344.653 314.162 344.848C314.115 345.043 314.236 345.238 314.431 345.279C314.471 345.285 317.984 346.127 319.636 347.998C316.836 347.325 314.015 346.968 311.187 346.941C311.079 346.941 310.965 346.941 310.858 346.941C309.944 346.941 309.051 346.988 308.164 347.049C308.151 347.036 308.144 347.022 308.138 347.015C306.015 345.359 301.716 345.635 301.535 345.649C301.34 345.662 301.186 345.837 301.199 346.033C301.213 346.228 301.387 346.376 301.582 346.369C301.616 346.362 304.914 346.16 306.982 347.157C304.477 347.426 302.099 347.944 299.869 348.624C299.809 348.624 299.742 348.638 299.688 348.671C299.681 348.671 299.668 348.685 299.661 348.692C297.834 349.264 296.115 349.95 294.503 350.698H288.854C288.653 350.698 288.491 350.859 288.491 351.061C288.491 351.263 288.653 351.425 288.854 351.425H293.018C284.596 355.713 279.545 361.549 279.471 361.643C279.343 361.798 279.364 362.02 279.511 362.155C279.659 362.283 279.887 362.269 280.022 362.114C280.109 362.007 286.577 354.521 297.089 350.374C294.798 351.929 291.675 354.265 290.594 356.049C290.493 356.218 290.547 356.44 290.715 356.547C290.775 356.581 290.836 356.601 290.903 356.601C291.024 356.601 291.144 356.541 291.212 356.426C292.77 353.861 299.164 349.87 299.984 349.358C303.389 348.301 307.15 347.641 311.207 347.682C312.691 347.695 314.169 347.81 315.647 348.005C312.792 348.799 307.365 350.859 305.209 355.363C305.122 355.544 305.202 355.76 305.377 355.841C305.431 355.867 305.478 355.874 305.531 355.874C305.666 355.874 305.793 355.8 305.854 355.672C308.507 350.132 316.782 348.436 317.514 348.294C321.315 348.994 325.09 350.3 328.845 352.205C326.313 352.306 321.195 353.283 316.641 358.883C316.513 359.038 316.54 359.267 316.694 359.388C316.762 359.442 316.842 359.469 316.923 359.469C317.024 359.469 317.131 359.422 317.205 359.334C323.028 352.172 329.745 352.892 330.296 352.966C331.196 353.464 332.102 353.989 333.002 354.555C333.016 354.562 333.029 354.568 333.043 354.575C334.91 355.753 336.77 357.079 338.617 358.553C336.885 358.102 334.124 357.638 331.249 358.156C331.055 358.19 330.927 358.378 330.961 358.574C330.994 358.769 331.196 358.897 331.377 358.863C335.561 358.102 339.625 359.59 340.102 359.772C344.125 363.158 348.101 367.251 352.024 372.044C352.098 372.131 352.198 372.178 352.299 372.178C352.38 372.178 352.46 372.151 352.528 372.098C352.669 371.963 352.689 371.741 352.568 371.586Z" fill="#6E7AC4"/>
<path d="M354.175 373.054C354.175 373.054 319.96 294.704 295.74 305.999C271.52 317.295 354.175 373.054 354.175 373.054Z" fill="#E698AE"/>
<path d="M354.481 372.865C350.585 366.746 346.542 361.071 342.505 355.854C342.485 355.814 342.458 355.774 342.418 355.747C338.011 350.059 333.619 344.916 329.434 340.358C329.407 340.284 326.425 332.873 327.016 328.49C327.043 328.295 326.902 328.113 326.707 328.086C326.506 328.059 326.331 328.201 326.304 328.396C325.854 331.708 327.285 336.481 328.158 338.978C324.383 334.926 320.804 331.351 317.58 328.295C316.585 326.175 315.531 316.999 315.524 316.912C315.504 316.717 315.323 316.568 315.128 316.595C314.933 316.616 314.785 316.797 314.812 316.993C314.853 317.322 315.612 323.967 316.491 327.265C308.082 319.396 302.319 315.189 302.192 315.094C302.031 314.98 301.809 315.013 301.688 315.175C301.574 315.337 301.607 315.559 301.769 315.68C301.89 315.767 307.142 319.604 314.933 326.801C311.783 325.205 306.41 322.782 303.159 322.95C302.964 322.964 302.81 323.132 302.816 323.327C302.823 323.529 303.005 323.684 303.193 323.67C307.411 323.442 315.84 328.066 316.948 328.692C320.159 331.728 323.719 335.276 327.48 339.308C322.516 337.255 316.841 337.598 316.579 337.618C316.384 337.632 316.23 337.807 316.243 338.002C316.256 338.197 316.404 338.345 316.626 338.339C316.7 338.332 323.739 337.908 328.816 340.755C332.517 344.788 336.386 349.278 340.288 354.205C335.09 350.664 330.556 349.278 330.025 349.278C329.831 349.278 329.683 349.432 329.676 349.621C329.669 349.816 329.817 349.978 330.012 349.998C330.522 350.045 335.923 351.64 341.894 356.265C345.93 361.475 349.974 367.15 353.863 373.269C353.93 373.377 354.051 373.438 354.165 373.438C354.232 373.438 354.299 373.417 354.36 373.384C354.534 373.256 354.588 373.027 354.481 372.865Z" fill="#6E7AC4"/>
<path d="M380.602 368.57C381.992 368.57 383.121 369.701 383.121 371.095V391.653C383.121 402.202 374.591 410.758 364.059 410.758H355.784C355.341 410.758 354.891 410.744 354.454 410.711C364.354 410.024 372.179 401.751 372.179 391.653V368.57H380.602Z" fill="#2360B4"/>
<path d="M372.18 368.57V391.653C372.18 401.744 364.355 410.024 354.455 410.711C344.541 410.024 336.723 401.757 336.723 391.653V371.095C336.723 369.701 337.851 368.57 339.242 368.57H372.18Z" fill="#3889E0"/>
<path d="M372.18 368.57V391.653C372.18 401.744 364.355 410.024 354.455 410.711C344.541 410.024 336.723 401.757 336.723 391.653V371.095C336.723 369.701 337.851 368.57 339.242 368.57H372.18Z" fill="#3889E0"/>
<path d="M336.723 373.418H383.121V381.428H336.723V373.418Z" fill="#0E69C5"/>
<path d="M372.18 373.418H383.121V381.428H372.18V373.418Z" fill="#0D4FA5"/>
</g>
<defs>
<linearGradient id="paint0_linear" x1="215.57" y1="417.349" x2="215.57" y2="-2.65105" gradientUnits="userSpaceOnUse">
<stop stop-color="white"/>
<stop offset="1" stop-color="#808080"/>
</linearGradient>
<linearGradient id="paint1_linear" x1="215.57" y1="417.349" x2="215.57" y2="-2.65105" gradientUnits="userSpaceOnUse">
<stop stop-color="#3A73B6"/>
<stop offset="1" stop-color="#3A73B6"/>
</linearGradient>
<linearGradient id="paint2_linear" x1="114.653" y1="417.349" x2="114.653" y2="-2.6496" gradientUnits="userSpaceOnUse">
<stop stop-color="white"/>
<stop offset="1" stop-color="#808080"/>
</linearGradient>
<linearGradient id="paint3_linear" x1="114.653" y1="417.349" x2="114.653" y2="-2.6496" gradientUnits="userSpaceOnUse">
<stop stop-color="#3A73B6"/>
<stop offset="1" stop-color="#3A73B6"/>
</linearGradient>
<linearGradient id="paint4_linear" x1="366.305" y1="417.35" x2="366.305" y2="-2.64828" gradientUnits="userSpaceOnUse">
<stop stop-color="white"/>
<stop offset="1" stop-color="#808080"/>
</linearGradient>
<linearGradient id="paint5_linear" x1="366.305" y1="417.35" x2="366.305" y2="-2.64828" gradientUnits="userSpaceOnUse">
<stop stop-color="#3A73B6"/>
<stop offset="1" stop-color="#3A73B6"/>
</linearGradient>
<linearGradient id="paint6_linear" x1="189.549" y1="419.229" x2="189.549" y2="199.556" gradientUnits="userSpaceOnUse">
<stop stop-color="white"/>
<stop offset="1" stop-color="#808080"/>
</linearGradient>
<linearGradient id="paint7_linear" x1="189.549" y1="419.229" x2="189.549" y2="199.556" gradientUnits="userSpaceOnUse">
<stop stop-color="#3A73B6"/>
<stop offset="1" stop-color="#3A73B6"/>
</linearGradient>
<clipPath id="clip0">
<rect width="453" height="415" fill="white" transform="matrix(-1 0 0 1 453 0)"/>
</clipPath>
</defs>
</svg>
