<svg width="188" height="45" viewBox="0 0 188 45" fill="none" xmlns="http://www.w3.org/2000/svg">
<path d="M94.2373 34.5819V31.2191C94.2769 31.2191 94.3164 31.2191 94.356 31.2191C95.4637 31.2191 96.255 31.0608 96.6506 30.7048C97.0462 30.3487 97.2836 29.6366 97.2836 28.5289V10.3302H102.11V28.7267C102.11 29.7553 101.992 30.6257 101.833 31.2982C101.675 32.0103 101.359 32.6038 100.963 33.1181C100.567 33.6324 99.9738 33.9884 99.2617 34.2258C98.5496 34.4632 97.6792 34.5819 96.611 34.5819H94.2373Z" fill="#646565"/>
<path d="M112.199 34.3444C110.893 34.3444 109.825 34.1862 108.915 33.8301C108.005 33.474 107.293 32.9597 106.739 32.2872C106.185 31.6146 105.789 30.7838 105.552 29.8343C105.315 28.8848 105.196 27.8166 105.196 26.5111V17.7678C105.196 16.5018 105.315 15.3941 105.552 14.4842C105.789 13.5347 106.185 12.7434 106.739 12.0708C107.293 11.3983 108.005 10.884 108.915 10.5279C109.825 10.1719 110.933 10.0136 112.199 10.0136C114.691 10.0136 116.511 10.6862 117.619 11.9917C118.726 13.2973 119.241 15.2358 119.241 17.7678V26.5111C119.241 29.0826 118.687 31.0212 117.619 32.3267C116.511 33.6719 114.731 34.3444 112.199 34.3444ZM111.289 30.7047C111.566 30.8234 111.843 30.9025 112.238 30.9025C112.594 30.9025 112.911 30.8629 113.188 30.7047C113.465 30.586 113.662 30.4278 113.821 30.2695C113.979 30.0717 114.098 29.8343 114.177 29.5574C114.256 29.2804 114.335 28.9639 114.335 28.687C114.374 28.4101 114.375 28.0936 114.375 27.698V16.581C114.375 16.1853 114.374 15.8688 114.335 15.5919C114.295 15.315 114.256 15.038 114.177 14.7611C114.098 14.4841 113.979 14.2468 113.821 14.049C113.662 13.8907 113.465 13.7325 113.188 13.6138C112.911 13.4951 112.594 13.4555 112.238 13.4555C111.882 13.4555 111.566 13.4951 111.289 13.6138C111.012 13.7325 110.814 13.8907 110.695 14.049C110.537 14.2072 110.458 14.4446 110.339 14.7611C110.26 15.038 110.22 15.315 110.181 15.5919C110.141 15.8688 110.141 16.1853 110.141 16.581V27.698C110.141 28.0936 110.141 28.4101 110.181 28.687C110.22 28.9639 110.26 29.2409 110.339 29.5574C110.418 29.8343 110.537 30.1113 110.695 30.2695C110.814 30.4278 111.012 30.586 111.289 30.7047Z" fill="#646565"/>
<path d="M122.406 34.0279V10.2905H128.419C129.29 10.2905 130.081 10.3301 130.753 10.4488C131.426 10.5675 132.099 10.7257 132.771 11.0026C133.404 11.2796 133.958 11.6356 134.354 12.0708C134.789 12.506 135.105 13.0994 135.343 13.8511C135.58 14.5633 135.699 15.3545 135.699 16.304C135.699 16.3436 135.699 16.3831 135.699 16.4227C135.659 19.2712 134.512 20.8932 132.217 21.2493C134.987 21.6845 136.371 23.623 136.411 27.0254C136.411 27.0649 136.411 27.1441 136.411 27.1836C136.411 29.3991 135.817 31.1003 134.67 32.2476C133.483 33.3949 131.742 33.9883 129.487 33.9883H122.406V34.0279ZM127.232 19.8646H128.38C129.567 19.8646 130.397 19.5877 130.833 19.0734C131.268 18.5591 131.505 17.6887 131.505 16.5018C131.505 15.3941 131.228 14.6424 130.635 14.2072C130.081 13.772 129.171 13.5742 127.944 13.5742H127.232V19.8646V19.8646ZM127.232 30.6255H128.538C129.764 30.6255 130.595 30.3486 131.07 29.7552C131.545 29.2013 131.782 28.2518 131.782 26.9858C131.782 25.6011 131.545 24.6121 131.03 24.0186C130.516 23.4252 129.646 23.1483 128.419 23.1483H127.232V30.6255Z" fill="#646565"/>
<path d="M139.497 34.0279V10.2905H141.158L148.715 28.7266V10.2905H150.614V34.0279H149.031L141.435 15.3941V34.0279H139.497Z" fill="#345F7F"/>
<path d="M160.386 34.3444C159.238 34.3444 158.249 34.1862 157.458 33.8301C156.667 33.474 156.034 32.9597 155.559 32.2872C155.124 31.6146 154.768 30.8629 154.57 29.9926C154.372 29.1222 154.253 28.1331 154.253 27.0254V17.1744C154.253 16.0666 154.372 15.0776 154.57 14.2468C154.768 13.416 155.124 12.6643 155.559 12.0313C156.034 11.3983 156.667 10.884 157.458 10.5675C158.249 10.251 159.238 10.0532 160.346 10.0532C161.454 10.0532 162.443 10.2114 163.234 10.5675C164.025 10.884 164.658 11.3983 165.133 12.0313C165.608 12.6643 165.924 13.416 166.122 14.2468C166.32 15.0776 166.439 16.0666 166.439 17.1744V27.0649C166.439 27.9353 166.399 28.7661 166.241 29.4782C166.122 30.1904 165.924 30.8629 165.608 31.4959C165.331 32.1289 164.935 32.6432 164.5 33.0388C164.025 33.4345 163.471 33.7905 162.759 34.0279C162.087 34.2257 161.296 34.3444 160.386 34.3444ZM158.447 32.1685C158.961 32.4059 159.594 32.5245 160.346 32.5245C161.098 32.5245 161.731 32.4059 162.245 32.1685C162.759 31.9311 163.155 31.575 163.432 31.1003C163.709 30.6256 163.907 30.1112 163.986 29.5574C164.104 29.0035 164.144 28.2914 164.144 27.5001V16.7788C164.144 15.9875 164.104 15.2754 163.986 14.7215C163.867 14.1676 163.669 13.6533 163.432 13.1786C163.155 12.7038 162.759 12.3873 162.245 12.15C161.731 11.9126 161.098 11.7939 160.346 11.7939C159.594 11.7939 158.961 11.9126 158.447 12.15C157.933 12.3873 157.537 12.7038 157.26 13.1786C156.983 13.6533 156.785 14.1676 156.706 14.7215C156.588 15.2754 156.548 15.9875 156.548 16.7788V27.5001C156.548 28.2914 156.588 29.0035 156.706 29.5574C156.825 30.1112 157.023 30.6651 157.26 31.1003C157.537 31.6146 157.933 31.9311 158.447 32.1685Z" fill="#345F7F"/>
<path d="M173.124 34.0279L169.089 10.3301H170.988L174.114 29.5969L177.714 10.6861H179.573L183.213 29.6365L186.101 10.3301H188L184.162 34.0675H182.422L178.663 14.4841L174.944 34.0675H173.124V34.0279Z" fill="#345F7F"/>
<path d="M78.2147 28.8848L66.8999 24.2956C67.1373 20.7746 66.6626 16.9766 65.2383 13.6138C60.4117 2.2594 47.3562 -3.04194 36.0018 1.78465C24.6474 6.57169 19.3461 19.6272 24.1331 30.9816C28.9201 42.336 42.0153 47.6373 53.3696 42.8107C56.772 41.3865 59.7392 38.9732 61.9942 36.3225L73.3486 40.9118C76.7905 42.2964 80.4302 40.7535 81.8149 37.3512C82.9622 33.9884 81.4193 30.3882 78.2147 28.8848ZM51.3124 37.9841C42.6087 41.6634 32.639 37.6281 28.9597 28.9244C25.2804 20.2207 29.3158 10.251 38.0195 6.57169C46.7232 2.8924 56.6929 6.92775 60.3722 15.6315C64.0514 24.3352 60.0161 34.3049 51.3124 37.9841Z" fill="#646565"/>
<path d="M30.819 7.44206C30.1465 6.7695 29.3552 6.453 28.4057 6.453C28.3266 6.453 28.287 6.453 28.2475 6.453C28.2079 6.453 28.1288 6.453 28.0497 6.453C27.9705 6.453 27.931 6.453 27.8914 6.453C27.8518 6.453 27.7727 6.453 27.6936 6.453C27.6145 6.453 27.5749 6.453 27.5353 6.453C27.4958 6.453 27.4167 6.453 27.3375 6.453C27.2584 6.453 27.2188 6.453 27.1793 6.453C27.1397 6.453 27.0606 6.453 26.9815 6.453C26.9023 6.453 26.8628 6.453 26.8232 6.453C26.7837 6.453 26.7045 6.453 26.6254 6.453C26.5463 6.453 26.5067 6.453 26.4672 6.453C26.4276 6.453 26.3485 6.453 26.2694 6.453C26.1902 6.453 26.1507 6.453 26.1111 6.453C26.0715 6.453 25.9924 6.453 25.9133 6.453C25.8342 6.453 25.7946 6.453 25.755 6.453C25.7155 6.453 25.6364 6.453 25.5572 6.453C25.4781 6.453 25.4385 6.453 25.399 6.453C25.3594 6.453 25.2803 6.453 25.2012 6.453C25.122 6.453 25.0825 6.453 25.0429 6.453C25.0034 6.453 24.9242 6.453 24.8451 6.453C24.766 6.453 24.7264 6.453 24.6869 6.453C24.6473 6.453 24.5682 6.453 24.489 6.453C24.4099 6.453 24.3704 6.453 24.3308 6.453C24.2912 6.453 24.2121 6.453 24.133 6.453C24.0539 6.453 24.0143 6.453 23.9747 6.453C23.9352 6.453 23.8561 6.453 23.7769 6.453C23.6978 6.453 23.6582 6.453 23.6187 6.453C23.5791 6.453 23.5 6.453 23.4209 6.453C23.3417 6.453 23.3022 6.453 23.2626 6.453C23.2231 6.453 23.1439 6.453 23.0648 6.453C22.9857 6.453 22.9461 6.453 22.9066 6.453C22.867 6.453 22.7879 6.453 22.7087 6.453C22.6296 6.453 22.5901 6.453 22.5505 6.453C22.5109 6.453 22.4318 6.453 22.3527 6.453C22.2736 6.453 22.234 6.453 22.1944 6.453C22.1549 6.453 22.0757 6.453 21.9966 6.453C21.9175 6.453 21.8779 6.453 21.8384 6.453C21.7988 6.453 21.7197 6.453 21.6406 6.453C21.5614 6.453 21.5219 6.453 21.4823 6.453C21.4428 6.453 21.3636 6.453 21.2845 6.453C21.2054 6.453 21.1658 6.453 21.1263 6.453C21.0867 6.453 21.0076 6.453 20.9284 6.453C20.8493 6.453 20.8098 6.453 20.7702 6.453C20.7306 6.453 20.6515 6.453 20.5724 6.453C20.4933 6.453 20.4537 6.453 20.4141 6.453C20.3746 6.453 20.2954 6.453 20.2163 6.453C20.1372 6.453 20.0976 6.453 20.0581 6.453C20.0185 6.453 19.9394 6.453 19.8603 6.453C19.7811 6.453 19.7416 6.453 19.702 6.453C19.6625 6.453 19.5833 6.453 19.5042 6.453C19.4251 6.453 19.3855 6.453 19.346 6.453C19.3064 6.453 19.2273 6.453 19.1481 6.453C19.069 6.453 19.0295 6.453 18.9899 6.453C18.9503 6.453 18.8712 6.453 18.7921 6.453C18.713 6.453 18.6734 6.453 18.6338 6.453C18.5943 6.453 18.5151 6.453 18.436 6.453C18.3569 6.453 18.3173 6.453 18.2778 6.453C18.2382 6.453 18.1591 6.453 18.08 6.453C18.0008 6.453 17.9613 6.453 17.9217 6.453C17.8821 6.453 17.803 6.453 17.7239 6.453C17.6448 6.453 17.6052 6.453 17.5656 6.453C17.5261 6.453 17.447 6.453 17.3678 6.453C17.2887 6.453 17.2492 6.453 17.2096 6.453C17.17 6.453 17.0909 6.453 17.0118 6.453C16.9327 6.453 16.8931 6.453 16.8535 6.453C16.814 6.453 16.7348 6.453 16.6557 6.453C16.5766 6.453 16.537 6.453 16.4975 6.453C16.4579 6.453 16.3788 6.453 16.2997 6.453C16.2205 6.453 16.181 6.453 16.1414 6.453C16.1018 6.453 16.0227 6.453 15.9436 6.453C15.8645 6.453 15.8249 6.453 15.7853 6.453C15.7458 6.453 15.6667 6.453 15.5875 6.453C15.5084 6.453 15.4688 6.453 15.4293 6.453C15.3897 6.453 15.3106 6.453 15.2315 6.453C15.1523 6.453 15.1128 6.453 15.0732 6.453C15.0337 6.453 14.9545 6.453 14.8754 6.453C14.7963 6.453 14.7567 6.453 14.7172 6.453C14.6776 6.453 14.5985 6.453 14.5194 6.453C14.4402 6.453 14.4007 6.453 14.3611 6.453C14.3215 6.453 14.2424 6.453 14.1633 6.453C14.0842 6.453 14.0446 6.453 14.005 6.453C13.9655 6.453 13.8864 6.453 13.8072 6.453C13.7281 6.453 13.6885 6.453 13.649 6.453C13.6094 6.453 13.5303 6.453 13.4512 6.453C13.372 6.453 13.3325 6.453 13.2929 6.453C13.2534 6.453 13.1742 6.453 13.0951 6.453C13.016 6.453 12.9764 6.453 12.9369 6.453C12.8973 6.453 12.8182 6.453 12.739 6.453C12.6599 6.453 12.6204 6.453 12.5808 6.453C12.5412 6.453 12.4621 6.453 12.383 6.453C12.3039 6.453 12.2643 6.453 12.2247 6.453C12.1852 6.453 12.1061 6.453 12.0269 6.453C11.9478 6.453 11.9082 6.453 11.8687 6.453C11.8291 6.453 11.75 6.453 11.6709 6.453C11.5917 6.453 11.5522 6.453 11.5126 6.453C11.4731 6.453 11.3939 6.453 11.3148 6.453C11.2357 6.453 11.1961 6.453 11.1566 6.453C11.117 6.453 11.0379 6.453 10.9587 6.453C10.8796 6.453 10.8401 6.453 10.8005 6.453C10.7609 6.453 10.6818 6.453 10.6027 6.453C10.5236 6.453 10.484 6.453 10.4444 6.453C10.4049 6.453 10.3257 6.453 10.2466 6.453C10.1675 6.453 10.1279 6.453 10.0884 6.453C10.0488 6.453 9.96969 6.453 9.89056 6.453C9.81144 6.453 9.77188 6.453 9.73232 6.453C9.69275 6.453 9.61363 6.453 9.5345 6.453C9.45538 6.453 9.41582 6.453 9.37625 6.453C9.33669 6.453 9.25757 6.453 9.17844 6.453C9.09932 6.453 9.05976 6.453 9.02019 6.453C8.98063 6.453 8.90151 6.453 8.82238 6.453C8.74326 6.453 8.7037 6.453 8.66413 6.453C8.62457 6.453 8.54545 6.453 8.46632 6.453C7.51683 6.453 6.72558 6.7695 6.05302 7.44206C5.38046 8.11462 5.06396 8.90587 5.06396 9.85536C5.06396 10.8049 5.38046 11.5961 6.05302 12.2687C6.72558 12.9412 7.51683 13.2577 8.46632 13.2577C8.54545 13.2577 8.58501 13.2577 8.66413 13.2577C8.7037 13.2577 8.78282 13.2577 8.82238 13.2577C8.90151 13.2577 8.94107 13.2577 9.02019 13.2577C9.05976 13.2577 9.13888 13.2577 9.17844 13.2577C9.25757 13.2577 9.29713 13.2577 9.37625 13.2577C9.41582 13.2577 9.49494 13.2577 9.5345 13.2577C9.61363 13.2577 9.65319 13.2577 9.73232 13.2577C9.77188 13.2577 9.851 13.2577 9.89056 13.2577C9.96969 13.2577 10.0093 13.2577 10.0884 13.2577C10.1279 13.2577 10.2071 13.2577 10.2466 13.2577C10.3257 13.2577 10.3653 13.2577 10.4444 13.2577C10.484 13.2577 10.5631 13.2577 10.6027 13.2577C10.6818 13.2577 10.7214 13.2577 10.8005 13.2577C10.8401 13.2577 10.9192 13.2577 10.9587 13.2577C11.0379 13.2577 11.0774 13.2577 11.1566 13.2577C11.1961 13.2577 11.2752 13.2577 11.3148 13.2577C11.3939 13.2577 11.4335 13.2577 11.5126 13.2577C11.5522 13.2577 11.6313 13.2577 11.6709 13.2577C11.75 13.2577 11.7896 13.2577 11.8687 13.2577C11.9082 13.2577 11.9874 13.2577 12.0269 13.2577C12.1061 13.2577 12.1456 13.2577 12.2247 13.2577C12.2643 13.2577 12.3434 13.2577 12.383 13.2577C12.4621 13.2577 12.5017 13.2577 12.5808 13.2577C12.6204 13.2577 12.6995 13.2577 12.739 13.2577C12.8182 13.2577 12.8577 13.2577 12.9369 13.2577C12.9764 13.2577 13.0555 13.2577 13.0951 13.2577C13.1742 13.2577 13.2138 13.2577 13.2929 13.2577C13.3325 13.2577 13.4116 13.2577 13.4512 13.2577C13.5303 13.2577 13.5699 13.2577 13.649 13.2577C13.6885 13.2577 13.7677 13.2577 13.8072 13.2577C13.8864 13.2577 13.9259 13.2577 14.005 13.2577C14.0446 13.2577 14.1237 13.2577 14.1633 13.2577C14.2424 13.2577 14.282 13.2577 14.3611 13.2577C14.4007 13.2577 14.4798 13.2577 14.5194 13.2577C14.5985 13.2577 14.638 13.2577 14.7172 13.2577C14.7567 13.2577 14.8359 13.2577 14.8754 13.2577C14.9545 13.2577 14.9941 13.2577 15.0732 13.2577C15.1128 13.2577 15.1919 13.2577 15.2315 13.2577C15.3106 13.2577 15.3502 13.2577 15.4293 13.2577C15.4688 13.2577 15.548 13.2577 15.5875 13.2577C15.6667 13.2577 15.7062 13.2577 15.7853 13.2577C15.8249 13.2577 15.904 13.2577 15.9436 13.2577C16.0227 13.2577 16.0623 13.2577 16.1414 13.2577C16.181 13.2577 16.2601 13.2577 16.2997 13.2577C16.3788 13.2577 16.4183 13.2577 16.4975 13.2577C16.537 13.2577 16.6162 13.2577 16.6557 13.2577C16.7348 13.2577 16.7744 13.2577 16.8535 13.2577C16.8931 13.2577 16.9722 13.2577 17.0118 13.2577C17.0909 13.2577 17.1305 13.2577 17.2096 13.2577C17.2492 13.2577 17.3283 13.2577 17.3678 13.2577C17.447 13.2577 17.4865 13.2577 17.5656 13.2577C17.6052 13.2577 17.6843 13.2577 17.7239 13.2577C17.803 13.2577 17.8426 13.2577 17.9217 13.2577C17.9613 13.2577 18.0404 13.2577 18.08 13.2577C18.1591 13.2577 18.1986 13.2577 18.2778 13.2577C18.3173 13.2577 18.3965 13.2577 18.436 13.2577C18.5151 13.2577 18.5547 13.2577 18.6338 13.2577C18.6734 13.2577 18.7525 13.2577 18.7921 13.2577C18.8712 13.2577 18.9108 13.2577 18.9899 13.2577C19.0295 13.2577 19.1086 13.2577 19.1481 13.2577C19.2273 13.2577 19.2668 13.2577 19.346 13.2577C19.3855 13.2577 19.4646 13.2577 19.5042 13.2577C19.5833 13.2577 19.6229 13.2577 19.702 13.2577C19.7416 13.2577 19.8207 13.2577 19.8603 13.2577C19.9394 13.2577 19.9789 13.2577 20.0581 13.2577C20.0976 13.2577 20.1768 13.2577 20.2163 13.2577C20.2954 13.2577 20.335 13.2577 20.4141 13.2577C20.4537 13.2577 20.5328 13.2577 20.5724 13.2577C20.6515 13.2577 20.6911 13.2577 20.7702 13.2577C20.8098 13.2577 20.8889 13.2577 20.9284 13.2577C21.0076 13.2577 21.0471 13.2577 21.1263 13.2577C21.1658 13.2577 21.2449 13.2577 21.2845 13.2577C21.3636 13.2577 21.4032 13.2577 21.4823 13.2577C21.5219 13.2577 21.601 13.2577 21.6406 13.2577C21.7197 13.2577 21.7593 13.2577 21.8384 13.2577C21.8779 13.2577 21.9571 13.2577 21.9966 13.2577C22.0757 13.2577 22.1153 13.2577 22.1944 13.2577C22.234 13.2577 22.3131 13.2577 22.3527 13.2577C22.4318 13.2577 22.4714 13.2577 22.5505 13.2577C22.5901 13.2577 22.6692 13.2577 22.7087 13.2577C22.7879 13.2577 22.8274 13.2577 22.9066 13.2577C22.9461 13.2577 23.0252 13.2577 23.0648 13.2577C23.1439 13.2577 23.1835 13.2577 23.2626 13.2577C23.3022 13.2577 23.3813 13.2577 23.4209 13.2577C23.5 13.2577 23.5396 13.2577 23.6187 13.2577C23.6582 13.2577 23.7374 13.2577 23.7769 13.2577C23.8561 13.2577 23.8956 13.2577 23.9747 13.2577C24.0143 13.2577 24.0934 13.2577 24.133 13.2577C24.2121 13.2577 24.2517 13.2577 24.3308 13.2577C24.3704 13.2577 24.4495 13.2577 24.489 13.2577C24.5682 13.2577 24.6077 13.2577 24.6869 13.2577C24.7264 13.2577 24.8055 13.2577 24.8451 13.2577C24.9242 13.2577 24.9638 13.2577 25.0429 13.2577C25.0825 13.2577 25.1616 13.2577 25.2012 13.2577C25.2803 13.2577 25.3199 13.2577 25.399 13.2577C25.4385 13.2577 25.5177 13.2577 25.5572 13.2577C25.6364 13.2577 25.6759 13.2577 25.755 13.2577C25.7946 13.2577 25.8737 13.2577 25.9133 13.2577C25.9924 13.2577 26.032 13.2577 26.1111 13.2577C26.1507 13.2577 26.2298 13.2577 26.2694 13.2577C26.3485 13.2577 26.388 13.2577 26.4672 13.2577C26.5067 13.2577 26.5858 13.2577 26.6254 13.2577C26.7045 13.2577 26.7441 13.2577 26.8232 13.2577C26.8628 13.2577 26.9419 13.2577 26.9815 13.2577C27.0606 13.2577 27.1002 13.2577 27.1793 13.2577C27.2188 13.2577 27.298 13.2577 27.3375 13.2577C27.4167 13.2577 27.4562 13.2577 27.5353 13.2577C27.5749 13.2577 27.654 13.2577 27.6936 13.2577C27.7727 13.2577 27.8123 13.2577 27.8914 13.2577C27.931 13.2577 28.0101 13.2577 28.0497 13.2577C28.1288 13.2577 28.1683 13.2577 28.2475 13.2577C28.287 13.2577 28.3662 13.2577 28.4057 13.2577C29.3552 13.2577 30.1465 12.9412 30.819 12.2687C31.4916 11.5961 31.8081 10.8049 31.8081 9.85536C31.8081 8.90587 31.4916 8.11462 30.819 7.44206Z" fill="#646565"/>
<path d="M25.7551 17.3326C25.0825 16.6601 24.2912 16.3436 23.3418 16.3436C23.2626 16.3436 23.2231 16.3436 23.1835 16.3436C23.1439 16.3436 23.0648 16.3436 22.9857 16.3436C22.9066 16.3436 22.867 16.3436 22.8274 16.3436C22.7879 16.3436 22.7088 16.3436 22.6296 16.3436C22.5505 16.3436 22.5109 16.3436 22.4714 16.3436C22.4318 16.3436 22.3527 16.3436 22.2736 16.3436C22.1944 16.3436 22.1549 16.3436 22.1153 16.3436C22.0758 16.3436 21.9966 16.3436 21.9175 16.3436C21.8384 16.3436 21.7988 16.3436 21.7593 16.3436C21.7197 16.3436 21.6406 16.3436 21.5614 16.3436C21.4823 16.3436 21.4428 16.3436 21.4032 16.3436C21.3636 16.3436 21.2845 16.3436 21.2054 16.3436C21.1263 16.3436 21.0867 16.3436 21.0471 16.3436C21.0076 16.3436 20.9285 16.3436 20.8493 16.3436C20.7702 16.3436 20.7306 16.3436 20.6911 16.3436C20.6515 16.3436 20.5724 16.3436 20.4933 16.3436C20.4141 16.3436 20.3746 16.3436 20.335 16.3436C20.2955 16.3436 20.2163 16.3436 20.1372 16.3436C20.0581 16.3436 20.0185 16.3436 19.979 16.3436C19.9394 16.3436 19.8603 16.3436 19.7811 16.3436C19.702 16.3436 19.6625 16.3436 19.6229 16.3436C19.5833 16.3436 19.5042 16.3436 19.4251 16.3436C19.346 16.3436 19.3064 16.3436 19.2668 16.3436C19.2273 16.3436 19.1481 16.3436 19.069 16.3436C18.9899 16.3436 18.9503 16.3436 18.9108 16.3436C18.8712 16.3436 18.7921 16.3436 18.713 16.3436C18.6338 16.3436 18.5943 16.3436 18.5547 16.3436C18.5152 16.3436 18.436 16.3436 18.3569 16.3436C18.2778 16.3436 18.2382 16.3436 18.1987 16.3436C18.1591 16.3436 18.08 16.3436 18.0008 16.3436C17.9217 16.3436 17.8822 16.3436 17.8426 16.3436C17.803 16.3436 17.7239 16.3436 17.6448 16.3436C17.5657 16.3436 17.5261 16.3436 17.4865 16.3436C17.447 16.3436 17.3678 16.3436 17.2887 16.3436C17.2096 16.3436 17.17 16.3436 17.1305 16.3436C17.0909 16.3436 17.0118 16.3436 16.9327 16.3436C16.8535 16.3436 16.814 16.3436 16.7744 16.3436C16.7348 16.3436 16.6557 16.3436 16.5766 16.3436C16.4975 16.3436 16.4579 16.3436 16.4184 16.3436C16.3788 16.3436 16.2997 16.3436 16.2205 16.3436C16.1414 16.3436 16.1019 16.3436 16.0623 16.3436C16.0227 16.3436 15.9436 16.3436 15.8645 16.3436C15.7854 16.3436 15.7458 16.3436 15.7062 16.3436C15.6667 16.3436 15.5875 16.3436 15.5084 16.3436C15.4293 16.3436 15.3897 16.3436 15.3502 16.3436C15.3106 16.3436 15.2315 16.3436 15.1524 16.3436C15.0732 16.3436 15.0337 16.3436 14.9941 16.3436C14.9545 16.3436 14.8754 16.3436 14.7963 16.3436C14.7172 16.3436 14.6776 16.3436 14.638 16.3436C14.5985 16.3436 14.5194 16.3436 14.4402 16.3436C14.3611 16.3436 14.3215 16.3436 14.282 16.3436C14.2424 16.3436 14.1633 16.3436 14.0842 16.3436C14.0051 16.3436 13.9655 16.3436 13.9259 16.3436C13.8864 16.3436 13.8072 16.3436 13.7281 16.3436C13.649 16.3436 13.6094 16.3436 13.5699 16.3436C13.5303 16.3436 13.4512 16.3436 13.3721 16.3436C13.2929 16.3436 13.2534 16.3436 13.2138 16.3436C13.1742 16.3436 13.0951 16.3436 13.016 16.3436C12.9369 16.3436 12.8973 16.3436 12.8577 16.3436C12.8182 16.3436 12.7391 16.3436 12.6599 16.3436C12.5808 16.3436 12.5412 16.3436 12.5017 16.3436C12.4621 16.3436 12.383 16.3436 12.3039 16.3436C12.2247 16.3436 12.1852 16.3436 12.1456 16.3436C12.1061 16.3436 12.0269 16.3436 11.9478 16.3436C11.8687 16.3436 11.8291 16.3436 11.7896 16.3436C11.75 16.3436 11.6709 16.3436 11.5918 16.3436C11.5126 16.3436 11.4731 16.3436 11.4335 16.3436C11.3939 16.3436 11.3148 16.3436 11.2357 16.3436C11.1566 16.3436 11.117 16.3436 11.0774 16.3436C11.0379 16.3436 10.9588 16.3436 10.8796 16.3436C10.8005 16.3436 10.7609 16.3436 10.7214 16.3436C10.6818 16.3436 10.6027 16.3436 10.5236 16.3436C10.4444 16.3436 10.4049 16.3436 10.3653 16.3436C10.3258 16.3436 10.2466 16.3436 10.1675 16.3436C10.0884 16.3436 10.0488 16.3436 10.0093 16.3436C9.9697 16.3436 9.89057 16.3436 9.81145 16.3436C9.73232 16.3436 9.69276 16.3436 9.6532 16.3436C9.61364 16.3436 9.53451 16.3436 9.45539 16.3436C9.37626 16.3436 9.3367 16.3436 9.29714 16.3436C9.25758 16.3436 9.17845 16.3436 9.09933 16.3436C9.0202 16.3436 8.98064 16.3436 8.94108 16.3436C8.90152 16.3436 8.82239 16.3436 8.74327 16.3436C8.66414 16.3436 8.62458 16.3436 8.58502 16.3436C8.54546 16.3436 8.46633 16.3436 8.38721 16.3436C8.30808 16.3436 8.26852 16.3436 8.22896 16.3436C8.18939 16.3436 8.11027 16.3436 8.03115 16.3436C7.95202 16.3436 7.91246 16.3436 7.8729 16.3436C7.83333 16.3436 7.75421 16.3436 7.67508 16.3436C7.59596 16.3436 7.5564 16.3436 7.51684 16.3436C7.47727 16.3436 7.39815 16.3436 7.31902 16.3436C7.2399 16.3436 7.20034 16.3436 7.16077 16.3436C7.12121 16.3436 7.04209 16.3436 6.96296 16.3436C6.88384 16.3436 6.84428 16.3436 6.80471 16.3436C6.76515 16.3436 6.68603 16.3436 6.6069 16.3436C6.52778 16.3436 6.48822 16.3436 6.44865 16.3436C6.40909 16.3436 6.32997 16.3436 6.25084 16.3436C6.17172 16.3436 6.13216 16.3436 6.09259 16.3436C6.05303 16.3436 5.97391 16.3436 5.89478 16.3436C5.81566 16.3436 5.77609 16.3436 5.73653 16.3436C5.69697 16.3436 5.61785 16.3436 5.53872 16.3436C5.4596 16.3436 5.42003 16.3436 5.38047 16.3436C5.34091 16.3436 5.26178 16.3436 5.18266 16.3436C5.10354 16.3436 5.06397 16.3436 5.02441 16.3436C4.98485 16.3436 4.90572 16.3436 4.8266 16.3436C4.74748 16.3436 4.70791 16.3436 4.66835 16.3436C4.62879 16.3436 4.54966 16.3436 4.47054 16.3436C4.39141 16.3436 4.35185 16.3436 4.31229 16.3436C4.27273 16.3436 4.1936 16.3436 4.11448 16.3436C4.03535 16.3436 3.99579 16.3436 3.95623 16.3436C3.91667 16.3436 3.83754 16.3436 3.75842 16.3436C3.67929 16.3436 3.63973 16.3436 3.60017 16.3436C3.56061 16.3436 3.48148 16.3436 3.40236 16.3436C2.45286 16.3436 1.66162 16.6601 0.989057 17.3326C0.316498 18.0052 0 18.7964 0 19.7459C0 20.6954 0.316498 21.4867 0.989057 22.1592C1.66162 22.8318 2.45286 23.1483 3.40236 23.1483C3.48148 23.1483 3.52104 23.1483 3.60017 23.1483C3.63973 23.1483 3.71886 23.1483 3.75842 23.1483C3.83754 23.1483 3.8771 23.1483 3.95623 23.1483C3.99579 23.1483 4.07492 23.1483 4.11448 23.1483C4.1936 23.1483 4.23317 23.1483 4.31229 23.1483C4.35185 23.1483 4.43098 23.1483 4.47054 23.1483C4.54966 23.1483 4.58923 23.1483 4.66835 23.1483C4.70791 23.1483 4.78704 23.1483 4.8266 23.1483C4.90572 23.1483 4.94529 23.1483 5.02441 23.1483C5.06397 23.1483 5.1431 23.1483 5.18266 23.1483C5.26178 23.1483 5.30135 23.1483 5.38047 23.1483C5.42003 23.1483 5.49916 23.1483 5.53872 23.1483C5.61785 23.1483 5.65741 23.1483 5.73653 23.1483C5.77609 23.1483 5.85522 23.1483 5.89478 23.1483C5.97391 23.1483 6.01347 23.1483 6.09259 23.1483C6.13216 23.1483 6.21128 23.1483 6.25084 23.1483C6.32997 23.1483 6.36953 23.1483 6.44865 23.1483C6.48822 23.1483 6.56734 23.1483 6.6069 23.1483C6.68603 23.1483 6.72559 23.1483 6.80471 23.1483C6.84428 23.1483 6.9234 23.1483 6.96296 23.1483C7.04209 23.1483 7.08165 23.1483 7.16077 23.1483C7.20034 23.1483 7.27946 23.1483 7.31902 23.1483C7.39815 23.1483 7.43771 23.1483 7.51684 23.1483C7.5564 23.1483 7.63552 23.1483 7.67508 23.1483C7.75421 23.1483 7.79377 23.1483 7.8729 23.1483C7.91246 23.1483 7.99158 23.1483 8.03115 23.1483C8.11027 23.1483 8.14983 23.1483 8.22896 23.1483C8.26852 23.1483 8.34764 23.1483 8.38721 23.1483C8.46633 23.1483 8.50589 23.1483 8.58502 23.1483C8.62458 23.1483 8.7037 23.1483 8.74327 23.1483C8.82239 23.1483 8.86195 23.1483 8.94108 23.1483C8.98064 23.1483 9.05976 23.1483 9.09933 23.1483C9.17845 23.1483 9.21801 23.1483 9.29714 23.1483C9.3367 23.1483 9.41583 23.1483 9.45539 23.1483C9.53451 23.1483 9.57407 23.1483 9.6532 23.1483C9.69276 23.1483 9.77189 23.1483 9.81145 23.1483C9.89057 23.1483 9.93014 23.1483 10.0093 23.1483C10.0488 23.1483 10.1279 23.1483 10.1675 23.1483C10.2466 23.1483 10.2862 23.1483 10.3653 23.1483C10.4049 23.1483 10.484 23.1483 10.5236 23.1483C10.6027 23.1483 10.6423 23.1483 10.7214 23.1483C10.7609 23.1483 10.8401 23.1483 10.8796 23.1483C10.9588 23.1483 10.9983 23.1483 11.0774 23.1483C11.117 23.1483 11.1961 23.1483 11.2357 23.1483C11.3148 23.1483 11.3544 23.1483 11.4335 23.1483C11.4731 23.1483 11.5522 23.1483 11.5918 23.1483C11.6709 23.1483 11.7104 23.1483 11.7896 23.1483C11.8291 23.1483 11.9082 23.1483 11.9478 23.1483C12.0269 23.1483 12.0665 23.1483 12.1456 23.1483C12.1852 23.1483 12.2643 23.1483 12.3039 23.1483C12.383 23.1483 12.4226 23.1483 12.5017 23.1483C12.5412 23.1483 12.6204 23.1483 12.6599 23.1483C12.7391 23.1483 12.7786 23.1483 12.8577 23.1483C12.8973 23.1483 12.9764 23.1483 13.016 23.1483C13.0951 23.1483 13.1347 23.1483 13.2138 23.1483C13.2534 23.1483 13.3325 23.1483 13.3721 23.1483C13.4512 23.1483 13.4907 23.1483 13.5699 23.1483C13.6094 23.1483 13.6886 23.1483 13.7281 23.1483C13.8072 23.1483 13.8468 23.1483 13.9259 23.1483C13.9655 23.1483 14.0446 23.1483 14.0842 23.1483C14.1633 23.1483 14.2029 23.1483 14.282 23.1483C14.3215 23.1483 14.4007 23.1483 14.4402 23.1483C14.5194 23.1483 14.5589 23.1483 14.638 23.1483C14.6776 23.1483 14.7567 23.1483 14.7963 23.1483C14.8754 23.1483 14.915 23.1483 14.9941 23.1483C15.0337 23.1483 15.1128 23.1483 15.1524 23.1483C15.2315 23.1483 15.271 23.1483 15.3502 23.1483C15.3897 23.1483 15.4689 23.1483 15.5084 23.1483C15.5875 23.1483 15.6271 23.1483 15.7062 23.1483C15.7458 23.1483 15.8249 23.1483 15.8645 23.1483C15.9436 23.1483 15.9832 23.1483 16.0623 23.1483C16.1019 23.1483 16.181 23.1483 16.2205 23.1483C16.2997 23.1483 16.3392 23.1483 16.4184 23.1483C16.4579 23.1483 16.537 23.1483 16.5766 23.1483C16.6557 23.1483 16.6953 23.1483 16.7744 23.1483C16.814 23.1483 16.8931 23.1483 16.9327 23.1483C17.0118 23.1483 17.0513 23.1483 17.1305 23.1483C17.17 23.1483 17.2492 23.1483 17.2887 23.1483C17.3678 23.1483 17.4074 23.1483 17.4865 23.1483C17.5261 23.1483 17.6052 23.1483 17.6448 23.1483C17.7239 23.1483 17.7635 23.1483 17.8426 23.1483C17.8822 23.1483 17.9613 23.1483 18.0008 23.1483C18.08 23.1483 18.1195 23.1483 18.1987 23.1483C18.2382 23.1483 18.3173 23.1483 18.3569 23.1483C18.436 23.1483 18.4756 23.1483 18.5547 23.1483C18.5943 23.1483 18.6734 23.1483 18.713 23.1483C18.7921 23.1483 18.8317 23.1483 18.9108 23.1483C18.9503 23.1483 19.0295 23.1483 19.069 23.1483C19.1481 23.1483 19.1877 23.1483 19.2668 23.1483C19.3064 23.1483 19.3855 23.1483 19.4251 23.1483C19.5042 23.1483 19.5438 23.1483 19.6229 23.1483C19.6625 23.1483 19.7416 23.1483 19.7811 23.1483C19.8603 23.1483 19.8998 23.1483 19.979 23.1483C20.0185 23.1483 20.0976 23.1483 20.1372 23.1483C20.2163 23.1483 20.2559 23.1483 20.335 23.1483C20.3746 23.1483 20.4537 23.1483 20.4933 23.1483C20.5724 23.1483 20.612 23.1483 20.6911 23.1483C20.7306 23.1483 20.8098 23.1483 20.8493 23.1483C20.9285 23.1483 20.968 23.1483 21.0471 23.1483C21.0867 23.1483 21.1658 23.1483 21.2054 23.1483C21.2845 23.1483 21.3241 23.1483 21.4032 23.1483C21.4428 23.1483 21.5219 23.1483 21.5614 23.1483C21.6406 23.1483 21.6801 23.1483 21.7593 23.1483C21.7988 23.1483 21.8779 23.1483 21.9175 23.1483C21.9966 23.1483 22.0362 23.1483 22.1153 23.1483C22.1549 23.1483 22.234 23.1483 22.2736 23.1483C22.3527 23.1483 22.3923 23.1483 22.4714 23.1483C22.5109 23.1483 22.5901 23.1483 22.6296 23.1483C22.7088 23.1483 22.7483 23.1483 22.8274 23.1483C22.867 23.1483 22.9461 23.1483 22.9857 23.1483C23.0648 23.1483 23.1044 23.1483 23.1835 23.1483C23.2231 23.1483 23.3022 23.1483 23.3418 23.1483C24.2912 23.1483 25.0825 22.8318 25.7551 22.1592C26.4276 21.4867 26.7441 20.6954 26.7441 19.7459C26.7441 18.7569 26.4276 18.0052 25.7551 17.3326Z" fill="#646565"/>
<path d="M28.7619 28.8848C28.0893 28.2123 27.2981 27.8958 26.3486 27.8958C26.2695 27.8958 26.2299 27.8958 26.1903 27.8958C26.1508 27.8958 26.0717 27.8958 25.9925 27.8958C25.9134 27.8958 25.8738 27.8958 25.8343 27.8958C25.7947 27.8958 25.7156 27.8958 25.6365 27.8958C25.5573 27.8958 25.5178 27.8958 25.4782 27.8958C25.4387 27.8958 25.3595 27.8958 25.2804 27.8958C25.2013 27.8958 25.1617 27.8958 25.1222 27.8958C25.0826 27.8958 25.0035 27.8958 24.9243 27.8958C24.8452 27.8958 24.8057 27.8958 24.7661 27.8958C24.7265 27.8958 24.6474 27.8958 24.5683 27.8958C24.4892 27.8958 24.4496 27.8958 24.41 27.8958C24.3705 27.8958 24.2913 27.8958 24.2122 27.8958C24.1331 27.8958 24.0935 27.8958 24.054 27.8958C24.0144 27.8958 23.9353 27.8958 23.8562 27.8958C23.777 27.8958 23.7375 27.8958 23.6979 27.8958C23.6584 27.8958 23.5792 27.8958 23.5001 27.8958C23.421 27.8958 23.3814 27.8958 23.3419 27.8958C23.3023 27.8958 23.2232 27.8958 23.144 27.8958C23.0649 27.8958 23.0254 27.8958 22.9858 27.8958C22.9462 27.8958 22.8671 27.8958 22.788 27.8958C22.7089 27.8958 22.6693 27.8958 22.6297 27.8958C22.5902 27.8958 22.511 27.8958 22.4319 27.8958C22.3528 27.8958 22.3132 27.8958 22.2737 27.8958C22.2341 27.8958 22.155 27.8958 22.0759 27.8958C21.9967 27.8958 21.9572 27.8958 21.9176 27.8958C21.878 27.8958 21.7989 27.8958 21.7198 27.8958C21.6407 27.8958 21.6011 27.8958 21.5616 27.8958C21.522 27.8958 21.4429 27.8958 21.3637 27.8958C21.2846 27.8958 21.2451 27.8958 21.2055 27.8958C21.1659 27.8958 21.0868 27.8958 21.0077 27.8958C20.9286 27.8958 20.889 27.8958 20.8494 27.8958C20.8099 27.8958 20.7307 27.8958 20.6516 27.8958C20.5725 27.8958 20.5329 27.8958 20.4934 27.8958C20.4538 27.8958 20.3747 27.8958 20.2956 27.8958C20.2164 27.8958 20.1769 27.8958 20.1373 27.8958C20.0977 27.8958 20.0186 27.8958 19.9395 27.8958C19.8604 27.8958 19.8208 27.8958 19.7812 27.8958C19.7417 27.8958 19.6626 27.8958 19.5834 27.8958C19.5043 27.8958 19.4647 27.8958 19.4252 27.8958C19.3856 27.8958 19.3065 27.8958 19.2274 27.8958C19.1483 27.8958 19.1087 27.8958 19.0691 27.8958C19.0296 27.8958 18.9504 27.8958 18.8713 27.8958C18.7922 27.8958 18.7526 27.8958 18.7131 27.8958C18.6735 27.8958 18.5944 27.8958 18.5153 27.8958C18.4361 27.8958 18.3966 27.8958 18.357 27.8958C18.3174 27.8958 18.2383 27.8958 18.1592 27.8958C18.0801 27.8958 18.0405 27.8958 18.0009 27.8958C17.9614 27.8958 17.8823 27.8958 17.8031 27.8958C17.724 27.8958 17.6844 27.8958 17.6449 27.8958C17.6053 27.8958 17.5262 27.8958 17.4471 27.8958C17.3679 27.8958 17.3284 27.8958 17.2888 27.8958C17.2493 27.8958 17.1701 27.8958 17.091 27.8958C17.0119 27.8958 16.9723 27.8958 16.9328 27.8958C16.8932 27.8958 16.8141 27.8958 16.735 27.8958C16.6558 27.8958 16.6163 27.8958 16.5767 27.8958C16.5371 27.8958 16.458 27.8958 16.3789 27.8958C16.2998 27.8958 16.2602 27.8958 16.2206 27.8958C16.1811 27.8958 16.102 27.8958 16.0228 27.8958C15.9437 27.8958 15.9041 27.8958 15.8646 27.8958C15.825 27.8958 15.7459 27.8958 15.6668 27.8958C15.5876 27.8958 15.5481 27.8958 15.5085 27.8958C15.469 27.8958 15.3898 27.8958 15.3107 27.8958C15.2316 27.8958 15.192 27.8958 15.1525 27.8958C15.1129 27.8958 15.0338 27.8958 14.9546 27.8958C14.8755 27.8958 14.836 27.8958 14.7964 27.8958C14.7568 27.8958 14.6777 27.8958 14.5986 27.8958C14.5195 27.8958 14.4799 27.8958 14.4403 27.8958C14.4008 27.8958 14.3217 27.8958 14.2425 27.8958C14.1634 27.8958 14.1238 27.8958 14.0843 27.8958C14.0447 27.8958 13.9656 27.8958 13.8865 27.8958C13.8073 27.8958 13.7678 27.8958 13.7282 27.8958C13.6887 27.8958 13.6095 27.8958 13.5304 27.8958C13.4513 27.8958 13.4117 27.8958 13.3722 27.8958C13.3326 27.8958 13.2535 27.8958 13.1743 27.8958C13.0952 27.8958 13.0557 27.8958 13.0161 27.8958C12.9765 27.8958 12.8974 27.8958 12.8183 27.8958C12.7392 27.8958 12.6996 27.8958 12.66 27.8958C12.6205 27.8958 12.5413 27.8958 12.4622 27.8958C12.3831 27.8958 12.3435 27.8958 12.304 27.8958C12.2644 27.8958 12.1853 27.8958 12.1062 27.8958C12.027 27.8958 11.9875 27.8958 11.9479 27.8958C11.9084 27.8958 11.8292 27.8958 11.7501 27.8958C11.671 27.8958 11.6314 27.8958 11.5919 27.8958C11.5523 27.8958 11.4732 27.8958 11.394 27.8958C11.3149 27.8958 11.2754 27.8958 11.2358 27.8958C11.1962 27.8958 11.1171 27.8958 11.038 27.8958C10.9589 27.8958 10.9193 27.8958 10.8797 27.8958C10.8402 27.8958 10.761 27.8958 10.6819 27.8958C10.6028 27.8958 10.5632 27.8958 10.5237 27.8958C10.4841 27.8958 10.405 27.8958 10.3259 27.8958C10.2467 27.8958 10.2072 27.8958 10.1676 27.8958C10.128 27.8958 10.0489 27.8958 9.9698 27.8958C9.89067 27.8958 9.85111 27.8958 9.81155 27.8958C9.77199 27.8958 9.69286 27.8958 9.61374 27.8958C9.53461 27.8958 9.49505 27.8958 9.45549 27.8958C9.41593 27.8958 9.3368 27.8958 9.25768 27.8958C9.17855 27.8958 9.13899 27.8958 9.09943 27.8958C9.05987 27.8958 8.98074 27.8958 8.90162 27.8958C8.82249 27.8958 8.78293 27.8958 8.74337 27.8958C8.70381 27.8958 8.62468 27.8958 8.54556 27.8958C8.46643 27.8958 8.42687 27.8958 8.38731 27.8958C8.34775 27.8958 8.26862 27.8958 8.1895 27.8958C8.11037 27.8958 8.07081 27.8958 8.03125 27.8958C7.99168 27.8958 7.91256 27.8958 7.83344 27.8958C7.75431 27.8958 7.71475 27.8958 7.67519 27.8958C7.63562 27.8958 7.5565 27.8958 7.47737 27.8958C7.39825 27.8958 7.35869 27.8958 7.31913 27.8958C7.27956 27.8958 7.20044 27.8958 7.12131 27.8958C7.04219 27.8958 7.00263 27.8958 6.96307 27.8958C6.9235 27.8958 6.84438 27.8958 6.76525 27.8958C6.68613 27.8958 6.64657 27.8958 6.607 27.8958C6.56744 27.8958 6.48832 27.8958 6.40919 27.8958C5.4597 27.8958 4.66845 28.2123 3.99589 28.8848C3.32333 29.5574 3.00684 30.3486 3.00684 31.2981C3.00684 32.2476 3.32333 33.0389 3.99589 33.7114C4.66845 34.384 5.4597 34.7005 6.40919 34.7005C6.48832 34.7005 6.52788 34.7005 6.607 34.7005C6.64657 34.7005 6.72569 34.7005 6.76525 34.7005C6.84438 34.7005 6.88394 34.7005 6.96307 34.7005C7.00263 34.7005 7.08175 34.7005 7.12131 34.7005C7.20044 34.7005 7.24 34.7005 7.31913 34.7005C7.35869 34.7005 7.43781 34.7005 7.47737 34.7005C7.5565 34.7005 7.59606 34.7005 7.67519 34.7005C7.71475 34.7005 7.79387 34.7005 7.83344 34.7005C7.91256 34.7005 7.95212 34.7005 8.03125 34.7005C8.07081 34.7005 8.14993 34.7005 8.1895 34.7005C8.26862 34.7005 8.30818 34.7005 8.38731 34.7005C8.42687 34.7005 8.50599 34.7005 8.54556 34.7005C8.62468 34.7005 8.66424 34.7005 8.74337 34.7005C8.78293 34.7005 8.86205 34.7005 8.90162 34.7005C8.98074 34.7005 9.0203 34.7005 9.09943 34.7005C9.13899 34.7005 9.21812 34.7005 9.25768 34.7005C9.3368 34.7005 9.37636 34.7005 9.45549 34.7005C9.49505 34.7005 9.57418 34.7005 9.61374 34.7005C9.69286 34.7005 9.73243 34.7005 9.81155 34.7005C9.85111 34.7005 9.93024 34.7005 9.9698 34.7005C10.0489 34.7005 10.0885 34.7005 10.1676 34.7005C10.2072 34.7005 10.2863 34.7005 10.3259 34.7005C10.405 34.7005 10.4445 34.7005 10.5237 34.7005C10.5632 34.7005 10.6424 34.7005 10.6819 34.7005C10.761 34.7005 10.8006 34.7005 10.8797 34.7005C10.9193 34.7005 10.9984 34.7005 11.038 34.7005C11.1171 34.7005 11.1567 34.7005 11.2358 34.7005C11.2754 34.7005 11.3545 34.7005 11.394 34.7005C11.4732 34.7005 11.5127 34.7005 11.5919 34.7005C11.6314 34.7005 11.7105 34.7005 11.7501 34.7005C11.8292 34.7005 11.8688 34.7005 11.9479 34.7005C11.9875 34.7005 12.0666 34.7005 12.1062 34.7005C12.1853 34.7005 12.2248 34.7005 12.304 34.7005C12.3435 34.7005 12.4227 34.7005 12.4622 34.7005C12.5413 34.7005 12.5809 34.7005 12.66 34.7005C12.6996 34.7005 12.7787 34.7005 12.8183 34.7005C12.8974 34.7005 12.937 34.7005 13.0161 34.7005C13.0557 34.7005 13.1348 34.7005 13.1743 34.7005C13.2535 34.7005 13.293 34.7005 13.3722 34.7005C13.4117 34.7005 13.4908 34.7005 13.5304 34.7005C13.6095 34.7005 13.6491 34.7005 13.7282 34.7005C13.7678 34.7005 13.8469 34.7005 13.8865 34.7005C13.9656 34.7005 14.0052 34.7005 14.0843 34.7005C14.1238 34.7005 14.203 34.7005 14.2425 34.7005C14.3217 34.7005 14.3612 34.7005 14.4403 34.7005C14.4799 34.7005 14.559 34.7005 14.5986 34.7005C14.6777 34.7005 14.7173 34.7005 14.7964 34.7005C14.836 34.7005 14.9151 34.7005 14.9546 34.7005C15.0338 34.7005 15.0733 34.7005 15.1525 34.7005C15.192 34.7005 15.2711 34.7005 15.3107 34.7005C15.3898 34.7005 15.4294 34.7005 15.5085 34.7005C15.5481 34.7005 15.6272 34.7005 15.6668 34.7005C15.7459 34.7005 15.7855 34.7005 15.8646 34.7005C15.9041 34.7005 15.9833 34.7005 16.0228 34.7005C16.102 34.7005 16.1415 34.7005 16.2206 34.7005C16.2602 34.7005 16.3393 34.7005 16.3789 34.7005C16.458 34.7005 16.4976 34.7005 16.5767 34.7005C16.6163 34.7005 16.6954 34.7005 16.735 34.7005C16.8141 34.7005 16.8536 34.7005 16.9328 34.7005C16.9723 34.7005 17.0514 34.7005 17.091 34.7005C17.1701 34.7005 17.2097 34.7005 17.2888 34.7005C17.3284 34.7005 17.4075 34.7005 17.4471 34.7005C17.5262 34.7005 17.5658 34.7005 17.6449 34.7005C17.6844 34.7005 17.7636 34.7005 17.8031 34.7005C17.8823 34.7005 17.9218 34.7005 18.0009 34.7005C18.0405 34.7005 18.1196 34.7005 18.1592 34.7005C18.2383 34.7005 18.2779 34.7005 18.357 34.7005C18.3966 34.7005 18.4757 34.7005 18.5153 34.7005C18.5944 34.7005 18.6339 34.7005 18.7131 34.7005C18.7526 34.7005 18.8318 34.7005 18.8713 34.7005C18.9504 34.7005 18.99 34.7005 19.0691 34.7005C19.1087 34.7005 19.1878 34.7005 19.2274 34.7005C19.3065 34.7005 19.3461 34.7005 19.4252 34.7005C19.4647 34.7005 19.5439 34.7005 19.5834 34.7005C19.6626 34.7005 19.7021 34.7005 19.7812 34.7005C19.8208 34.7005 19.8999 34.7005 19.9395 34.7005C20.0186 34.7005 20.0582 34.7005 20.1373 34.7005C20.1769 34.7005 20.256 34.7005 20.2956 34.7005C20.3747 34.7005 20.4142 34.7005 20.4934 34.7005C20.5329 34.7005 20.6121 34.7005 20.6516 34.7005C20.7307 34.7005 20.7703 34.7005 20.8494 34.7005C20.889 34.7005 20.9681 34.7005 21.0077 34.7005C21.0868 34.7005 21.1264 34.7005 21.2055 34.7005C21.2451 34.7005 21.3242 34.7005 21.3637 34.7005C21.4429 34.7005 21.4824 34.7005 21.5616 34.7005C21.6011 34.7005 21.6802 34.7005 21.7198 34.7005C21.7989 34.7005 21.8385 34.7005 21.9176 34.7005C21.9572 34.7005 22.0363 34.7005 22.0759 34.7005C22.155 34.7005 22.1945 34.7005 22.2737 34.7005C22.3132 34.7005 22.3924 34.7005 22.4319 34.7005C22.511 34.7005 22.5506 34.7005 22.6297 34.7005C22.6693 34.7005 22.7484 34.7005 22.788 34.7005C22.8671 34.7005 22.9067 34.7005 22.9858 34.7005C23.0254 34.7005 23.1045 34.7005 23.144 34.7005C23.2232 34.7005 23.2627 34.7005 23.3419 34.7005C23.3814 34.7005 23.4605 34.7005 23.5001 34.7005C23.5792 34.7005 23.6188 34.7005 23.6979 34.7005C23.7375 34.7005 23.8166 34.7005 23.8562 34.7005C23.9353 34.7005 23.9749 34.7005 24.054 34.7005C24.0935 34.7005 24.1727 34.7005 24.2122 34.7005C24.2913 34.7005 24.3309 34.7005 24.41 34.7005C24.4496 34.7005 24.5287 34.7005 24.5683 34.7005C24.6474 34.7005 24.687 34.7005 24.7661 34.7005C24.8057 34.7005 24.8848 34.7005 24.9243 34.7005C25.0035 34.7005 25.043 34.7005 25.1222 34.7005C25.1617 34.7005 25.2408 34.7005 25.2804 34.7005C25.3595 34.7005 25.3991 34.7005 25.4782 34.7005C25.5178 34.7005 25.5969 34.7005 25.6365 34.7005C25.7156 34.7005 25.7552 34.7005 25.8343 34.7005C25.8738 34.7005 25.953 34.7005 25.9925 34.7005C26.0717 34.7005 26.1112 34.7005 26.1903 34.7005C26.2299 34.7005 26.309 34.7005 26.3486 34.7005C27.2981 34.7005 28.0893 34.384 28.7619 33.7114C29.4344 33.0389 29.7509 32.2476 29.7509 31.2981C29.7509 30.3486 29.4344 29.5574 28.7619 28.8848Z" fill="#646565"/>
<path d="M54.675 28.7662C54.6354 28.2914 54.5959 27.7771 54.4772 27.2628C54.3981 26.7089 54.2398 26.1946 54.1211 25.7199C53.9629 25.2451 53.7651 24.7704 53.4881 24.2956C53.2112 23.8209 52.8947 23.3857 52.5386 23.0692C52.1826 22.7131 51.7078 22.4362 51.1935 22.1988C50.6792 22.001 50.0858 21.8823 49.4528 21.8823C49.2154 21.8823 48.978 21.9614 48.5033 22.2779C48.2263 22.4758 47.8703 22.6736 47.5142 22.9109C47.1977 23.1088 46.7625 23.3066 46.2482 23.4648C45.7339 23.6231 45.2196 23.7022 44.7053 23.7022C44.191 23.7022 43.6767 23.6231 43.1624 23.4648C42.6481 23.3066 42.2129 23.1088 41.8964 22.9109C41.5403 22.6736 41.1843 22.4758 40.9073 22.2779C40.4326 21.9614 40.1952 21.8823 39.9578 21.8823C39.3248 21.8823 38.7314 22.001 38.2171 22.1988C37.7028 22.3966 37.228 22.7131 36.872 23.0692C36.5159 23.4253 36.1994 23.8209 35.9225 24.2956C35.6455 24.7704 35.4477 25.2451 35.2895 25.7199C35.1312 26.1946 35.0125 26.7089 34.9334 27.2628C34.8543 27.8167 34.7752 28.331 34.7356 28.7662C34.696 29.2409 34.696 29.7157 34.696 30.1904C34.696 31.4564 35.0917 32.4455 35.8829 33.1971C36.6742 33.9488 37.7028 34.3049 38.9292 34.3049H50.521C51.787 34.3049 52.8156 33.9488 53.5673 33.1971C54.3585 32.4455 54.7541 31.4168 54.7541 30.1508C54.7146 29.7157 54.7146 29.2409 54.675 28.7662Z" fill="#345F7F"/>
<path d="M44.5076 21.8427C46.09 21.8427 47.4747 21.2889 48.622 20.1416C49.7298 18.9943 50.3232 17.6491 50.3232 16.0271C50.3232 14.4446 49.7693 13.0599 48.622 11.9126C47.5143 10.8049 46.1296 10.2114 44.5076 10.2114C42.9251 10.2114 41.5404 10.7653 40.3931 11.9126C39.2458 13.0599 38.6919 14.405 38.6919 16.0271C38.6919 17.6096 39.2458 18.9943 40.3931 20.1416C41.5404 21.2889 42.9251 21.8427 44.5076 21.8427Z" fill="#345F7F"/>
<path d="M46.8021 23.623H42.4503C42.4503 23.623 43.2019 25.0473 43.2415 25.2451L42.2129 30.3882L43.1228 31.2981L44.5471 32.7224L47.1977 30.3091L45.9713 25.2451L46.8021 23.623ZM43.2019 24.1769H45.9317L45.457 25.0869H43.6767C43.5976 24.889 43.3602 24.4934 43.2019 24.1769ZM46.2087 30.1904L44.4679 31.9311L43.3206 30.7047L42.925 30.3091L43.7163 25.799H45.4966L46.2087 30.1904Z" fill="#345F7F"/>
<path d="M46.2088 30.1904L44.4681 31.9311L43.3208 30.7047C43.3208 30.6651 43.3604 30.6651 43.3604 30.6256C43.6373 30.2299 43.5977 29.8343 43.5977 29.8343C43.5977 29.8343 44.0329 27.0254 44.0329 26.8276C44.0329 26.7089 44.0329 26.1946 43.9934 25.7594H45.4967L46.2088 30.1904Z" fill="#B3DFF1"/>
<path d="M45.9318 24.1769L45.4571 25.0868H43.9537C43.8746 24.889 43.7164 24.3747 43.5581 24.1769H45.9318Z" fill="#B3DFF1"/>
<path d="M43.5581 29.7948C43.5581 29.7948 43.5976 30.1904 43.3207 30.586C43.3207 30.6256 43.2811 30.6256 43.2811 30.6651L42.8855 30.2695L43.6767 25.7594H43.9537C43.9537 26.1946 43.9932 26.7485 43.9932 26.8276C44.0328 26.9858 43.5581 29.7948 43.5581 29.7948Z" fill="white"/>
<path d="M43.9544 25.0874H43.7169C43.5982 24.8895 43.4003 24.4938 43.2419 24.1771H43.5982C43.6773 24.375 43.8752 24.8895 43.9544 25.0874Z" fill="white"/>
</svg>
