<svg width="125" height="30" viewBox="0 0 125 30" fill="none" xmlns="http://www.w3.org/2000/svg">
<g clip-path="url(#clip0)">
<path d="M62.6577 23.0546V20.8127C62.684 20.8127 62.7103 20.8127 62.7366 20.8127C63.4731 20.8127 63.9993 20.7072 64.2623 20.4699C64.5253 20.2325 64.6832 19.7577 64.6832 19.0193V6.8868H67.8922V19.1511C67.8922 19.8369 67.8138 20.4171 67.7081 20.8655C67.603 21.3402 67.3929 21.7359 67.1296 22.0787C66.8663 22.4216 66.4719 22.6589 65.9984 22.8172C65.5249 22.9755 64.9462 23.0546 64.236 23.0546H62.6577Z" fill="white"/>
<path d="M74.6003 22.8963C73.732 22.8963 73.0219 22.7908 72.4168 22.5534C71.8118 22.316 71.3384 21.9731 70.97 21.5248C70.6017 21.0764 70.3384 20.5225 70.1808 19.8895C70.0232 19.2565 69.9441 18.5444 69.9441 17.6741V11.8452C69.9441 11.0012 70.0232 10.2627 70.1808 9.65613C70.3384 9.02313 70.6017 8.4956 70.97 8.0472C71.3384 7.59886 71.8118 7.256 72.4168 7.0186C73.0219 6.78126 73.7586 6.67573 74.6003 6.67573C76.2573 6.67573 77.4674 7.12413 78.2041 7.99446C78.9401 8.86486 79.2825 10.1572 79.2825 11.8452V17.6741C79.2825 19.3884 78.9142 20.6808 78.2041 21.5511C77.4674 22.4479 76.2838 22.8963 74.6003 22.8963ZM73.9953 20.4698C74.1795 20.5489 74.3636 20.6017 74.6263 20.6017C74.863 20.6017 75.0737 20.5753 75.2579 20.4698C75.4421 20.3907 75.5731 20.2852 75.6788 20.1797C75.7838 20.0478 75.863 19.8895 75.9155 19.7049C75.968 19.5203 76.0206 19.3093 76.0206 19.1247C76.0465 18.9401 76.0471 18.7291 76.0471 18.4653V11.054C76.0471 10.7902 76.0465 10.5792 76.0206 10.3946C75.994 10.21 75.968 10.0253 75.9155 9.84073C75.863 9.65606 75.7838 9.49786 75.6788 9.366C75.5731 9.26046 75.4421 9.155 75.2579 9.07586C75.0737 8.99673 74.863 8.97033 74.6263 8.97033C74.3896 8.97033 74.1795 8.99673 73.9953 9.07586C73.8111 9.155 73.6795 9.26046 73.6003 9.366C73.4953 9.47146 73.4428 9.62973 73.3636 9.84073C73.3111 10.0253 73.2845 10.21 73.2586 10.3946C73.232 10.5792 73.232 10.7902 73.232 11.054V18.4653C73.232 18.7291 73.232 18.9401 73.2586 19.1247C73.2845 19.3093 73.3111 19.4939 73.3636 19.7049C73.4162 19.8895 73.4953 20.0742 73.6003 20.1797C73.6795 20.2852 73.8111 20.3907 73.9953 20.4698Z" fill="white"/>
<path d="M81.387 22.6853V6.86032H85.385C85.9641 6.86032 86.49 6.88672 86.9368 6.96586C87.3843 7.04499 87.8318 7.15046 88.2786 7.33506C88.6995 7.51972 89.0678 7.75706 89.3311 8.04719C89.6203 8.33732 89.8304 8.73292 89.9887 9.23406C90.1463 9.70886 90.2254 10.2363 90.2254 10.8693C90.2254 10.8957 90.2254 10.9221 90.2254 10.9485C90.1988 12.8475 89.4362 13.9288 87.9102 14.1662C89.752 14.4563 90.6722 15.7487 90.6988 18.0169C90.6988 18.0433 90.6988 18.0961 90.6988 18.1224C90.6988 19.5994 90.3038 20.7335 89.5412 21.4984C88.752 22.2633 87.5944 22.6589 86.0951 22.6589H81.387V22.6853ZM84.5957 13.2431H85.359C86.1483 13.2431 86.7001 13.0585 86.99 12.7156C87.2792 12.3727 87.4368 11.7925 87.4368 11.0012C87.4368 10.2627 87.2526 9.76159 86.8584 9.47146C86.49 9.18132 85.885 9.04946 85.0691 9.04946H84.5957V13.2431ZM84.5957 20.417H85.4641C86.2792 20.417 86.8318 20.2324 87.1476 19.8368C87.4634 19.4675 87.621 18.8345 87.621 17.9905C87.621 17.0674 87.4634 16.4081 87.121 16.0124C86.7792 15.6168 86.2008 15.4322 85.385 15.4322H84.5957V20.417Z" fill="white"/>
<path d="M92.7507 22.6853V6.86032H93.8551L98.8797 19.1511V6.86032H100.142V22.6853H99.0898L94.0393 10.2627V22.6853H92.7507Z" fill="white"/>
<path d="M106.64 22.8963C105.876 22.8963 105.219 22.7908 104.693 22.5534C104.167 22.316 103.746 21.9731 103.43 21.5248C103.141 21.0764 102.904 20.5753 102.773 19.9951C102.641 19.4148 102.562 18.7554 102.562 18.0169V11.4496C102.562 10.7111 102.641 10.0517 102.773 9.49786C102.904 8.94399 103.141 8.44286 103.43 8.02086C103.746 7.59886 104.167 7.25599 104.693 7.04499C105.219 6.83399 105.876 6.70213 106.613 6.70213C107.35 6.70213 108.007 6.80759 108.533 7.04499C109.059 7.25599 109.48 7.59886 109.796 8.02086C110.112 8.44286 110.322 8.94399 110.453 9.49786C110.585 10.0517 110.664 10.7111 110.664 11.4496V18.0433C110.664 18.6235 110.638 19.1774 110.533 19.6521C110.453 20.1269 110.322 20.5753 110.112 20.9973C109.927 21.4193 109.664 21.7621 109.375 22.0259C109.059 22.2897 108.691 22.527 108.217 22.6853C107.771 22.8171 107.245 22.8963 106.64 22.8963ZM105.35 21.4457C105.692 21.6039 106.113 21.683 106.613 21.683C107.113 21.683 107.534 21.6039 107.876 21.4457C108.217 21.2874 108.481 21.05 108.665 20.7335C108.849 20.4171 108.981 20.0741 109.033 19.7049C109.112 19.3357 109.138 18.8609 109.138 18.3334V11.1859C109.138 10.6583 109.112 10.1836 109.033 9.81433C108.954 9.44506 108.822 9.10219 108.665 8.78573C108.481 8.46919 108.217 8.25819 107.876 8.09999C107.534 7.94173 107.113 7.86259 106.613 7.86259C106.113 7.86259 105.692 7.94173 105.35 8.09999C105.009 8.25819 104.745 8.46919 104.561 8.78573C104.377 9.10219 104.245 9.44506 104.193 9.81433C104.114 10.1836 104.088 10.6583 104.088 11.1859V18.3334C104.088 18.8609 104.114 19.3357 104.193 19.7049C104.272 20.0741 104.404 20.4434 104.561 20.7335C104.745 21.0764 105.009 21.2874 105.35 21.4457Z" fill="white"/>
<path d="M115.109 22.6853L112.426 6.88674H113.689L115.767 19.7313L118.161 7.12407H119.397L121.817 19.7577L123.737 6.88674H125L122.448 22.7117H121.291L118.792 9.65607L116.319 22.7117H115.109V22.6853Z" fill="white"/>
<path d="M52.0044 19.2565L44.4813 16.1971C44.6391 13.8497 44.3235 11.3177 43.3765 9.07587C40.1673 1.50627 31.4868 -2.02796 23.9373 1.18977C16.3878 4.38113 12.863 13.0848 16.0459 20.6544C19.2287 28.224 27.9356 31.7582 35.485 28.5405C37.7473 27.591 39.7202 25.9821 41.2195 24.215L48.769 27.2745C51.0575 28.1976 53.4775 27.169 54.3981 24.9008C55.161 22.6589 54.1351 20.2588 52.0044 19.2565ZM34.1172 25.3227C28.3302 27.7756 21.7014 25.0854 19.2551 19.2829C16.8087 13.4805 19.4918 6.834 25.2789 4.38113C31.0659 1.92827 37.6947 4.6185 40.141 10.421C42.5873 16.2235 39.9043 22.8699 34.1172 25.3227Z" fill="white"/>
<path d="M20.4913 4.96137C20.0442 4.513 19.518 4.302 18.8867 4.302C18.8341 4.302 18.8078 4.302 18.7815 4.302C18.7552 4.302 18.7026 4.302 18.65 4.302C18.5974 4.302 18.5711 4.302 18.5448 4.302C18.5184 4.302 18.4658 4.302 18.4132 4.302C18.3607 4.302 18.3343 4.302 18.308 4.302C18.2817 4.302 18.2291 4.302 18.1765 4.302C18.1239 4.302 18.0976 4.302 18.0713 4.302C18.045 4.302 17.9924 4.302 17.9398 4.302C17.8871 4.302 17.8609 4.302 17.8345 4.302C17.8083 4.302 17.7556 4.302 17.703 4.302C17.6504 4.302 17.6241 4.302 17.5978 4.302C17.5715 4.302 17.5189 4.302 17.4663 4.302C17.4136 4.302 17.3874 4.302 17.361 4.302C17.3347 4.302 17.2821 4.302 17.2295 4.302C17.1769 4.302 17.1506 4.302 17.1243 4.302C17.098 4.302 17.0454 4.302 16.9928 4.302C16.9402 4.302 16.9138 4.302 16.8876 4.302C16.8613 4.302 16.8087 4.302 16.7561 4.302C16.7034 4.302 16.6771 4.302 16.6508 4.302C16.6245 4.302 16.5719 4.302 16.5193 4.302C16.4667 4.302 16.4404 4.302 16.4141 4.302C16.3878 4.302 16.3352 4.302 16.2825 4.302C16.2299 4.302 16.2037 4.302 16.1773 4.302C16.151 4.302 16.0984 4.302 16.0458 4.302C15.9932 4.302 15.9669 4.302 15.9406 4.302C15.9143 4.302 15.8617 4.302 15.8091 4.302C15.7565 4.302 15.7301 4.302 15.7039 4.302C15.6775 4.302 15.6249 4.302 15.5724 4.302C15.5197 4.302 15.4934 4.302 15.4671 4.302C15.4408 4.302 15.3882 4.302 15.3356 4.302C15.283 4.302 15.2567 4.302 15.2304 4.302C15.2041 4.302 15.1515 4.302 15.0988 4.302C15.0462 4.302 15.02 4.302 14.9936 4.302C14.9673 4.302 14.9147 4.302 14.8621 4.302C14.8095 4.302 14.7832 4.302 14.7569 4.302C14.7306 4.302 14.6779 4.302 14.6253 4.302C14.5728 4.302 14.5464 4.302 14.5202 4.302C14.4938 4.302 14.4412 4.302 14.3886 4.302C14.336 4.302 14.3097 4.302 14.2834 4.302C14.2571 4.302 14.2045 4.302 14.1519 4.302C14.0993 4.302 14.073 4.302 14.0467 4.302C14.0204 4.302 13.9678 4.302 13.9151 4.302C13.8625 4.302 13.8363 4.302 13.8099 4.302C13.7836 4.302 13.731 4.302 13.6784 4.302C13.6258 4.302 13.5995 4.302 13.5732 4.302C13.5469 4.302 13.4942 4.302 13.4416 4.302C13.389 4.302 13.3627 4.302 13.3364 4.302C13.3101 4.302 13.2575 4.302 13.2049 4.302C13.1523 4.302 13.126 4.302 13.0997 4.302C13.0734 4.302 13.0208 4.302 12.9682 4.302C12.9156 4.302 12.8892 4.302 12.863 4.302C12.8366 4.302 12.7841 4.302 12.7314 4.302C12.6788 4.302 12.6525 4.302 12.6262 4.302C12.5999 4.302 12.5473 4.302 12.4947 4.302C12.4421 4.302 12.4158 4.302 12.3894 4.302C12.3632 4.302 12.3105 4.302 12.2579 4.302C12.2053 4.302 12.179 4.302 12.1527 4.302C12.1264 4.302 12.0738 4.302 12.0212 4.302C11.9686 4.302 11.9423 4.302 11.916 4.302C11.8896 4.302 11.837 4.302 11.7845 4.302C11.7319 4.302 11.7055 4.302 11.6792 4.302C11.6529 4.302 11.6003 4.302 11.5477 4.302C11.4951 4.302 11.4688 4.302 11.4425 4.302C11.4162 4.302 11.3636 4.302 11.311 4.302C11.2584 4.302 11.2321 4.302 11.2057 4.302C11.1795 4.302 11.1268 4.302 11.0742 4.302C11.0216 4.302 10.9953 4.302 10.969 4.302C10.9427 4.302 10.8901 4.302 10.8375 4.302C10.7849 4.302 10.7586 4.302 10.7323 4.302C10.7059 4.302 10.6533 4.302 10.6007 4.302C10.5482 4.302 10.5218 4.302 10.4955 4.302C10.4692 4.302 10.4166 4.302 10.364 4.302C10.3114 4.302 10.2851 4.302 10.2588 4.302C10.2325 4.302 10.1799 4.302 10.1273 4.302C10.0746 4.302 10.0484 4.302 10.022 4.302C9.99576 4.302 9.9431 4.302 9.89051 4.302C9.83791 4.302 9.81158 4.302 9.78532 4.302C9.75899 4.302 9.7064 4.302 9.6538 4.302C9.60114 4.302 9.57488 4.302 9.54855 4.302C9.52222 4.302 9.46963 4.302 9.41704 4.302C9.36444 4.302 9.33811 4.302 9.31178 4.302C9.28552 4.302 9.23293 4.302 9.18027 4.302C9.12767 4.302 9.10134 4.302 9.07508 4.302C9.04875 4.302 8.99616 4.302 8.94356 4.302C8.8909 4.302 8.86464 4.302 8.83831 4.302C8.81205 4.302 8.75939 4.302 8.7068 4.302C8.6542 4.302 8.62787 4.302 8.60161 4.302C8.57528 4.302 8.52269 4.302 8.47003 4.302C8.41743 4.302 8.39117 4.302 8.36484 4.302C8.33851 4.302 8.28592 4.302 8.23333 4.302C8.18073 4.302 8.1544 4.302 8.12807 4.302C8.10181 4.302 8.04922 4.302 7.99656 4.302C7.94396 4.302 7.91763 4.302 7.89137 4.302C7.86504 4.302 7.81245 4.302 7.75986 4.302C7.7072 4.302 7.68093 4.302 7.6546 4.302C7.62834 4.302 7.57568 4.302 7.52309 4.302C7.47049 4.302 7.44416 4.302 7.4179 4.302C7.39157 4.302 7.33898 4.302 7.28632 4.302C7.23372 4.302 7.20746 4.302 7.18113 4.302C7.1548 4.302 7.10221 4.302 7.04962 4.302C6.99702 4.302 6.97069 4.302 6.94436 4.302C6.9181 4.302 6.86544 4.302 6.81285 4.302C6.76025 4.302 6.73392 4.302 6.70766 4.302C6.68133 4.302 6.62873 4.302 6.57612 4.302C6.52351 4.302 6.49721 4.302 6.47091 4.302C6.4446 4.302 6.39199 4.302 6.33938 4.302C6.28677 4.302 6.26047 4.302 6.23416 4.302C6.20785 4.302 6.15525 4.302 6.10263 4.302C6.05003 4.302 6.02372 4.302 5.99742 4.302C5.97111 4.302 5.91851 4.302 5.86589 4.302C5.81329 4.302 5.78698 4.302 5.76067 4.302C5.73437 4.302 5.68176 4.302 5.62915 4.302C4.99784 4.302 4.47174 4.513 4.02456 4.96137C3.57738 5.40975 3.36694 5.93725 3.36694 6.57024C3.36694 7.20327 3.57738 7.73073 4.02456 8.17913C4.47174 8.62747 4.99784 8.83847 5.62915 8.83847C5.68176 8.83847 5.70807 8.83847 5.76067 8.83847C5.78698 8.83847 5.83959 8.83847 5.86589 8.83847C5.91851 8.83847 5.94481 8.83847 5.99742 8.83847C6.02372 8.83847 6.07633 8.83847 6.10263 8.83847C6.15525 8.83847 6.18155 8.83847 6.23416 8.83847C6.26047 8.83847 6.31307 8.83847 6.33938 8.83847C6.39199 8.83847 6.41829 8.83847 6.47091 8.83847C6.49721 8.83847 6.54982 8.83847 6.57612 8.83847C6.62873 8.83847 6.65507 8.83847 6.70766 8.83847C6.73392 8.83847 6.78658 8.83847 6.81285 8.83847C6.86544 8.83847 6.89177 8.83847 6.94436 8.83847C6.97069 8.83847 7.02329 8.83847 7.04962 8.83847C7.10221 8.83847 7.12854 8.83847 7.18113 8.83847C7.20746 8.83847 7.26005 8.83847 7.28632 8.83847C7.33898 8.83847 7.36524 8.83847 7.4179 8.83847C7.44416 8.83847 7.49676 8.83847 7.52309 8.83847C7.57568 8.83847 7.60201 8.83847 7.6546 8.83847C7.68093 8.83847 7.73353 8.83847 7.75986 8.83847C7.81245 8.83847 7.83878 8.83847 7.89137 8.83847C7.91763 8.83847 7.97029 8.83847 7.99656 8.83847C8.04922 8.83847 8.07548 8.83847 8.12807 8.83847C8.1544 8.83847 8.207 8.83847 8.23333 8.83847C8.28592 8.83847 8.31225 8.83847 8.36484 8.83847C8.39117 8.83847 8.44376 8.83847 8.47003 8.83847C8.52269 8.83847 8.54895 8.83847 8.60161 8.83847C8.62787 8.83847 8.68047 8.83847 8.7068 8.83847C8.75939 8.83847 8.78572 8.83847 8.83831 8.83847C8.86464 8.83847 8.91723 8.83847 8.94356 8.83847C8.99616 8.83847 9.02249 8.83847 9.07508 8.83847C9.10134 8.83847 9.154 8.83847 9.18027 8.83847C9.23293 8.83847 9.25919 8.83847 9.31178 8.83847C9.33811 8.83847 9.39071 8.83847 9.41704 8.83847C9.46963 8.83847 9.49596 8.83847 9.54855 8.83847C9.57488 8.83847 9.62747 8.83847 9.6538 8.83847C9.7064 8.83847 9.73266 8.83847 9.78532 8.83847C9.81158 8.83847 9.86424 8.83847 9.89051 8.83847C9.9431 8.83847 9.96943 8.83847 10.022 8.83847C10.0484 8.83847 10.1009 8.83847 10.1273 8.83847C10.1799 8.83847 10.2062 8.83847 10.2588 8.83847C10.2851 8.83847 10.3377 8.83847 10.364 8.83847C10.4166 8.83847 10.4429 8.83847 10.4955 8.83847C10.5218 8.83847 10.5744 8.83847 10.6007 8.83847C10.6533 8.83847 10.6797 8.83847 10.7323 8.83847C10.7586 8.83847 10.8112 8.83847 10.8375 8.83847C10.8901 8.83847 10.9164 8.83847 10.969 8.83847C10.9953 8.83847 11.048 8.83847 11.0742 8.83847C11.1268 8.83847 11.1531 8.83847 11.2057 8.83847C11.2321 8.83847 11.2847 8.83847 11.311 8.83847C11.3636 8.83847 11.3899 8.83847 11.4425 8.83847C11.4688 8.83847 11.5214 8.83847 11.5477 8.83847C11.6003 8.83847 11.6266 8.83847 11.6792 8.83847C11.7055 8.83847 11.7581 8.83847 11.7845 8.83847C11.837 8.83847 11.8634 8.83847 11.916 8.83847C11.9423 8.83847 11.9949 8.83847 12.0212 8.83847C12.0738 8.83847 12.1001 8.83847 12.1527 8.83847C12.179 8.83847 12.2317 8.83847 12.2579 8.83847C12.3105 8.83847 12.3368 8.83847 12.3894 8.83847C12.4158 8.83847 12.4684 8.83847 12.4947 8.83847C12.5473 8.83847 12.5736 8.83847 12.6262 8.83847C12.6525 8.83847 12.7051 8.83847 12.7314 8.83847C12.7841 8.83847 12.8103 8.83847 12.863 8.83847C12.8892 8.83847 12.9418 8.83847 12.9682 8.83847C13.0208 8.83847 13.0471 8.83847 13.0997 8.83847C13.126 8.83847 13.1786 8.83847 13.2049 8.83847C13.2575 8.83847 13.2838 8.83847 13.3364 8.83847C13.3627 8.83847 13.4154 8.83847 13.4416 8.83847C13.4942 8.83847 13.5206 8.83847 13.5732 8.83847C13.5995 8.83847 13.6521 8.83847 13.6784 8.83847C13.731 8.83847 13.7573 8.83847 13.8099 8.83847C13.8363 8.83847 13.8888 8.83847 13.9151 8.83847C13.9678 8.83847 13.994 8.83847 14.0467 8.83847C14.073 8.83847 14.1255 8.83847 14.1519 8.83847C14.2045 8.83847 14.2308 8.83847 14.2834 8.83847C14.3097 8.83847 14.3623 8.83847 14.3886 8.83847C14.4412 8.83847 14.4676 8.83847 14.5202 8.83847C14.5464 8.83847 14.5991 8.83847 14.6253 8.83847C14.6779 8.83847 14.7043 8.83847 14.7569 8.83847C14.7832 8.83847 14.8358 8.83847 14.8621 8.83847C14.9147 8.83847 14.941 8.83847 14.9936 8.83847C15.02 8.83847 15.0726 8.83847 15.0988 8.83847C15.1515 8.83847 15.1777 8.83847 15.2304 8.83847C15.2567 8.83847 15.3093 8.83847 15.3356 8.83847C15.3882 8.83847 15.4145 8.83847 15.4671 8.83847C15.4934 8.83847 15.546 8.83847 15.5724 8.83847C15.6249 8.83847 15.6513 8.83847 15.7039 8.83847C15.7301 8.83847 15.7828 8.83847 15.8091 8.83847C15.8617 8.83847 15.888 8.83847 15.9406 8.83847C15.9669 8.83847 16.0195 8.83847 16.0458 8.83847C16.0984 8.83847 16.1247 8.83847 16.1773 8.83847C16.2037 8.83847 16.2563 8.83847 16.2825 8.83847C16.3352 8.83847 16.3614 8.83847 16.4141 8.83847C16.4404 8.83847 16.493 8.83847 16.5193 8.83847C16.5719 8.83847 16.5982 8.83847 16.6508 8.83847C16.6771 8.83847 16.7297 8.83847 16.7561 8.83847C16.8087 8.83847 16.835 8.83847 16.8876 8.83847C16.9138 8.83847 16.9665 8.83847 16.9928 8.83847C17.0454 8.83847 17.0717 8.83847 17.1243 8.83847C17.1506 8.83847 17.2032 8.83847 17.2295 8.83847C17.2821 8.83847 17.3085 8.83847 17.361 8.83847C17.3874 8.83847 17.44 8.83847 17.4663 8.83847C17.5189 8.83847 17.5452 8.83847 17.5978 8.83847C17.6241 8.83847 17.6767 8.83847 17.703 8.83847C17.7556 8.83847 17.7819 8.83847 17.8345 8.83847C17.8609 8.83847 17.9134 8.83847 17.9398 8.83847C17.9924 8.83847 18.0187 8.83847 18.0713 8.83847C18.0976 8.83847 18.1502 8.83847 18.1765 8.83847C18.2291 8.83847 18.2554 8.83847 18.308 8.83847C18.3343 8.83847 18.3869 8.83847 18.4132 8.83847C18.4658 8.83847 18.4922 8.83847 18.5448 8.83847C18.5711 8.83847 18.6237 8.83847 18.65 8.83847C18.7026 8.83847 18.7289 8.83847 18.7815 8.83847C18.8078 8.83847 18.8605 8.83847 18.8867 8.83847C19.518 8.83847 20.0442 8.62747 20.4913 8.17913C20.9385 7.73073 21.1489 7.20327 21.1489 6.57024C21.1489 5.93725 20.9385 5.40975 20.4913 4.96137Z" fill="white"/>
<path d="M17.1244 11.5551C16.6772 11.1067 16.1511 10.8957 15.5198 10.8957C15.4672 10.8957 15.4409 10.8957 15.4146 10.8957C15.3882 10.8957 15.3356 10.8957 15.283 10.8957C15.2305 10.8957 15.2041 10.8957 15.1778 10.8957C15.1515 10.8957 15.0989 10.8957 15.0463 10.8957C14.9937 10.8957 14.9674 10.8957 14.9411 10.8957C14.9148 10.8957 14.8622 10.8957 14.8096 10.8957C14.7569 10.8957 14.7307 10.8957 14.7043 10.8957C14.6781 10.8957 14.6254 10.8957 14.5728 10.8957C14.5202 10.8957 14.4939 10.8957 14.4676 10.8957C14.4413 10.8957 14.3887 10.8957 14.336 10.8957C14.2834 10.8957 14.2572 10.8957 14.2309 10.8957C14.2045 10.8957 14.1519 10.8957 14.0993 10.8957C14.0467 10.8957 14.0204 10.8957 13.9941 10.8957C13.9678 10.8957 13.9152 10.8957 13.8626 10.8957C13.81 10.8957 13.7836 10.8957 13.7574 10.8957C13.7311 10.8957 13.6785 10.8957 13.6259 10.8957C13.5732 10.8957 13.5469 10.8957 13.5206 10.8957C13.4943 10.8957 13.4417 10.8957 13.3891 10.8957C13.3365 10.8957 13.3102 10.8957 13.2839 10.8957C13.2576 10.8957 13.205 10.8957 13.1523 10.8957C13.0997 10.8957 13.0735 10.8957 13.0471 10.8957C13.0208 10.8957 12.9682 10.8957 12.9156 10.8957C12.863 10.8957 12.8367 10.8957 12.8104 10.8957C12.7841 10.8957 12.7314 10.8957 12.6789 10.8957C12.6263 10.8957 12.5999 10.8957 12.5737 10.8957C12.5473 10.8957 12.4947 10.8957 12.4422 10.8957C12.3895 10.8957 12.3632 10.8957 12.3369 10.8957C12.3106 10.8957 12.258 10.8957 12.2054 10.8957C12.1528 10.8957 12.1265 10.8957 12.1002 10.8957C12.0739 10.8957 12.0213 10.8957 11.9686 10.8957C11.916 10.8957 11.8898 10.8957 11.8634 10.8957C11.8371 10.8957 11.7845 10.8957 11.7319 10.8957C11.6793 10.8957 11.653 10.8957 11.6267 10.8957C11.6004 10.8957 11.5477 10.8957 11.4951 10.8957C11.4426 10.8957 11.4162 10.8957 11.39 10.8957C11.3636 10.8957 11.311 10.8957 11.2584 10.8957C11.2058 10.8957 11.1795 10.8957 11.1532 10.8957C11.1269 10.8957 11.0743 10.8957 11.0217 10.8957C10.9691 10.8957 10.9428 10.8957 10.9165 10.8957C10.8902 10.8957 10.8376 10.8957 10.7849 10.8957C10.7323 10.8957 10.7061 10.8957 10.6797 10.8957C10.6534 10.8957 10.6008 10.8957 10.5482 10.8957C10.4956 10.8957 10.4693 10.8957 10.443 10.8957C10.4167 10.8957 10.364 10.8957 10.3114 10.8957C10.2588 10.8957 10.2325 10.8957 10.2062 10.8957C10.1799 10.8957 10.1273 10.8957 10.0747 10.8957C10.0221 10.8957 9.99581 10.8957 9.96948 10.8957C9.94315 10.8957 9.89056 10.8957 9.83797 10.8957C9.78537 10.8957 9.75904 10.8957 9.73271 10.8957C9.70645 10.8957 9.65386 10.8957 9.6012 10.8957C9.5486 10.8957 9.52227 10.8957 9.49601 10.8957C9.46968 10.8957 9.41709 10.8957 9.36449 10.8957C9.3119 10.8957 9.28557 10.8957 9.25924 10.8957C9.23298 10.8957 9.18032 10.8957 9.12773 10.8957C9.07513 10.8957 9.0488 10.8957 9.02254 10.8957C8.99621 10.8957 8.94362 10.8957 8.89102 10.8957C8.83836 10.8957 8.8121 10.8957 8.78577 10.8957C8.75944 10.8957 8.70685 10.8957 8.65426 10.8957C8.60166 10.8957 8.57533 10.8957 8.549 10.8957C8.52274 10.8957 8.47015 10.8957 8.41749 10.8957C8.36489 10.8957 8.33856 10.8957 8.3123 10.8957C8.28597 10.8957 8.23338 10.8957 8.18078 10.8957C8.12812 10.8957 8.10186 10.8957 8.07553 10.8957C8.04927 10.8957 7.99661 10.8957 7.94402 10.8957C7.89142 10.8957 7.86509 10.8957 7.83883 10.8957C7.8125 10.8957 7.75991 10.8957 7.70731 10.8957C7.65465 10.8957 7.62839 10.8957 7.60206 10.8957C7.57573 10.8957 7.52314 10.8957 7.47055 10.8957C7.41795 10.8957 7.39162 10.8957 7.36529 10.8957C7.33903 10.8957 7.28644 10.8957 7.23378 10.8957C7.18118 10.8957 7.15485 10.8957 7.12859 10.8957C7.10226 10.8957 7.04967 10.8957 6.99707 10.8957C6.94441 10.8957 6.91815 10.8957 6.89182 10.8957C6.86556 10.8957 6.8129 10.8957 6.76031 10.8957C6.70771 10.8957 6.68138 10.8957 6.65512 10.8957C6.62879 10.8957 6.57618 10.8957 6.52357 10.8957C6.47096 10.8957 6.44465 10.8957 6.41835 10.8957C6.39205 10.8957 6.33943 10.8957 6.28683 10.8957C6.23422 10.8957 6.20791 10.8957 6.18161 10.8957C6.15531 10.8957 6.10269 10.8957 6.05009 10.8957C5.99747 10.8957 5.97117 10.8957 5.94487 10.8957C5.91856 10.8957 5.86595 10.8957 5.81334 10.8957C5.76073 10.8957 5.73443 10.8957 5.70813 10.8957C5.68182 10.8957 5.62921 10.8957 5.5766 10.8957C5.52399 10.8957 5.49769 10.8957 5.47138 10.8957C5.44507 10.8957 5.39247 10.8957 5.33986 10.8957C5.28725 10.8957 5.26094 10.8957 5.23464 10.8957C5.20833 10.8957 5.15572 10.8957 5.10311 10.8957C5.05051 10.8957 5.0242 10.8957 4.9979 10.8957C4.97159 10.8957 4.91898 10.8957 4.86637 10.8957C4.81376 10.8957 4.78746 10.8957 4.76115 10.8957C4.73485 10.8957 4.68224 10.8957 4.62963 10.8957C4.57702 10.8957 4.55072 10.8957 4.52441 10.8957C4.49811 10.8957 4.4455 10.8957 4.39289 10.8957C4.34028 10.8957 4.31398 10.8957 4.28767 10.8957C4.26136 10.8957 4.20876 10.8957 4.15614 10.8957C4.10354 10.8957 4.07723 10.8957 4.05092 10.8957C4.02462 10.8957 3.97201 10.8957 3.9194 10.8957C3.8668 10.8957 3.84049 10.8957 3.81418 10.8957C3.78788 10.8957 3.73527 10.8957 3.68266 10.8957C3.63005 10.8957 3.60374 10.8957 3.57744 10.8957C3.55114 10.8957 3.49852 10.8957 3.44592 10.8957C3.39331 10.8957 3.367 10.8957 3.3407 10.8957C3.31439 10.8957 3.26178 10.8957 3.20918 10.8957C3.15657 10.8957 3.13026 10.8957 3.10396 10.8957C3.07765 10.8957 3.02504 10.8957 2.97243 10.8957C2.91982 10.8957 2.89352 10.8957 2.86721 10.8957C2.84091 10.8957 2.7883 10.8957 2.73569 10.8957C2.68308 10.8957 2.65678 10.8957 2.63047 10.8957C2.60417 10.8957 2.55156 10.8957 2.49895 10.8957C2.44634 10.8957 2.42003 10.8957 2.39373 10.8957C2.36743 10.8957 2.31481 10.8957 2.26221 10.8957C1.63089 10.8957 1.1048 11.1067 0.657618 11.5551C0.210437 12.0035 0 12.5309 0 13.1639C0 13.7969 0.210437 14.3245 0.657618 14.7728C1.1048 15.2212 1.63089 15.4322 2.26221 15.4322C2.31481 15.4322 2.34112 15.4322 2.39373 15.4322C2.42003 15.4322 2.47265 15.4322 2.49895 15.4322C2.55156 15.4322 2.57786 15.4322 2.63047 15.4322C2.65678 15.4322 2.70939 15.4322 2.73569 15.4322C2.7883 15.4322 2.81461 15.4322 2.86721 15.4322C2.89352 15.4322 2.94613 15.4322 2.97243 15.4322C3.02504 15.4322 3.05135 15.4322 3.10396 15.4322C3.13026 15.4322 3.18287 15.4322 3.20918 15.4322C3.26178 15.4322 3.28809 15.4322 3.3407 15.4322C3.367 15.4322 3.41961 15.4322 3.44592 15.4322C3.49852 15.4322 3.52483 15.4322 3.57744 15.4322C3.60374 15.4322 3.65636 15.4322 3.68266 15.4322C3.73527 15.4322 3.76158 15.4322 3.81418 15.4322C3.84049 15.4322 3.8931 15.4322 3.9194 15.4322C3.97201 15.4322 3.99832 15.4322 4.05092 15.4322C4.07723 15.4322 4.12984 15.4322 4.15614 15.4322C4.20876 15.4322 4.23506 15.4322 4.28767 15.4322C4.31398 15.4322 4.36658 15.4322 4.39289 15.4322C4.4455 15.4322 4.4718 15.4322 4.52441 15.4322C4.55072 15.4322 4.60332 15.4322 4.62963 15.4322C4.68224 15.4322 4.70854 15.4322 4.76115 15.4322C4.78746 15.4322 4.84007 15.4322 4.86637 15.4322C4.91898 15.4322 4.94529 15.4322 4.9979 15.4322C5.0242 15.4322 5.07681 15.4322 5.10311 15.4322C5.15572 15.4322 5.18203 15.4322 5.23464 15.4322C5.26094 15.4322 5.31355 15.4322 5.33986 15.4322C5.39247 15.4322 5.41877 15.4322 5.47138 15.4322C5.49769 15.4322 5.55029 15.4322 5.5766 15.4322C5.62921 15.4322 5.65551 15.4322 5.70813 15.4322C5.73443 15.4322 5.78703 15.4322 5.81334 15.4322C5.86595 15.4322 5.89225 15.4322 5.94487 15.4322C5.97117 15.4322 6.02378 15.4322 6.05009 15.4322C6.10269 15.4322 6.129 15.4322 6.18161 15.4322C6.20791 15.4322 6.26053 15.4322 6.28683 15.4322C6.33943 15.4322 6.36574 15.4322 6.41835 15.4322C6.44465 15.4322 6.49727 15.4322 6.52357 15.4322C6.57618 15.4322 6.60249 15.4322 6.65512 15.4322C6.68138 15.4322 6.73398 15.4322 6.76031 15.4322C6.8129 15.4322 6.83923 15.4322 6.89182 15.4322C6.91815 15.4322 6.97074 15.4322 6.99707 15.4322C7.04967 15.4322 7.076 15.4322 7.12859 15.4322C7.15485 15.4322 7.20751 15.4322 7.23378 15.4322C7.28644 15.4322 7.3127 15.4322 7.36529 15.4322C7.39162 15.4322 7.44422 15.4322 7.47055 15.4322C7.52314 15.4322 7.54947 15.4322 7.60206 15.4322C7.62839 15.4322 7.68098 15.4322 7.70731 15.4322C7.75991 15.4322 7.78617 15.4322 7.83883 15.4322C7.86509 15.4322 7.91769 15.4322 7.94402 15.4322C7.99661 15.4322 8.02294 15.4322 8.07553 15.4322C8.10186 15.4322 8.15445 15.4322 8.18078 15.4322C8.23338 15.4322 8.25971 15.4322 8.3123 15.4322C8.33856 15.4322 8.39122 15.4322 8.41749 15.4322C8.47015 15.4322 8.49641 15.4322 8.549 15.4322C8.57533 15.4322 8.62793 15.4322 8.65426 15.4322C8.70685 15.4322 8.73318 15.4322 8.78577 15.4322C8.8121 15.4322 8.86469 15.4322 8.89102 15.4322C8.94362 15.4322 8.96988 15.4322 9.02254 15.4322C9.0488 15.4322 9.10146 15.4322 9.12773 15.4322C9.18032 15.4322 9.20665 15.4322 9.25924 15.4322C9.28557 15.4322 9.33816 15.4322 9.36449 15.4322C9.41709 15.4322 9.44342 15.4322 9.49601 15.4322C9.52227 15.4322 9.57493 15.4322 9.6012 15.4322C9.65386 15.4322 9.68012 15.4322 9.73271 15.4322C9.75904 15.4322 9.81164 15.4322 9.83797 15.4322C9.89056 15.4322 9.91689 15.4322 9.96948 15.4322C9.99581 15.4322 10.0484 15.4322 10.0747 15.4322C10.1273 15.4322 10.1536 15.4322 10.2062 15.4322C10.2325 15.4322 10.2852 15.4322 10.3114 15.4322C10.364 15.4322 10.3904 15.4322 10.443 15.4322C10.4693 15.4322 10.5219 15.4322 10.5482 15.4322C10.6008 15.4322 10.6271 15.4322 10.6797 15.4322C10.7061 15.4322 10.7586 15.4322 10.7849 15.4322C10.8376 15.4322 10.8638 15.4322 10.9165 15.4322C10.9428 15.4322 10.9953 15.4322 11.0217 15.4322C11.0743 15.4322 11.1006 15.4322 11.1532 15.4322C11.1795 15.4322 11.2321 15.4322 11.2584 15.4322C11.311 15.4322 11.3373 15.4322 11.39 15.4322C11.4162 15.4322 11.4689 15.4322 11.4951 15.4322C11.5477 15.4322 11.5741 15.4322 11.6267 15.4322C11.653 15.4322 11.7056 15.4322 11.7319 15.4322C11.7845 15.4322 11.8108 15.4322 11.8634 15.4322C11.8898 15.4322 11.9424 15.4322 11.9686 15.4322C12.0213 15.4322 12.0475 15.4322 12.1002 15.4322C12.1265 15.4322 12.1791 15.4322 12.2054 15.4322C12.258 15.4322 12.2843 15.4322 12.3369 15.4322C12.3632 15.4322 12.4158 15.4322 12.4422 15.4322C12.4947 15.4322 12.5211 15.4322 12.5737 15.4322C12.5999 15.4322 12.6526 15.4322 12.6789 15.4322C12.7314 15.4322 12.7578 15.4322 12.8104 15.4322C12.8367 15.4322 12.8893 15.4322 12.9156 15.4322C12.9682 15.4322 12.9945 15.4322 13.0471 15.4322C13.0735 15.4322 13.1261 15.4322 13.1523 15.4322C13.205 15.4322 13.2313 15.4322 13.2839 15.4322C13.3102 15.4322 13.3628 15.4322 13.3891 15.4322C13.4417 15.4322 13.468 15.4322 13.5206 15.4322C13.5469 15.4322 13.5995 15.4322 13.6259 15.4322C13.6785 15.4322 13.7048 15.4322 13.7574 15.4322C13.7836 15.4322 13.8363 15.4322 13.8626 15.4322C13.9152 15.4322 13.9415 15.4322 13.9941 15.4322C14.0204 15.4322 14.073 15.4322 14.0993 15.4322C14.1519 15.4322 14.1783 15.4322 14.2309 15.4322C14.2572 15.4322 14.3098 15.4322 14.336 15.4322C14.3887 15.4322 14.415 15.4322 14.4676 15.4322C14.4939 15.4322 14.5465 15.4322 14.5728 15.4322C14.6254 15.4322 14.6517 15.4322 14.7043 15.4322C14.7307 15.4322 14.7832 15.4322 14.8096 15.4322C14.8622 15.4322 14.8885 15.4322 14.9411 15.4322C14.9674 15.4322 15.02 15.4322 15.0463 15.4322C15.0989 15.4322 15.1252 15.4322 15.1778 15.4322C15.2041 15.4322 15.2567 15.4322 15.283 15.4322C15.3356 15.4322 15.362 15.4322 15.4146 15.4322C15.4409 15.4322 15.4935 15.4322 15.5198 15.4322C16.1511 15.4322 16.6772 15.2212 17.1244 14.7728C17.5715 14.3245 17.782 13.7969 17.782 13.1639C17.782 12.5046 17.5715 12.0035 17.1244 11.5551Z" fill="white"/>
<path d="M19.1236 19.2565C18.6764 18.8082 18.1504 18.5972 17.5191 18.5972C17.4665 18.5972 17.4401 18.5972 17.4138 18.5972C17.3875 18.5972 17.3349 18.5972 17.2823 18.5972C17.2297 18.5972 17.2034 18.5972 17.1771 18.5972C17.1508 18.5972 17.0982 18.5972 17.0456 18.5972C16.9929 18.5972 16.9667 18.5972 16.9403 18.5972C16.9141 18.5972 16.8614 18.5972 16.8088 18.5972C16.7562 18.5972 16.7299 18.5972 16.7036 18.5972C16.6773 18.5972 16.6247 18.5972 16.572 18.5972C16.5195 18.5972 16.4932 18.5972 16.4669 18.5972C16.4405 18.5972 16.3879 18.5972 16.3353 18.5972C16.2827 18.5972 16.2564 18.5972 16.2301 18.5972C16.2038 18.5972 16.1512 18.5972 16.0986 18.5972C16.046 18.5972 16.0197 18.5972 15.9934 18.5972C15.9671 18.5972 15.9145 18.5972 15.8619 18.5972C15.8092 18.5972 15.7829 18.5972 15.7566 18.5972C15.7304 18.5972 15.6777 18.5972 15.6251 18.5972C15.5725 18.5972 15.5462 18.5972 15.5199 18.5972C15.4936 18.5972 15.441 18.5972 15.3883 18.5972C15.3357 18.5972 15.3095 18.5972 15.2831 18.5972C15.2568 18.5972 15.2042 18.5972 15.1516 18.5972C15.099 18.5972 15.0727 18.5972 15.0464 18.5972C15.0201 18.5972 14.9675 18.5972 14.9149 18.5972C14.8623 18.5972 14.8359 18.5972 14.8097 18.5972C14.7833 18.5972 14.7308 18.5972 14.6782 18.5972C14.6255 18.5972 14.5992 18.5972 14.5729 18.5972C14.5466 18.5972 14.494 18.5972 14.4414 18.5972C14.3888 18.5972 14.3625 18.5972 14.3362 18.5972C14.3099 18.5972 14.2573 18.5972 14.2046 18.5972C14.152 18.5972 14.1258 18.5972 14.0994 18.5972C14.0731 18.5972 14.0205 18.5972 13.9679 18.5972C13.9153 18.5972 13.889 18.5972 13.8627 18.5972C13.8364 18.5972 13.7837 18.5972 13.7312 18.5972C13.6786 18.5972 13.6522 18.5972 13.626 18.5972C13.5996 18.5972 13.547 18.5972 13.4945 18.5972C13.4418 18.5972 13.4155 18.5972 13.3892 18.5972C13.3629 18.5972 13.3103 18.5972 13.2577 18.5972C13.2051 18.5972 13.1788 18.5972 13.1524 18.5972C13.1262 18.5972 13.0736 18.5972 13.0209 18.5972C12.9683 18.5972 12.942 18.5972 12.9157 18.5972C12.8894 18.5972 12.8368 18.5972 12.7842 18.5972C12.7316 18.5972 12.7053 18.5972 12.679 18.5972C12.6527 18.5972 12.6 18.5972 12.5474 18.5972C12.4949 18.5972 12.4685 18.5972 12.4423 18.5972C12.4159 18.5972 12.3633 18.5972 12.3107 18.5972C12.2581 18.5972 12.2318 18.5972 12.2055 18.5972C12.1792 18.5972 12.1266 18.5972 12.074 18.5972C12.0214 18.5972 11.9951 18.5972 11.9687 18.5972C11.9425 18.5972 11.8899 18.5972 11.8372 18.5972C11.7846 18.5972 11.7583 18.5972 11.732 18.5972C11.7057 18.5972 11.6531 18.5972 11.6005 18.5972C11.5478 18.5972 11.5216 18.5972 11.4952 18.5972C11.469 18.5972 11.4163 18.5972 11.3637 18.5972C11.3111 18.5972 11.2848 18.5972 11.2585 18.5972C11.2322 18.5972 11.1796 18.5972 11.127 18.5972C11.0744 18.5972 11.0481 18.5972 11.0218 18.5972C10.9954 18.5972 10.9429 18.5972 10.8903 18.5972C10.8377 18.5972 10.8113 18.5972 10.785 18.5972C10.7587 18.5972 10.7062 18.5972 10.6535 18.5972C10.6009 18.5972 10.5746 18.5972 10.5483 18.5972C10.522 18.5972 10.4694 18.5972 10.4168 18.5972C10.3641 18.5972 10.3379 18.5972 10.3115 18.5972C10.2853 18.5972 10.2326 18.5972 10.18 18.5972C10.1274 18.5972 10.1011 18.5972 10.0748 18.5972C10.0485 18.5972 9.99592 18.5972 9.94326 18.5972C9.89066 18.5972 9.8644 18.5972 9.83807 18.5972C9.81174 18.5972 9.75915 18.5972 9.70655 18.5972C9.65396 18.5972 9.62763 18.5972 9.6013 18.5972C9.57504 18.5972 9.52244 18.5972 9.46979 18.5972C9.41719 18.5972 9.39086 18.5972 9.3646 18.5972C9.33827 18.5972 9.28568 18.5972 9.23308 18.5972C9.18042 18.5972 9.15416 18.5972 9.12783 18.5972C9.10157 18.5972 9.04891 18.5972 8.99631 18.5972C8.94372 18.5972 8.91739 18.5972 8.89113 18.5972C8.8648 18.5972 8.81221 18.5972 8.75955 18.5972C8.70695 18.5972 8.68069 18.5972 8.65436 18.5972C8.62803 18.5972 8.57544 18.5972 8.52284 18.5972C8.47025 18.5972 8.44392 18.5972 8.41759 18.5972C8.39133 18.5972 8.33867 18.5972 8.28608 18.5972C8.23348 18.5972 8.20715 18.5972 8.18089 18.5972C8.15456 18.5972 8.10197 18.5972 8.04937 18.5972C7.99671 18.5972 7.97045 18.5972 7.94412 18.5972C7.91786 18.5972 7.8652 18.5972 7.8126 18.5972C7.76001 18.5972 7.73368 18.5972 7.70742 18.5972C7.68109 18.5972 7.6285 18.5972 7.57584 18.5972C7.52324 18.5972 7.49698 18.5972 7.47065 18.5972C7.44432 18.5972 7.39173 18.5972 7.33913 18.5972C7.28654 18.5972 7.26021 18.5972 7.23388 18.5972C7.20762 18.5972 7.15496 18.5972 7.10237 18.5972C7.04977 18.5972 7.02344 18.5972 6.99718 18.5972C6.97085 18.5972 6.91826 18.5972 6.86566 18.5972C6.813 18.5972 6.78674 18.5972 6.76041 18.5972C6.73408 18.5972 6.68149 18.5972 6.62889 18.5972C6.57628 18.5972 6.54998 18.5972 6.52368 18.5972C6.49737 18.5972 6.44476 18.5972 6.39215 18.5972C6.33954 18.5972 6.31324 18.5972 6.28693 18.5972C6.26063 18.5972 6.20802 18.5972 6.15541 18.5972C6.1028 18.5972 6.07649 18.5972 6.05019 18.5972C6.02389 18.5972 5.97128 18.5972 5.91867 18.5972C5.86606 18.5972 5.83975 18.5972 5.81345 18.5972C5.78715 18.5972 5.73453 18.5972 5.68193 18.5972C5.62931 18.5972 5.60301 18.5972 5.57671 18.5972C5.5504 18.5972 5.49779 18.5972 5.44518 18.5972C5.39257 18.5972 5.36627 18.5972 5.33997 18.5972C5.31366 18.5972 5.26105 18.5972 5.20844 18.5972C5.15583 18.5972 5.12953 18.5972 5.10322 18.5972C5.07691 18.5972 5.02431 18.5972 4.97169 18.5972C4.91909 18.5972 4.89278 18.5972 4.86648 18.5972C4.84017 18.5972 4.78757 18.5972 4.73495 18.5972C4.68235 18.5972 4.65604 18.5972 4.62974 18.5972C4.60343 18.5972 4.55082 18.5972 4.49821 18.5972C4.4456 18.5972 4.4193 18.5972 4.39299 18.5972C4.36669 18.5972 4.31408 18.5972 4.26147 18.5972C3.63016 18.5972 3.10406 18.8082 2.65688 19.2565C2.2097 19.7049 1.99927 20.2324 1.99927 20.8654C1.99927 21.4984 2.2097 22.0259 2.65688 22.4743C3.10406 22.9227 3.63016 23.1337 4.26147 23.1337C4.31408 23.1337 4.34038 23.1337 4.39299 23.1337C4.4193 23.1337 4.47191 23.1337 4.49821 23.1337C4.55082 23.1337 4.57713 23.1337 4.62974 23.1337C4.65604 23.1337 4.70865 23.1337 4.73495 23.1337C4.78757 23.1337 4.81387 23.1337 4.86648 23.1337C4.89278 23.1337 4.94539 23.1337 4.97169 23.1337C5.02431 23.1337 5.05061 23.1337 5.10322 23.1337C5.12953 23.1337 5.18213 23.1337 5.20844 23.1337C5.26105 23.1337 5.28735 23.1337 5.33997 23.1337C5.36627 23.1337 5.41887 23.1337 5.44518 23.1337C5.49779 23.1337 5.52409 23.1337 5.57671 23.1337C5.60301 23.1337 5.65562 23.1337 5.68193 23.1337C5.73453 23.1337 5.76084 23.1337 5.81345 23.1337C5.83975 23.1337 5.89236 23.1337 5.91867 23.1337C5.97128 23.1337 5.99758 23.1337 6.05019 23.1337C6.07649 23.1337 6.12911 23.1337 6.15541 23.1337C6.20802 23.1337 6.23432 23.1337 6.28693 23.1337C6.31324 23.1337 6.36585 23.1337 6.39215 23.1337C6.44476 23.1337 6.47107 23.1337 6.52368 23.1337C6.54998 23.1337 6.60259 23.1337 6.62889 23.1337C6.68149 23.1337 6.70782 23.1337 6.76041 23.1337C6.78674 23.1337 6.83933 23.1337 6.86566 23.1337C6.91826 23.1337 6.94452 23.1337 6.99718 23.1337C7.02344 23.1337 7.0761 23.1337 7.10237 23.1337C7.15496 23.1337 7.18129 23.1337 7.23388 23.1337C7.26021 23.1337 7.3128 23.1337 7.33913 23.1337C7.39173 23.1337 7.41806 23.1337 7.47065 23.1337C7.49698 23.1337 7.54957 23.1337 7.57584 23.1337C7.6285 23.1337 7.65476 23.1337 7.70742 23.1337C7.73368 23.1337 7.78627 23.1337 7.8126 23.1337C7.8652 23.1337 7.89153 23.1337 7.94412 23.1337C7.97045 23.1337 8.02304 23.1337 8.04937 23.1337C8.10197 23.1337 8.12823 23.1337 8.18089 23.1337C8.20715 23.1337 8.25981 23.1337 8.28608 23.1337C8.33867 23.1337 8.365 23.1337 8.41759 23.1337C8.44392 23.1337 8.49651 23.1337 8.52284 23.1337C8.57544 23.1337 8.60177 23.1337 8.65436 23.1337C8.68069 23.1337 8.73328 23.1337 8.75955 23.1337C8.81221 23.1337 8.83847 23.1337 8.89113 23.1337C8.91739 23.1337 8.96998 23.1337 8.99631 23.1337C9.04891 23.1337 9.07524 23.1337 9.12783 23.1337C9.15416 23.1337 9.20675 23.1337 9.23308 23.1337C9.28568 23.1337 9.31201 23.1337 9.3646 23.1337C9.39086 23.1337 9.44352 23.1337 9.46979 23.1337C9.52244 23.1337 9.54871 23.1337 9.6013 23.1337C9.62763 23.1337 9.68022 23.1337 9.70655 23.1337C9.75915 23.1337 9.78548 23.1337 9.83807 23.1337C9.8644 23.1337 9.91699 23.1337 9.94326 23.1337C9.99592 23.1337 10.0222 23.1337 10.0748 23.1337C10.1011 23.1337 10.1537 23.1337 10.18 23.1337C10.2326 23.1337 10.2589 23.1337 10.3115 23.1337C10.3379 23.1337 10.3905 23.1337 10.4168 23.1337C10.4694 23.1337 10.4957 23.1337 10.5483 23.1337C10.5746 23.1337 10.6272 23.1337 10.6535 23.1337C10.7062 23.1337 10.7324 23.1337 10.785 23.1337C10.8113 23.1337 10.8639 23.1337 10.8903 23.1337C10.9429 23.1337 10.9692 23.1337 11.0218 23.1337C11.0481 23.1337 11.1007 23.1337 11.127 23.1337C11.1796 23.1337 11.2059 23.1337 11.2585 23.1337C11.2848 23.1337 11.3374 23.1337 11.3637 23.1337C11.4163 23.1337 11.4427 23.1337 11.4952 23.1337C11.5216 23.1337 11.5742 23.1337 11.6005 23.1337C11.6531 23.1337 11.6794 23.1337 11.732 23.1337C11.7583 23.1337 11.8109 23.1337 11.8372 23.1337C11.8899 23.1337 11.9161 23.1337 11.9687 23.1337C11.9951 23.1337 12.0476 23.1337 12.074 23.1337C12.1266 23.1337 12.1529 23.1337 12.2055 23.1337C12.2318 23.1337 12.2844 23.1337 12.3107 23.1337C12.3633 23.1337 12.3896 23.1337 12.4423 23.1337C12.4685 23.1337 12.5212 23.1337 12.5474 23.1337C12.6 23.1337 12.6264 23.1337 12.679 23.1337C12.7053 23.1337 12.7579 23.1337 12.7842 23.1337C12.8368 23.1337 12.8631 23.1337 12.9157 23.1337C12.942 23.1337 12.9947 23.1337 13.0209 23.1337C13.0736 23.1337 13.0998 23.1337 13.1524 23.1337C13.1788 23.1337 13.2314 23.1337 13.2577 23.1337C13.3103 23.1337 13.3366 23.1337 13.3892 23.1337C13.4155 23.1337 13.4681 23.1337 13.4945 23.1337C13.547 23.1337 13.5733 23.1337 13.626 23.1337C13.6522 23.1337 13.7049 23.1337 13.7312 23.1337C13.7837 23.1337 13.8101 23.1337 13.8627 23.1337C13.889 23.1337 13.9416 23.1337 13.9679 23.1337C14.0205 23.1337 14.0468 23.1337 14.0994 23.1337C14.1258 23.1337 14.1784 23.1337 14.2046 23.1337C14.2573 23.1337 14.2835 23.1337 14.3362 23.1337C14.3625 23.1337 14.4151 23.1337 14.4414 23.1337C14.494 23.1337 14.5203 23.1337 14.5729 23.1337C14.5992 23.1337 14.6518 23.1337 14.6782 23.1337C14.7308 23.1337 14.757 23.1337 14.8097 23.1337C14.8359 23.1337 14.8886 23.1337 14.9149 23.1337C14.9675 23.1337 14.9938 23.1337 15.0464 23.1337C15.0727 23.1337 15.1253 23.1337 15.1516 23.1337C15.2042 23.1337 15.2306 23.1337 15.2831 23.1337C15.3095 23.1337 15.3621 23.1337 15.3883 23.1337C15.441 23.1337 15.4673 23.1337 15.5199 23.1337C15.5462 23.1337 15.5988 23.1337 15.6251 23.1337C15.6777 23.1337 15.704 23.1337 15.7566 23.1337C15.7829 23.1337 15.8355 23.1337 15.8619 23.1337C15.9145 23.1337 15.9408 23.1337 15.9934 23.1337C16.0197 23.1337 16.0723 23.1337 16.0986 23.1337C16.1512 23.1337 16.1775 23.1337 16.2301 23.1337C16.2564 23.1337 16.309 23.1337 16.3353 23.1337C16.3879 23.1337 16.4143 23.1337 16.4669 23.1337C16.4932 23.1337 16.5458 23.1337 16.572 23.1337C16.6247 23.1337 16.651 23.1337 16.7036 23.1337C16.7299 23.1337 16.7825 23.1337 16.8088 23.1337C16.8614 23.1337 16.8877 23.1337 16.9403 23.1337C16.9667 23.1337 17.0193 23.1337 17.0456 23.1337C17.0982 23.1337 17.1245 23.1337 17.1771 23.1337C17.2034 23.1337 17.256 23.1337 17.2823 23.1337C17.3349 23.1337 17.3612 23.1337 17.4138 23.1337C17.4401 23.1337 17.4927 23.1337 17.5191 23.1337C18.1504 23.1337 18.6764 22.9227 19.1236 22.4743C19.5708 22.0259 19.7812 21.4984 19.7812 20.8654C19.7812 20.2324 19.5708 19.7049 19.1236 19.2565Z" fill="white"/>
<path d="M36.353 19.1775C36.3267 18.8609 36.3004 18.5181 36.2215 18.1752C36.1689 17.8059 36.0636 17.4631 35.9847 17.1466C35.8795 16.8301 35.748 16.5136 35.5638 16.1971C35.3797 15.8806 35.1693 15.5905 34.9325 15.3795C34.6958 15.1421 34.3801 14.9575 34.0382 14.7992C33.6962 14.6673 33.3017 14.5882 32.8808 14.5882C32.723 14.5882 32.5651 14.6409 32.2495 14.8519C32.0653 14.9839 31.8286 15.1157 31.5918 15.2739C31.3814 15.4059 31.092 15.5377 30.7501 15.6432C30.4081 15.7487 30.0662 15.8015 29.7242 15.8015C29.3823 15.8015 29.0403 15.7487 28.6983 15.6432C28.3564 15.5377 28.067 15.4059 27.8566 15.2739C27.6198 15.1157 27.3831 14.9839 27.1989 14.8519C26.8833 14.6409 26.7255 14.5882 26.5676 14.5882C26.1468 14.5882 25.7522 14.6673 25.4102 14.7992C25.0683 14.9311 24.7526 15.1421 24.5159 15.3795C24.2791 15.6169 24.0687 15.8806 23.8846 16.1971C23.7004 16.5136 23.5689 16.8301 23.4637 17.1466C23.3585 17.4631 23.2795 17.8059 23.2269 18.1752C23.1743 18.5445 23.1218 18.8873 23.0954 19.1775C23.0691 19.4939 23.0691 19.8105 23.0691 20.1269C23.0691 20.9709 23.3322 21.6303 23.8583 22.1314C24.3844 22.6325 25.0683 22.8699 25.8837 22.8699H33.591C34.4328 22.8699 35.1167 22.6325 35.6165 22.1314C36.1426 21.6303 36.4056 20.9445 36.4056 20.1005C36.3793 19.8105 36.3793 19.4939 36.353 19.1775Z" fill="white"/>
<path d="M29.5929 14.5618C30.645 14.5618 31.5657 14.1926 32.3285 13.4277C33.0651 12.6629 33.4597 11.7661 33.4597 10.6847C33.4597 9.62972 33.0914 8.70659 32.3285 7.94172C31.592 7.20326 30.6714 6.80759 29.5929 6.80759C28.5407 6.80759 27.62 7.17686 26.8572 7.94172C26.0944 8.70659 25.7261 9.60332 25.7261 10.6847C25.7261 11.7397 26.0944 12.6629 26.8572 13.4277C27.62 14.1926 28.5407 14.5618 29.5929 14.5618Z" fill="white"/>
<path d="M31.1185 15.7487H28.225C28.225 15.7487 28.7247 16.6982 28.7511 16.8301L28.0671 20.2588L28.6721 20.8654L29.6191 21.8149L31.3815 20.2061L30.5661 16.8301L31.1185 15.7487ZM28.7247 16.1179H30.5397L30.2241 16.7246H29.0404C28.9878 16.5927 28.83 16.3289 28.7247 16.1179ZM30.7239 20.1269L29.5665 21.2874L28.8036 20.4698L28.5406 20.2061L29.0667 17.1993H30.2505L30.7239 20.1269Z" fill="#D6D6D6"/>
<path d="M30.7239 20.1269L29.5665 21.2874L28.8037 20.4698C28.8037 20.4434 28.83 20.4434 28.83 20.4171C29.0141 20.1533 28.9878 19.8895 28.9878 19.8895C28.9878 19.8895 29.2772 18.0169 29.2772 17.8851C29.2772 17.8059 29.2772 17.4631 29.2509 17.1729H30.2505L30.7239 20.1269Z" fill="#D6D6D6"/>
<path d="M30.5397 16.1179L30.2241 16.7245H29.2245C29.1719 16.5927 29.0667 16.2498 28.9614 16.1179H30.5397Z" fill="white"/>
<path d="M28.9616 19.8632C28.9616 19.8632 28.9879 20.1269 28.8038 20.3907C28.8038 20.4171 28.7774 20.4171 28.7774 20.4434L28.5144 20.1797L29.0405 17.1729H29.2246C29.2246 17.4631 29.2509 17.8323 29.2509 17.8851C29.2772 17.9905 28.9616 19.8632 28.9616 19.8632Z" fill="white"/>
<path d="M29.225 16.7249H29.067C28.9881 16.593 28.8565 16.3292 28.7512 16.1181H28.9881C29.0407 16.25 29.1723 16.593 29.225 16.7249Z" fill="white"/>
</g>
<defs>
<clipPath id="clip0">
<rect width="125" height="30" fill="white"/>
</clipPath>
</defs>
</svg>
