<svg width="416" height="415" viewBox="0 0 416 415" fill="none" xmlns="http://www.w3.org/2000/svg">
<path d="M339.608 129.791H415.492L410.561 122.075H347.553L339.608 129.791Z" fill="#F0F2F4"/>
<path d="M0.607344 340.036H337.622L357.516 321.519H75.5259L0.607344 340.036Z" fill="#F0F2F4"/>
<path d="M317.313 148.307H410.669L415.493 139.435H339.61L317.313 148.307Z" fill="#F0F2F4"/>
<path d="M347.554 113.203H410.561L406.283 107.03H351.251L347.554 113.203Z" fill="#F0F2F4"/>
<path d="M351.251 98.929H406.283L402.773 94.6855H354.283L351.251 98.929Z" fill="#F0F2F4"/>
<path d="M226.363 216.589H388.434L396.544 205.016H265.291L226.363 216.589Z" fill="#F0F2F4"/>
<path d="M292.394 169.138H403.903L410.668 159.108H317.312L292.394 169.138Z" fill="#F0F2F4"/>
<path d="M354.284 87.7415H402.774L399.814 84.2695H356.844L354.284 87.7415Z" fill="#F0F2F4"/>
<path d="M203.816 241.278H379.562L388.433 230.091H226.362L203.816 241.278Z" fill="#F0F2F4"/>
<path d="M265.29 192.285H396.544L403.904 181.098H292.395L265.29 192.285Z" fill="#F0F2F4"/>
<path d="M75.526 304.93H357.516L368.735 288.342H140.836L75.526 304.93Z" fill="#F0F2F4"/>
<path d="M140.836 272.526H368.735L379.562 256.323H203.816L140.836 272.526Z" fill="#F0F2F4"/>
<path d="M359.023 70.382H397.293L395.098 67.6816H360.921L359.023 70.382Z" fill="#F0F2F4"/>
<path d="M356.843 78.4827H399.814L397.293 75.3965H359.022L356.843 78.4827Z" fill="#F0F2F4"/>
<path d="M363.004 62.2803L360.921 63.8233H395.098L392.684 62.2803H363.004Z" fill="#F0F2F4"/>
<path d="M0.5 345.598V357.395H337.58V340.035H0.5V345.598Z" fill="#C5CBD5"/>
<path d="M357.182 304.93H75.4493V321.518H357.182V304.93Z" fill="#C5CBD5"/>
<path d="M368.712 272.525H140.79V288.342H368.712V272.525Z" fill="#C5CBD5"/>
<path d="M379.475 241.278H203.824V256.323H379.475V241.278Z" fill="#C5CBD5"/>
<path d="M226.116 218.155V230.091H388.314V217.087V216.589H226.116V218.155Z" fill="#C5CBD5"/>
<path d="M396.386 192.285H265.321V205.016H396.386V192.285Z" fill="#C5CBD5"/>
<path d="M403.689 169.139H292.226V181.098H403.689V169.139Z" fill="#C5CBD5"/>
<path d="M410.607 148.308H317.209V159.109H410.607V148.308Z" fill="#C4CBD4"/>
<path d="M415.22 129.79H339.502V139.434H415.22V129.79Z" fill="#C6CDD5"/>
<path d="M410.607 113.202H347.573V122.075H410.607V113.202Z" fill="#C8CFD7"/>
<path d="M405.995 98.9287H351.032V107.03H405.995V98.9287Z" fill="#CAD0D8"/>
<path d="M402.536 87.7412H354.107V94.6851H402.536V87.7412Z" fill="#CDD2DA"/>
<path d="M399.845 78.4824H356.797V84.269H399.845V78.4824Z" fill="#CFD4DB"/>
<path d="M397.155 70.3818H358.719V75.3968H397.155V70.3818Z" fill="#D1D6DD"/>
<path d="M394.849 63.8232H360.641V67.681H394.849V63.8232Z" fill="#D3D8DE"/>
<path d="M392.542 59.1943H362.947V62.2805H392.542V59.1943Z" fill="#D5DAE0"/>
<path d="M88.7248 372.374C119.039 386.67 139.906 353.355 169.355 350.335C198.804 347.314 237.059 332.103 212.095 319.095C187.127 306.091 159.892 310.08 136.792 321.494C113.696 332.917 52.7376 355.396 88.7248 372.374Z" fill="url(#paint0_linear)"/>
<path d="M173.125 307.445L169.354 319.096L181.519 319.003L183.237 311.399L173.125 307.445Z" fill="#D4DAE9"/>
<path d="M106.943 339.815L113.696 332.917L107.546 322.991L99.7862 330.822L106.943 339.815Z" fill="#D4DAE9"/>
<path d="M93.602 331.621C93.602 331.621 91.146 331.397 88.7245 332.373L91.7225 345.578L94.3861 348.784C94.3861 348.784 94.0133 356.958 95.789 363.188C97.5685 369.422 99.1828 369.064 99.1828 369.064L102.042 368.288L93.602 331.621Z" fill="#091634"/>
<path d="M101.109 329.584C101.109 329.584 97.3652 328.597 93.7446 331.583C92.4839 332.624 95.674 343.927 96.5465 348.865C97.419 353.803 98.6067 367.598 102.074 368.281C103.25 368.512 105.521 368.62 104.683 364.925C103.845 361.229 104.722 353.51 104.929 350.582C105.068 348.61 106.755 344.98 107.843 342.816C108.396 341.713 108.319 340.394 107.631 339.367C108.054 339.823 106.14 338.152 103.534 335.07C101.182 332.281 101.109 329.584 101.109 329.584Z" fill="#3A455D"/>
<path d="M204.289 200.984C204.289 200.984 204.128 192.71 206.88 191.653C209.632 190.595 210.116 191.653 210.116 191.653C210.116 191.653 216.189 187.752 219.102 189.866C222.016 191.98 224.525 203.191 220.72 204.896C216.915 206.601 210.116 207.334 210.116 207.334L208.306 207.975L204.289 200.984Z" fill="#FF997A"/>
<path d="M102.654 232.972C102.654 232.972 104.056 237.069 104.056 239.812C104.056 242.555 101.819 244.213 101.393 245.648C100.97 247.087 99.0021 250.849 98.6063 247.087C98.2104 243.326 100.197 242.493 97.8798 239.812C95.566 237.131 97.8798 228.501 97.8798 228.501L102.654 232.972Z" fill="#FF997A"/>
<path d="M71.7092 253.487L78.0665 238.307C79.6039 234.635 83.8318 232.906 87.487 234.449L99.1868 239.387C102.846 240.93 104.568 245.174 103.03 248.842L96.6731 264.023C95.1357 267.695 90.9078 269.423 87.2526 267.88L75.5528 262.942C71.8976 261.399 70.1718 257.156 71.7092 253.487ZM85.9227 238.188C84.3199 237.512 82.4673 238.269 81.7947 239.877L75.4375 255.057C74.7649 256.666 75.5182 258.525 77.121 259.2L88.8207 264.138C90.4235 264.813 92.2761 264.057 92.9487 262.449L99.306 247.269C99.9786 245.66 99.2252 243.8 97.6225 243.125L85.9227 238.188Z" fill="#2E4681"/>
<path d="M95.2359 254.479L100.628 256.755C101.286 257.033 102.043 256.724 102.32 256.061C102.596 255.401 102.289 254.641 101.628 254.363L96.2352 252.087C95.578 251.81 94.8208 252.118 94.544 252.782C94.2711 253.441 94.5786 254.201 95.2359 254.479Z" fill="#2E4681"/>
<path d="M74.1534 245.587L79.5459 247.863C80.2032 248.14 80.9604 247.832 81.2371 247.168C81.5138 246.509 81.2064 245.749 80.5453 245.471L75.1528 243.195C74.4955 242.917 73.7383 243.226 73.4616 243.889C73.1849 244.549 73.4962 245.309 74.1534 245.587Z" fill="#2E4681"/>
<path d="M52.6262 275.087L94.6555 292.817C97.2883 293.928 100.325 292.685 101.432 290.043L111.755 265.392C112.862 262.75 111.625 259.702 108.992 258.591L66.9627 240.861C64.3298 239.75 61.2934 240.992 60.1865 243.635L49.8627 268.285C48.7557 270.932 49.9934 273.976 52.6262 275.087Z" fill="#D49100"/>
<path d="M52.6262 275.087L94.6555 292.817C97.2883 293.928 100.325 292.685 101.432 290.043L111.755 265.392C112.862 262.75 111.625 259.702 108.992 258.591L66.9627 240.861C64.3298 239.75 61.2934 240.992 60.1865 243.635L49.8627 268.285C48.7557 270.932 49.9934 273.976 52.6262 275.087Z" fill="#475F9B"/>
<path d="M86.3565 289.306L89.7617 290.742L102.602 260.082L99.1964 258.646L86.3565 289.306Z" fill="#2E4681"/>
<path d="M57.5348 277.149L60.94 278.586L73.78 247.926L70.3748 246.489L57.5348 277.149Z" fill="#2E4681"/>
<path d="M58.2649 257.399L103.304 276.398C105.936 277.509 108.973 276.267 110.08 273.624L113.262 266.025C114.369 263.382 113.132 260.335 110.499 259.224L65.4562 240.224C62.8234 239.113 59.787 240.355 58.68 242.998L55.4976 250.598C54.3906 253.244 55.6282 256.288 58.2649 257.399Z" fill="#7E98D8"/>
<path d="M58.2652 257.399L103.304 276.398C105.937 277.509 108.973 276.267 110.08 273.625L112.371 268.155C113.478 265.512 112.24 262.464 109.607 261.353L64.5686 242.354C61.9358 241.243 58.8993 242.485 57.7924 245.128L55.5016 250.598C54.3909 253.245 55.6285 256.288 58.2652 257.399Z" fill="#5E7ECE"/>
<path d="M85.958 267.274L84.9087 269.778C84.5128 270.723 83.4289 271.167 82.4911 270.77L76.8373 268.385C75.8956 267.988 75.4536 266.9 75.8495 265.959L76.8988 263.455C77.2946 262.51 78.3785 262.067 79.3163 262.464L84.9702 264.848C85.9119 265.245 86.3539 266.333 85.958 267.274Z" fill="#7E98D8"/>
<path d="M85.662 267.977L84.9087 269.778C84.5128 270.723 83.4289 271.167 82.4911 270.77L76.8373 268.386C75.8956 267.988 75.4536 266.9 75.8495 265.959L76.6028 264.158C76.9987 263.212 78.0826 262.769 79.0204 263.166L84.6743 265.55C85.6159 265.948 86.0579 267.032 85.662 267.977Z" fill="#2E4681"/>
<path d="M100.455 237.794C100.455 237.794 96.2309 246.2 94.0247 246.644C91.8185 247.087 86.1992 245.76 84.7655 243.214C83.3319 240.668 83.6624 236.467 84.7655 234.808C85.8686 233.149 93.0599 226.07 93.0599 226.07L100.924 231.355L100.455 237.794Z" fill="#FF997A"/>
<path d="M206.799 210.176L208.821 208.872L204.289 200.983L201.537 202.785L206.799 210.176Z" fill="#D4DAE9"/>
<path d="M173.894 184.326C176.554 186.513 181.036 212.156 181.036 212.156L202.325 201.566L209.274 213.506C209.274 213.506 183.503 232.895 174.763 230.063C166.023 227.232 166.15 212.846 166.15 212.846L173.894 184.326Z" fill="url(#paint1_linear)"/>
<path d="M169.82 326.459C169.82 326.459 169.074 328.843 169.478 331.158H182.65L186.271 329.43C186.271 329.43 193.938 331.621 200.234 331.273C206.53 330.926 206.541 329.337 206.541 329.337L206.426 326.39L169.82 326.459Z" fill="#091634"/>
<path d="M169.728 318.05C169.728 318.05 167.768 322.332 169.812 326.436C170.527 327.867 181.939 327.27 186.812 327.509C191.686 327.748 205.023 329.607 206.422 326.444C206.899 325.372 207.491 323.223 203.809 323.223C200.126 323.223 192.993 320.711 190.26 319.874C187.527 319.041 182.058 314.149 182.058 314.149C182.058 314.149 181.112 316.495 176.485 317.965C172.122 319.346 169.728 318.05 169.728 318.05Z" fill="#3A455D"/>
<path d="M150.967 231.633H164.312L170.4 242.535C170.4 242.535 204.277 256.422 204.781 264.524C205.284 272.625 189.395 310.816 188.134 315.881C186.874 320.942 169.47 313.586 171.234 306.245C172.998 298.903 181.07 270.796 181.07 270.796C181.07 270.796 145.709 266.877 142.104 257.765C138.503 248.645 150.967 231.633 150.967 231.633Z" fill="url(#paint2_linear)"/>
<path d="M130.174 230.063C130.174 230.063 126.365 243.97 128.133 257.638C129.897 271.31 124.843 289.781 124.843 289.781C124.843 289.781 104.661 319.647 101.886 324.963C99.1105 330.279 108.946 341.416 116.007 334.58C123.067 327.744 141.613 299.645 145.479 293.314C149.346 286.984 156.933 250.255 156.933 250.255V235.665L130.174 230.063Z" fill="url(#paint3_linear)"/>
<path d="M165.012 168.359C165.012 168.359 162.214 173.366 162.214 177.888C162.214 180.943 153.896 178.254 150.568 176.788C147.239 175.322 151.379 172.39 154.907 161.272L165.012 168.359Z" fill="#FF997A"/>
<path d="M165.549 175.307L163.024 174.485L161.037 174.327L155.352 175.581L152.27 176.403L158.074 194.437L160.138 227.004L163.554 222.66L165.549 175.307Z" fill="#BCC4D6"/>
<path d="M162.51 181.051L164.151 221.171L159.581 227.818L155.192 220.118L158.559 180.576L162.51 181.051Z" fill="url(#paint4_linear)"/>
<path d="M161.037 174.327L157.955 175.731L158.558 180.58C158.558 180.58 160.557 181.256 162.509 181.051L163.024 176.071L161.037 174.327Z" fill="url(#paint5_linear)"/>
<path d="M156.778 142.173C168.244 139.384 172.668 145.456 172.668 155.308C172.668 165.161 171.734 171.025 166.591 170.319C161.448 169.617 153.738 165.157 151.87 159.062C150.002 152.959 149.064 144.048 156.778 142.173Z" fill="#FF997A"/>
<path d="M161.037 174.328L157.77 177.607C157.77 177.607 151.817 175.145 149.345 171.319L152.658 167.303L161.037 174.328Z" fill="#D4DAE9"/>
<path d="M163.24 172.456L161.038 174.327L163.24 178.154L165.012 175.307L163.24 172.456Z" fill="#D4DAE9"/>
<path d="M145.429 170.28C145.429 170.28 134.979 171.168 132.638 175.307C130.297 179.446 129.936 215.975 128.856 220.496C127.776 225.017 121.107 234.962 122.91 240.749C124.713 246.535 150.545 251.782 155.196 251.238C159.847 250.694 161.622 232.972 161.622 232.972L161.042 201.686L155.196 183.782C155.192 183.786 151.014 170.701 145.429 170.28Z" fill="url(#paint6_linear)"/>
<path d="M165.012 175.307C165.012 175.307 173.895 180.711 173.895 184.326C173.895 187.941 164.831 232.79 169.451 238.577C174.075 244.363 167.476 242.67 165.008 239.811C162.541 236.953 161.822 231.344 161.822 231.344C161.822 231.344 165.139 186.54 165.012 175.307Z" fill="url(#paint7_linear)"/>
<path d="M105.44 229.237L102.654 232.972C102.654 232.972 95.1241 231.614 91.7802 226.016L94.2901 222.656L105.44 229.237Z" fill="#D4DAE9"/>
<path d="M138.075 171.777C144.779 171.824 146.328 184.508 135.516 197.532C124.704 210.555 106.574 231.36 106.574 231.36C106.574 231.36 95.5811 227.922 93.0598 223.042C93.0598 223.042 109.748 199.522 114.072 194.823C118.4 190.113 129.696 171.72 138.075 171.777Z" fill="url(#paint8_linear)"/>
<path d="M150.567 143.898C150.567 143.898 153.569 137.957 159.361 137.957C165.154 137.957 170.419 134.766 172.668 135.314C174.916 135.862 176.142 147.269 171.803 148.72C167.46 150.17 162.986 148.905 161.618 155.343C160.249 161.778 155.191 166.346 155.191 166.346C155.191 166.346 151.674 165.667 150.029 161.273C148.384 156.883 144.856 143.79 150.567 143.898Z" fill="url(#paint9_linear)"/>
<path d="M161.618 155.344C161.618 155.344 159.677 152.042 158.251 153.693C156.825 155.344 155.822 161.836 161.037 161.836L161.618 155.344Z" fill="#FF997A"/>
<path d="M166.077 148.172L164.17 159.494H161.134L161.038 152.408L166.077 148.172Z" fill="url(#paint10_linear)"/>
<path d="M150.567 168.996C150.567 168.996 159.611 177.336 161.617 196.474C163.624 215.613 161.617 232.972 161.617 232.972L154.438 204.039L159.304 198.434L152.278 196.262C152.278 196.262 153.177 181.19 145.432 170.281L150.567 168.996Z" fill="url(#paint11_linear)"/>
<path d="M164.216 174.026L166.534 175.307C166.534 175.307 168.94 183.574 168.606 196.926L166.134 197.998L169.275 200.683C169.275 200.683 162.31 228.007 161.826 231.348C161.826 231.348 163.156 203.279 163.394 199.877C163.628 196.455 164.216 174.026 164.216 174.026Z" fill="url(#paint12_linear)"/>
<path d="M380.674 84.2498H382.284V38.8369H380.674V84.2498Z" fill="url(#paint13_linear)"/>
<path d="M380.628 38.8369L358.758 44.0101L380.628 49.6925V38.8369Z" fill="#FF997A"/>
<defs>
<linearGradient id="paint0_linear" x1="148.891" y1="375.922" x2="148.891" y2="310.983" gradientUnits="userSpaceOnUse">
<stop stop-color="white"/>
<stop offset="0.0322" stop-color="#FBFBFC"/>
<stop offset="0.2853" stop-color="#DDE0E6"/>
<stop offset="0.5345" stop-color="#C7CCD6"/>
<stop offset="0.7757" stop-color="#BAC0CC"/>
<stop offset="1" stop-color="#B6BCC9"/>
</linearGradient>
<linearGradient id="paint1_linear" x1="209.273" y1="207.336" x2="166.146" y2="207.336" gradientUnits="userSpaceOnUse">
<stop stop-color="#5E7ECE"/>
<stop offset="1" stop-color="#365EC2"/>
</linearGradient>
<linearGradient id="paint2_linear" x1="204.795" y1="274.592" x2="141.453" y2="274.592" gradientUnits="userSpaceOnUse">
<stop stop-color="#203A7A"/>
<stop offset="0.4115" stop-color="#182E64"/>
<stop offset="1" stop-color="#0A193D"/>
</linearGradient>
<linearGradient id="paint3_linear" x1="129.167" y1="336.737" x2="129.167" y2="230.062" gradientUnits="userSpaceOnUse">
<stop offset="0.3867" stop-color="#294792"/>
<stop offset="1" stop-color="#153175"/>
</linearGradient>
<linearGradient id="paint4_linear" x1="164.151" y1="204.197" x2="155.191" y2="204.197" gradientUnits="userSpaceOnUse">
<stop offset="0.3867" stop-color="#294792"/>
<stop offset="1" stop-color="#153175"/>
</linearGradient>
<linearGradient id="paint5_linear" x1="163.025" y1="177.708" x2="157.956" y2="177.708" gradientUnits="userSpaceOnUse">
<stop offset="0.3867" stop-color="#294792"/>
<stop offset="1" stop-color="#153175"/>
</linearGradient>
<linearGradient id="paint6_linear" x1="142.109" y1="170.281" x2="142.109" y2="251.276" gradientUnits="userSpaceOnUse">
<stop stop-color="#5E7ECE"/>
<stop offset="1" stop-color="#365EC2"/>
</linearGradient>
<linearGradient id="paint7_linear" x1="167.86" y1="175.306" x2="167.86" y2="242.44" gradientUnits="userSpaceOnUse">
<stop stop-color="#5E7ECE"/>
<stop offset="1" stop-color="#365EC2"/>
</linearGradient>
<linearGradient id="paint8_linear" x1="118.215" y1="231.355" x2="118.215" y2="171.776" gradientUnits="userSpaceOnUse">
<stop stop-color="#5E7ECE"/>
<stop offset="1" stop-color="#869EDA"/>
</linearGradient>
<linearGradient id="paint9_linear" x1="161.071" y1="166.345" x2="161.071" y2="135.252" gradientUnits="userSpaceOnUse">
<stop stop-color="#0A193D"/>
<stop offset="1" stop-color="#3B4764"/>
</linearGradient>
<linearGradient id="paint10_linear" x1="166.075" y1="153.832" x2="161.038" y2="153.832" gradientUnits="userSpaceOnUse">
<stop stop-color="#0A193D"/>
<stop offset="0.4802" stop-color="#222F50"/>
</linearGradient>
<linearGradient id="paint11_linear" x1="162.509" y1="200.985" x2="145.427" y2="200.985" gradientUnits="userSpaceOnUse">
<stop stop-color="#5E7ECE"/>
<stop offset="1" stop-color="#869EDA"/>
</linearGradient>
<linearGradient id="paint12_linear" x1="169.273" y1="202.685" x2="161.824" y2="202.685" gradientUnits="userSpaceOnUse">
<stop stop-color="#5E7ECE"/>
<stop offset="1" stop-color="#869EDA"/>
</linearGradient>
<linearGradient id="paint13_linear" x1="381.478" y1="84.2485" x2="381.478" y2="38.8369" gradientUnits="userSpaceOnUse">
<stop stop-color="white"/>
<stop offset="0.0322" stop-color="#FBFBFC"/>
<stop offset="0.2853" stop-color="#DDE0E6"/>
<stop offset="0.5345" stop-color="#C7CCD6"/>
<stop offset="0.7757" stop-color="#BAC0CC"/>
<stop offset="1" stop-color="#B6BCC9"/>
</linearGradient>
</defs>
</svg>
