<svg width="405" height="386" viewBox="0 0 405 386" fill="none" xmlns="http://www.w3.org/2000/svg">
<g opacity="0.4">
<path opacity="0.4" d="M287.468 299.665L113.72 299.304C111.789 299.304 110.244 297.735 110.244 295.805L110.424 207.359C110.424 205.429 111.995 203.885 113.926 203.885L287.674 204.246C289.606 204.246 291.151 205.815 291.151 207.745L290.97 296.191C290.97 298.095 289.4 299.665 287.468 299.665Z" fill="#A3A3A3"/>
</g>
<g opacity="0.4">
<path opacity="0.4" d="M130.356 67.164C130.768 65.3112 130.356 63.304 129.043 61.7343L90.6208 15.2084L28.1725 66.6751L28.224 69.5829L31.0309 73.0055L26.8076 76.1964L32.0353 81.6519L35.5633 78.5124L66.62 116.135C68.8605 118.862 72.8778 119.248 75.6075 116.984L128.193 73.6231C130.176 72.0276 130.923 69.48 130.356 67.164Z" fill="#858994"/>
</g>
<path d="M129.094 63.6385L90.6726 17.0869L33.0398 64.6164L32.8853 63.8701L28.1985 65.6715L28.25 68.5793L66.6718 115.105C68.9122 117.833 72.9295 118.219 75.6592 115.954L128.245 72.5937C130.949 70.3807 131.335 66.3405 129.094 63.6385Z" fill="#422B2A"/>
<path d="M38.3961 74.9612L36.1299 76.9941L32.0611 80.6225L26.8335 75.1928L31.0826 71.9504L33.941 69.7888L34.3273 69.5057L37.5205 73.8032L38.3961 74.9612Z" fill="#F95B6C"/>
<path d="M38.3961 74.9612L36.1299 76.9941L31.0825 71.9504L33.941 69.7888L37.5205 73.8032L38.3961 74.9612Z" fill="#CC4468"/>
<path d="M66.5944 112.197L28.1726 65.6715L90.6209 14.2048L129.043 60.7307C131.283 63.4584 130.897 67.4728 128.193 69.7116L75.5818 113.047C72.8779 115.311 68.8606 114.925 66.5944 112.197Z" fill="#64413F"/>
<g opacity="0.5">
<g opacity="0.5">
<path opacity="0.5" d="M73.8822 108.312L72.5688 109.392C72.1311 109.727 71.719 109.778 71.4358 109.753L71.3585 111.117C71.4358 111.117 71.4873 111.117 71.5645 111.117C72.0538 111.117 72.7749 111.014 73.4702 110.447L74.7835 109.367L73.8822 108.312ZM66.6459 104.76L65.5901 105.635L67.779 108.286L68.8348 107.411L66.6459 104.76ZM79.7279 103.474L77.0754 105.661L77.951 106.716L80.6034 104.529L79.7279 103.474ZM61.8303 98.9189L60.7745 99.7939L62.9634 102.444L64.0192 101.569L61.8303 98.9189ZM85.5735 98.6616L82.9211 100.849L83.7967 101.904L86.4491 99.7167L85.5735 98.6616ZM91.4192 93.8237L88.7668 96.0111L89.6423 97.0661L92.2948 94.8788L91.4192 93.8237ZM56.9889 93.0775L55.9331 93.9524L58.122 96.6029L59.1779 95.728L56.9889 93.0775ZM97.2649 89.0116L94.6125 91.1989L95.488 92.254L98.1405 90.0667L97.2649 89.0116ZM52.1733 87.236L51.1175 88.1109L53.3064 90.7615L54.3623 89.8865L52.1733 87.236ZM103.111 84.1995L100.458 86.3868L101.334 87.4419L103.986 85.2545L103.111 84.1995ZM47.3577 81.3945L46.3019 82.2695L48.4908 84.92L49.5466 84.0451L47.3577 81.3945ZM108.956 79.3616L106.304 81.5489L107.179 82.604L109.832 80.4167L108.956 79.3616ZM42.5164 75.5531L41.4606 76.428L43.6495 79.0785L44.7053 78.2036L42.5164 75.5531ZM114.802 74.5495L112.149 76.7368L113.025 77.7919L115.677 75.6045L114.802 74.5495ZM37.7008 69.7116L36.6449 70.5865L38.8339 73.2371L39.8897 72.3621L37.7008 69.7116ZM120.648 69.7373L117.995 71.9247L118.871 72.9797L121.523 70.7924L120.648 69.7373ZM125.721 64.9767C125.669 65.3884 125.463 65.7744 125.154 66.0317L123.841 67.1125L124.716 68.1676L126.03 67.0868C126.622 66.5979 127.008 65.9031 127.086 65.1311L125.721 64.9767ZM32.8852 63.8701L31.8293 64.7451L34.0183 67.3956L35.0741 66.5207L32.8852 63.8701ZM122.785 58.4661L121.729 59.3411L123.918 61.9916L124.974 61.1167L122.785 58.4661ZM117.944 52.6247L116.888 53.4996L119.077 56.1501L120.133 55.2752L117.944 52.6247ZM113.128 46.7832L112.072 47.6581L114.261 50.3087L115.317 49.4337L113.128 46.7832ZM108.287 40.9417L107.231 41.8167L109.42 44.4672L110.476 43.5923L108.287 40.9417ZM103.471 35.1003L102.415 35.9752L104.604 38.6257L105.66 37.7508L103.471 35.1003ZM98.6555 29.2588L97.5997 30.1337L99.7886 32.7843L100.844 31.9093L98.6555 29.2588ZM93.8141 23.4173L92.7583 24.2923L94.9472 26.9428L96.0031 26.0679L93.8141 23.4173ZM88.9985 17.5759L87.9427 18.4508L90.1316 21.1013L91.1875 20.2264L88.9985 17.5759Z" fill="#64413F"/>
</g>
</g>
<path opacity="0.5" d="M152.734 109.006C152.657 108.775 152.58 108.543 152.502 108.312C152.425 108.003 152.322 107.72 152.271 107.411C152.039 106.433 151.472 105.97 150.803 105.249C149.902 104.323 149 103.397 148.125 102.47C145.652 99.9225 143.18 97.3749 140.708 94.8016C140.142 94.2097 139.575 93.6436 139.008 93.0517L136.717 90.6843C136.562 90.5299 136.382 90.3755 136.202 90.2468C135.48 89.7579 134.605 89.5777 133.781 89.7321C133.163 89.8351 132.545 90.1439 132.055 90.6071C132.055 90.6071 132.055 90.6328 132.03 90.6328C131.875 90.7872 131.746 90.9416 131.618 91.1217C131.592 91.1475 131.592 91.1732 131.566 91.1989C131.463 91.3533 131.36 91.5077 131.309 91.6879V91.7136C131.154 92.0996 131.051 92.5113 131.051 92.9488V92.9745V93.0003V93.026V93.0517V93.0775V93.1032V93.1289V93.1547V93.1804V93.2061V93.2319V93.2576V93.2833V93.3091V93.3348V93.3605V93.3863V93.412V93.4377V93.4635V93.4892V93.5149V93.5407V93.5664V93.5921V93.6179V93.6436V93.6693V93.6951V93.7208V93.7465V93.7723V93.798V93.8237V93.8495V93.8752V93.9009V93.9267V93.9524V93.9781V94.0039V94.0296V94.0553V94.0811V94.1068V94.1325V94.1583V94.184V94.2097V94.2355V94.2612V94.2869C130.922 94.2097 130.768 94.1583 130.639 94.1068C130.613 94.1068 130.588 94.0811 130.562 94.0811C130.433 94.0296 130.279 94.0039 130.15 93.9781C130.124 93.9781 130.098 93.9781 130.047 93.9781C129.789 93.9524 129.532 93.9524 129.274 93.9781C129.223 93.9781 129.171 93.9781 129.12 93.9781C129.042 94.0039 128.939 94.0039 128.862 94.0296C128.759 94.0553 128.656 94.0811 128.553 94.1068C128.476 94.1325 128.399 94.1583 128.321 94.184C128.193 94.2355 128.09 94.2869 127.987 94.3641C127.935 94.3899 127.884 94.4156 127.806 94.4671C127.652 94.57 127.472 94.6987 127.343 94.8531C127.343 94.8531 127.343 94.8788 127.317 94.8788C127.163 95.0332 127.008 95.1876 126.905 95.3677C126.879 95.3935 126.879 95.4192 126.854 95.4449C126.751 95.5993 126.648 95.7795 126.596 95.9339V95.9596C126.442 96.3456 126.339 96.7573 126.339 97.1948V97.2205V97.2463V97.272V97.2977V97.3235V97.3492V97.3749V97.4007V97.4264V97.4521V97.4779V97.5036V97.5293V97.5551V97.5808V97.6065V97.6323V97.658V97.6837V97.7095V97.7352V97.7609V97.7867V97.8124V97.8381V97.8639V97.8896V97.9153V97.9411V97.9668V97.9925V98.0183V98.044V98.0697V98.0955V98.1212V98.1469V98.1727V98.1984V98.2241V98.2499V98.2756V98.3013V98.3271V98.3528V98.3785V98.4043V98.43V98.4557V98.4815V98.5072V98.5329C126.21 98.4557 126.055 98.4043 125.927 98.3528C125.901 98.3528 125.875 98.3271 125.849 98.3271C125.721 98.2756 125.566 98.2499 125.437 98.2241C125.411 98.2241 125.386 98.2241 125.36 98.2241C125.102 98.1984 124.845 98.1984 124.587 98.2241C124.536 98.2241 124.484 98.2241 124.433 98.2241C124.356 98.2499 124.253 98.2499 124.175 98.2756C124.072 98.3013 123.969 98.3271 123.866 98.3528C123.789 98.3785 123.712 98.4043 123.635 98.43C123.506 98.4815 123.403 98.5329 123.3 98.6101C123.248 98.6359 123.197 98.6616 123.12 98.7131C122.965 98.816 122.785 98.9447 122.656 99.0991C122.656 99.0991 122.656 99.1248 122.63 99.1248C122.476 99.2792 122.347 99.4336 122.218 99.6137C122.192 99.6395 122.192 99.6652 122.167 99.6909C122.064 99.8453 121.961 99.9997 121.909 100.18V100.206C121.755 100.592 121.652 101.003 121.652 101.441V101.467V101.492V101.518V101.544V101.569V101.595V101.621V101.647V101.672V101.698V101.724V101.75V101.775V101.801V101.827V101.853V101.878V101.904V101.93V101.955V101.981V102.007V102.033V102.058V102.084V102.11V102.136V102.161V102.187V102.213V102.239V102.264V102.29V102.316V102.341V102.367V102.393V102.419V102.444V102.47V102.496V102.522V102.547V102.573V102.599V102.625V102.65V102.676V102.702V102.727V102.753V102.779C121.523 102.702 121.368 102.65 121.24 102.599C121.214 102.599 121.188 102.573 121.162 102.573C121.034 102.522 120.879 102.496 120.75 102.47C120.725 102.47 120.699 102.47 120.673 102.47C120.416 102.444 120.158 102.444 119.901 102.47C119.849 102.47 119.798 102.47 119.746 102.47C119.669 102.496 119.566 102.496 119.489 102.522C119.386 102.547 119.283 102.573 119.18 102.599C119.102 102.625 119.025 102.65 118.948 102.676C118.819 102.727 118.716 102.779 118.613 102.856C118.561 102.882 118.51 102.908 118.433 102.959C118.278 103.062 118.098 103.191 117.969 103.345C117.969 103.345 117.969 103.371 117.943 103.371C117.789 103.525 117.66 103.68 117.531 103.86C117.506 103.885 117.506 103.911 117.48 103.937C117.377 104.091 117.274 104.246 117.222 104.426V104.452C117.068 104.838 116.965 105.249 116.965 105.687V105.713V105.738V105.764V105.79V105.815V105.841V105.867V105.893V105.918V105.944V105.97V105.996V106.021V106.047V106.073V106.099V106.124V106.15V106.176V106.201V106.227V106.253V106.279V106.304V106.33V106.356V106.382V106.407V106.433V106.459V106.485V106.51V106.536V106.562V106.587V106.613V106.639V106.665V106.69V106.716V106.742V106.768V106.793V106.819V106.845V106.871V106.896V106.922V106.948V106.973V106.999V107.025V107.051V107.076V107.102V107.128V107.154V107.179V107.205V107.231V107.257V107.282V107.308V107.334V107.359V107.385V107.411V107.437V107.462V107.488V107.514V107.54V107.565V107.591V107.617V107.643V107.668V107.694V107.72V107.745V107.771V107.797V107.823V107.848V107.874V107.9V107.926V107.951V107.977V108.003V108.029V108.054V108.08V108.106V108.131V108.157V108.183V108.209V108.234V108.26C116.939 109.109 117.248 109.959 117.892 110.628L120.184 112.995L135.171 128.487L139.91 123.906L144.519 120.947L149.258 116.366C150.236 115.414 154.279 111.219 154.279 111.219C154.279 111.219 152.399 109.392 152.193 108.929C151.962 108.415 152.889 109.547 152.734 109.006Z" fill="#B9B9B9"/>
<path d="M153.455 107.385L138.468 91.868L136.176 89.5005C134.914 88.1881 132.828 88.1624 131.515 89.4233C130.845 90.0667 130.51 90.9159 130.51 91.7393V91.7651V91.7908V91.8165V91.8423V91.868V91.8937V91.9195V91.9452V91.9709V91.9967V92.0224V92.0481V92.0739V92.0996V92.1253V92.1511V92.1768V92.2025V92.2283V92.254V92.2797V92.3055V92.3312V92.3569V92.3827V92.4084V92.4341V92.4599V92.4856V92.5113V92.5371V92.5628V92.5885V92.6143V92.64V92.6657V92.6915V92.7172V92.7429V92.7687V92.7944V92.8201V92.8459V92.8716V92.8973V92.9231V92.9488V92.9745V93.0003V93.026V93.0517V93.0775C129.3 92.4856 127.807 92.6657 126.776 93.6436C126.107 94.2869 125.772 95.1361 125.772 95.9596V95.9853V96.0111V96.0368V96.0625V96.0883V96.114V96.1397V96.1655V96.1912V96.2169V96.2427V96.2684V96.2941V96.3199V96.3456V96.3713V96.3971V96.4228V96.4485V96.4743V96.5V96.5257V96.5515V96.5772V96.6029V96.6287V96.6544V96.6801V96.7059V96.7316V96.7573V96.7831V96.8088V96.8345V96.8603V96.886V96.9117V96.9375V96.9632V96.9889V97.0147V97.0404V97.0661V97.0919V97.1176V97.1433V97.1691V97.1948V97.2205V97.2463V97.272V97.2977C124.562 96.7059 123.068 96.886 122.038 97.8639C121.369 98.5072 121.034 99.3564 121.034 100.206V100.231V100.257V100.283V100.309V100.334V100.36V100.386V100.411V100.437V100.463V100.489V100.514V100.54V100.566V100.592V100.617V100.643V100.669V100.695V100.72V100.746V100.772V100.797V100.823V100.849V100.875V100.9V100.926V100.952V100.978V101.003V101.029V101.055V101.081V101.106V101.132V101.158V101.183V101.209V101.235V101.261V101.286V101.312V101.338V101.364V101.389V101.415V101.441V101.467V101.492V101.518V101.544C119.823 100.952 118.33 101.132 117.3 102.11C116.63 102.753 116.295 103.602 116.295 104.452V104.477V104.503V104.529V104.555V104.58V104.606V104.632V104.657V104.683V104.709V104.735V104.76V104.786V104.812V104.838V104.863V104.889V104.915V104.941V104.966V104.992V105.018V105.043V105.069V105.095V105.121V105.146V105.172V105.198V105.224V105.249V105.275V105.301V105.327V105.352V105.378V105.404V105.429V105.455V105.481V105.507V105.532V105.558V105.584V105.61V105.635V105.661V105.687V105.713V105.738V105.764V105.79V105.815V105.841V105.867V105.893V105.918V105.944V105.97V105.996V106.021V106.047V106.073V106.099V106.124V106.15V106.176V106.201V106.227V106.253V106.279V106.304V106.33V106.356V106.382V106.407V106.433V106.459V106.485V106.51V106.536V106.562V106.587V106.613V106.639V106.665V106.69V106.716V106.742V106.768V106.793V106.819V106.845V106.871V106.896V106.922V106.948V106.973V106.999V107.025C116.27 107.874 116.579 108.723 117.223 109.392L119.514 111.76L134.502 127.251L139.24 122.671L143.979 118.09L148.717 113.51L153.455 108.929L153.43 108.903L153.455 108.878L153.43 108.852L153.455 108.826L153.43 108.801L153.455 108.775L153.43 108.749L153.455 108.723L153.43 108.698L153.455 108.672L153.43 108.646L153.455 108.62L153.43 108.595L153.455 108.569L153.43 108.543L153.455 108.517L153.43 108.492L153.455 108.466L153.43 108.44L153.455 108.415L153.43 108.389L153.455 108.363L153.43 108.337L153.455 108.312L153.43 108.286L153.455 108.26L153.43 108.234L153.455 108.209L153.43 108.183L153.455 108.157L153.43 108.131L153.455 108.106L153.43 108.08L153.455 108.054L153.43 108.029L153.455 108.003L153.43 107.977L153.455 107.951L153.43 107.926L153.455 107.9L153.43 107.874L153.455 107.848L153.43 107.823L153.455 107.797L153.43 107.771L153.455 107.745L153.43 107.72L153.455 107.694L153.43 107.668L153.455 107.643L153.43 107.617L153.455 107.591L153.43 107.565L153.455 107.54L153.43 107.514L153.455 107.488L153.43 107.462L153.455 107.437L153.43 107.411L153.455 107.385L153.43 107.359L153.455 107.334L153.43 107.308L153.455 107.282L153.43 107.257L153.455 107.231L153.43 107.205L153.455 107.179L153.43 107.154L153.455 107.128L153.43 107.102L153.455 107.076L153.43 107.051L153.455 107.025L153.43 106.999L153.455 106.973L153.43 106.948L153.455 106.922L153.43 106.896L153.455 106.871L153.43 106.845L153.455 106.819L153.43 106.793L153.455 106.768L153.43 106.742L153.455 106.716L153.43 106.69L153.455 106.665L153.43 106.639L153.455 106.613L153.43 106.587L153.455 106.562L153.43 106.536L153.455 106.51L153.43 106.485L153.455 106.459L153.43 106.433L153.455 106.407L153.43 106.382L153.455 106.356L153.43 106.33L153.455 106.304L153.43 106.279L153.455 106.253L153.43 106.227L153.455 106.201L153.43 106.176L153.455 106.15L153.43 106.124L153.455 106.099L153.43 106.073L153.455 106.047L153.43 106.021L153.455 105.996L153.43 105.97L153.455 105.944L153.43 105.918L153.455 105.893L153.43 105.867L153.455 105.841L153.43 105.815L153.455 105.79L153.43 105.764L153.455 105.738L153.43 105.713L153.455 105.687L153.43 105.661L153.455 105.635L153.43 105.61L153.455 105.584L153.43 105.558L153.455 105.532L153.43 105.507L153.455 105.481L153.43 105.455L153.455 105.429L153.43 105.404L153.455 105.378L153.43 105.352L153.455 105.327L153.43 105.301L153.455 105.275L153.43 105.249L153.455 105.224L153.43 105.198L153.455 105.172L153.43 105.146L153.455 105.121L153.43 105.095L153.455 105.069L153.43 105.043L153.455 105.018L153.43 104.992L153.455 104.966L153.43 104.941L153.455 104.915L153.43 104.889L153.481 108.08H153.455L153.481 108.054L153.455 108.029L153.481 108.003L153.455 107.977L153.481 107.951L153.455 107.926L153.481 107.9L153.455 107.874L153.481 107.848L153.455 107.823L153.481 107.797L153.455 107.771L153.481 107.745L153.455 107.72L153.481 107.694L153.455 107.668L153.481 107.643L153.455 107.617L153.481 107.591L153.455 107.565L153.481 107.54L153.455 107.514L153.481 107.488L153.455 107.462L153.481 107.437L153.455 107.411L153.481 107.385L153.455 107.359L153.481 107.334L153.455 107.308L153.481 107.282L153.455 107.257L153.481 107.231L153.455 107.205L153.481 107.179L153.455 107.154L153.481 107.128L153.455 107.102L153.481 107.076L153.455 107.051V107.385Z" fill="#B9B9B9"/>
<path d="M134.528 125.682V128.924L153.455 110.602L153.481 107.385L134.528 125.682Z" fill="#858994"/>
<path d="M153.481 107.385L149.695 111.039L149.206 111.503L148.743 111.966L145.009 115.568L144.519 116.032L144.004 116.521L139.987 120.406L139.498 120.895L139.266 121.101L134.528 125.682L119.54 110.19L124.278 105.61L124.51 105.352L128.785 101.261L129.017 101.029L129.274 100.772L133.678 96.5257L133.755 96.4485L134.167 96.0625L138.493 91.868L153.481 107.385Z" fill="#F7F7F7"/>
<path d="M117.326 103.165C116.012 104.426 115.986 106.51 117.248 107.823L119.54 110.19L124.279 105.61L121.987 103.242C120.725 101.93 118.639 101.904 117.326 103.165Z" fill="#F96692"/>
<path d="M122.064 98.5844C120.75 99.8453 120.725 101.93 121.987 103.242L124.278 105.61L129.017 101.029L126.725 98.6616C125.463 97.3492 123.377 97.3235 122.064 98.5844Z" fill="#9FC04C"/>
<path d="M126.802 94.0039C125.489 95.2648 125.463 97.3492 126.725 98.6616L129.017 101.029L133.755 96.4485L131.463 94.0811C130.202 92.7944 128.116 92.7429 126.802 94.0039Z" fill="#E3E657"/>
<path d="M131.541 89.4234C130.227 90.6843 130.201 92.7687 131.463 94.0811L133.755 96.4486L138.494 91.868L136.202 89.5005C134.94 88.2139 132.854 88.1624 131.541 89.4234Z" fill="#6DBFAE"/>
<g opacity="0.2">
<path opacity="0.2" d="M124.51 105.352L139.987 120.406L139.498 120.895L124.047 105.841L124.279 105.61L124.51 105.352Z" fill="#B9B9B9"/>
<path opacity="0.2" d="M129.274 100.772L145.009 115.568L144.52 116.032L128.785 101.261L129.017 101.029L129.274 100.772Z" fill="#B9B9B9"/>
<path opacity="0.2" d="M149.696 111.039L149.206 111.503L133.678 96.5257L133.755 96.4485L134.167 96.0625L149.696 111.039Z" fill="#B9B9B9"/>
</g>
<path d="M358.07 107.453C369.243 101.152 373.188 86.994 366.883 75.8296C360.578 64.6652 346.409 60.7225 335.237 67.0232C324.064 73.3239 320.119 87.4821 326.424 98.6465C332.729 109.811 346.898 113.754 358.07 107.453Z" fill="#9C5E78"/>
<path d="M356.629 104.863C366.374 99.3614 369.812 87.0065 364.306 77.2677C358.8 67.529 346.436 64.0943 336.69 69.5962C326.944 75.0981 323.507 87.453 329.013 97.1918C334.519 106.93 346.883 110.365 356.629 104.863Z" fill="#4E2F3C"/>
<path d="M346.646 84.5854C346.646 83.9936 352.646 58.1831 355.659 58.3889C358.672 58.5948 348.062 84.9972 348.062 84.9972L346.646 84.5854Z" fill="#66A95D"/>
<path d="M343.839 86.0008C343.839 86.0008 333.436 64.3848 331.221 63.7929C329.006 63.2011 341.831 87.0044 341.831 87.0044L343.839 86.0008Z" fill="#66A95D"/>
<path d="M342.629 84.7913C342.629 84.7913 322.414 76.4023 317.598 78.5896C312.782 80.7769 325.607 84.5855 342.423 86.1809C344.431 86.3868 342.629 84.7913 342.629 84.7913Z" fill="#66A95D"/>
<path d="M344.251 88.5999C343.453 89.1917 324.629 105.198 327.847 112.197C331.041 119.197 345.256 89.6035 345.256 89.6035L344.251 88.5999Z" fill="#457340"/>
<path d="M345.23 89.6035C345.436 90.4012 352.234 116.598 358.029 117.215C363.823 117.833 346.827 89.0116 346.827 89.0116L345.23 89.6035Z" fill="#66A95D"/>
<path d="M348.243 87.9822C348.243 87.9822 369.668 102.779 372.269 100.18C374.87 97.5808 348.449 86.1809 348.449 86.1809L348.243 87.9822Z" fill="#66A95D"/>
<path d="M354.655 85.5891C354.655 85.5891 377.085 83.7877 379.068 87.8021C381.077 91.7908 354.243 87.0044 354.243 87.0044L354.655 85.5891Z" fill="#66A95D"/>
<path d="M348.835 83.7877C348.835 83.7877 367.454 62.9952 372.656 65.5943C377.858 68.1933 350.046 85.2031 350.046 85.2031L348.835 83.7877Z" fill="#66A95D"/>
<path d="M345.23 84.5855C345.23 84.5855 339.616 51.3895 347.419 53.3709C355.222 55.3781 346.621 84.5855 346.621 84.5855H345.23Z" fill="#66A95D"/>
<path d="M343.839 83.9936C343.839 83.9936 323.032 63.7929 319.014 67.6015C315.023 71.41 333.229 84.1995 343.839 86.0008C345.848 86.3868 343.839 83.9936 343.839 83.9936Z" fill="#4E8248"/>
<path d="M342.449 86.1809C342.449 86.1809 315.023 93.1804 315.023 97.1948C315.023 101.183 329.83 96.9889 335.444 94.184C341.058 91.379 344.251 87.3904 344.251 87.3904L342.449 86.1809Z" fill="#66A95D"/>
<path d="M344.251 87.3904C344.251 87.3904 329.83 118.399 340.054 119.583C350.277 120.767 345.256 88.1881 345.256 88.1881L344.251 87.3904Z" fill="#66A95D"/>
<path d="M346.054 89.1917C346.054 89.1917 361.659 112.995 366.063 110.396C370.467 107.797 348.243 87.9823 348.243 87.9823L346.054 89.1917Z" fill="#457340"/>
<path d="M346.234 86.1809C346.234 86.1809 365.445 70.7667 369.849 77.1743C374.278 83.5819 354.449 88.394 346.234 86.1809Z" fill="#4E8248"/>
<path d="M346.054 86.3868C346.054 86.3868 351.05 67.5757 356.457 71.5901C361.865 75.5788 346.054 86.3868 346.054 86.3868Z" fill="#4E8248"/>
<path d="M346.054 86.3868C346.054 86.3868 347.058 66.392 339.642 68.3735C332.225 70.3807 346.054 86.3868 346.054 86.3868Z" fill="#4E8248"/>
<path d="M346.054 86.3868C346.054 86.3868 327.049 82.3981 327.641 87.9823C328.234 93.5921 346.054 86.3868 346.054 86.3868Z" fill="#4E8248"/>
<path d="M346.054 86.3868C346.054 86.3868 327.642 95.3935 332.637 99.9997C337.633 104.606 346.054 86.3868 346.054 86.3868Z" fill="#4E8248"/>
<path d="M346.054 86.3868C346.054 86.3868 343.247 103.602 348.269 104.786C353.29 105.97 346.054 86.3868 346.054 86.3868Z" fill="#4E8248"/>
<path d="M346.054 86.3868C346.054 86.3868 354.372 99.974 357.076 94.184C360.861 86.0008 346.054 86.3868 346.054 86.3868Z" fill="#4E8248"/>
<g opacity="0.4">
<path opacity="0.4" d="M392.87 216.186L382.776 148.173C382.492 146.191 380.638 144.827 378.655 145.11L324.731 153.088L335.882 228.28L389.806 220.303C391.789 220.02 393.154 218.167 392.87 216.186Z" fill="#A3A3A3"/>
</g>
<path d="M387.772 219.454L333.847 227.431L322.697 152.238L376.621 144.261C378.604 143.978 380.458 145.342 380.742 147.323L390.836 215.337C391.12 217.318 389.755 219.171 387.772 219.454Z" fill="#AB475A"/>
<path d="M372.915 181.279L340.563 186.07L343.092 203.125L375.444 198.334L372.915 181.279Z" fill="#CE6E80"/>
<path d="M370.581 185.751L343.859 189.708L343.957 190.37L370.679 186.413L370.581 185.751Z" fill="#BBDAE3"/>
<path d="M371.201 189.919L344.479 193.876L344.577 194.538L371.299 190.581L371.201 189.919Z" fill="#BBDAE3"/>
<path d="M371.818 194.062L345.096 198.019L345.194 198.681L371.916 194.724L371.818 194.062Z" fill="#BBDAE3"/>
<g opacity="0.4">
<path opacity="0.4" d="M377.059 264.461L354.449 244.518C353.187 243.412 351.256 243.515 350.148 244.775L308.018 292.485C306.911 293.746 307.014 295.676 308.276 296.783L330.886 316.726C332.148 317.832 334.079 317.729 335.186 316.469L377.317 268.759C378.424 267.498 378.295 265.568 377.059 264.461Z" fill="#A3A3A3"/>
</g>
<path d="M330.371 314.513L307.761 294.569C306.499 293.463 306.37 291.533 307.503 290.272L349.633 242.562C350.741 241.301 352.672 241.173 353.934 242.305L376.544 262.248C377.806 263.355 377.935 265.285 376.802 266.546L334.671 314.255C333.538 315.491 331.633 315.619 330.371 314.513Z" fill="#2C3352"/>
<path d="M333.77 313.355C333.075 314.127 331.89 314.204 331.118 313.535L308.636 293.694C307.864 293 307.787 291.816 308.482 291.044L350.509 243.463C351.204 242.691 352.389 242.614 353.162 243.283L355.531 245.393C355.943 245.753 356.071 246.319 355.865 246.834L355.505 247.761C355.299 248.275 355.453 248.841 355.865 249.202L370.493 261.862C370.853 262.171 371.342 262.274 371.78 262.094L372.939 261.657C373.377 261.476 373.892 261.579 374.252 261.888L375.643 263.098C376.415 263.792 376.493 264.976 375.797 265.748L333.77 313.355Z" fill="#4B5774"/>
<path d="M350.123 253.242C349.505 253.937 348.938 254.039 348.397 253.576C348.294 253.499 348.243 253.422 348.191 253.37L348.346 253.19C348.397 253.267 348.449 253.345 348.526 253.422C348.732 253.602 348.912 253.653 349.118 253.628C349.325 253.602 349.531 253.448 349.762 253.216H349.737C349.634 253.242 349.531 253.242 349.428 253.216C349.324 253.19 349.221 253.139 349.118 253.062C348.964 252.933 348.887 252.779 348.861 252.598C348.861 252.418 348.912 252.264 349.067 252.084C349.221 251.904 349.402 251.801 349.608 251.775C349.814 251.749 349.994 251.826 350.149 251.981C350.277 252.084 350.355 252.212 350.38 252.341C350.406 252.47 350.406 252.624 350.355 252.804C350.355 252.933 350.277 253.087 350.123 253.242ZM350.071 252.109C349.968 252.007 349.84 251.955 349.711 251.981C349.582 252.007 349.453 252.084 349.35 252.212C349.247 252.315 349.196 252.444 349.196 252.573C349.196 252.676 349.247 252.804 349.376 252.907C349.453 252.959 349.53 253.01 349.608 253.036C349.685 253.062 349.788 253.062 349.865 253.036C349.943 253.01 350.02 252.984 350.071 252.933C350.149 252.856 350.2 252.753 350.226 252.65C350.252 252.547 350.252 252.444 350.226 252.367C350.2 252.264 350.149 252.187 350.071 252.109Z" fill="#E0E0E0"/>
<path d="M349.968 253.885L350.123 253.705L350.715 254.22L350.561 254.4L349.968 253.885Z" fill="#E0E0E0"/>
<path d="M352.338 255.197C351.72 255.892 351.153 255.995 350.612 255.532C350.509 255.455 350.458 255.378 350.406 255.3L350.561 255.12C350.612 255.197 350.664 255.275 350.767 255.352C350.973 255.532 351.153 255.583 351.359 255.558C351.565 255.532 351.771 255.378 352.003 255.146L351.977 255.12C351.874 255.146 351.771 255.146 351.668 255.12C351.565 255.095 351.462 255.043 351.359 254.94C351.205 254.811 351.127 254.657 351.102 254.477C351.102 254.297 351.153 254.142 351.308 253.962C351.462 253.782 351.642 253.679 351.848 253.653C352.054 253.628 352.235 253.705 352.389 253.859C352.518 253.962 352.595 254.091 352.621 254.22C352.647 254.348 352.647 254.503 352.595 254.657C352.569 254.863 352.466 255.043 352.338 255.197ZM352.286 254.065C352.183 253.962 352.054 253.911 351.926 253.937C351.797 253.962 351.668 254.039 351.565 254.168C351.462 254.271 351.411 254.4 351.411 254.528C351.411 254.657 351.462 254.76 351.591 254.863C351.668 254.914 351.745 254.966 351.823 254.992C351.926 255.017 352.003 255.017 352.08 254.992C352.157 254.966 352.235 254.94 352.286 254.889C352.363 254.812 352.415 254.709 352.441 254.606C352.466 254.503 352.466 254.4 352.466 254.323C352.415 254.22 352.363 254.117 352.286 254.065Z" fill="#E0E0E0"/>
<path d="M353.754 256.433C353.136 257.127 352.569 257.23 352.028 256.767C351.925 256.69 351.874 256.613 351.822 256.561L351.977 256.381C352.028 256.458 352.08 256.536 352.183 256.613C352.389 256.793 352.569 256.844 352.775 256.819C352.981 256.793 353.187 256.639 353.419 256.407H353.393C353.29 256.433 353.187 256.433 353.084 256.407C352.981 256.381 352.878 256.33 352.775 256.253C352.621 256.124 352.543 255.969 352.518 255.789C352.518 255.609 352.569 255.455 352.724 255.275C352.878 255.094 353.058 254.992 353.264 254.966C353.47 254.94 353.651 255.017 353.805 255.172C353.934 255.275 354.011 255.403 354.037 255.532C354.063 255.661 354.063 255.815 354.011 255.969C353.985 256.124 353.882 256.278 353.754 256.433ZM353.702 255.3C353.599 255.197 353.47 255.146 353.342 255.172C353.213 255.197 353.084 255.275 352.981 255.403C352.878 255.506 352.827 255.635 352.827 255.764C352.827 255.892 352.878 255.995 353.007 256.098C353.084 256.15 353.161 256.201 353.239 256.227C353.342 256.253 353.419 256.253 353.496 256.227C353.573 256.201 353.651 256.175 353.702 256.124C353.779 256.047 353.831 255.944 353.857 255.841C353.882 255.738 353.882 255.635 353.882 255.558C353.831 255.455 353.779 255.378 353.702 255.3Z" fill="#E0E0E0"/>
<path d="M355.17 257.694C354.552 258.388 353.986 258.491 353.445 258.028C353.342 257.951 353.29 257.874 353.239 257.822L353.393 257.642C353.445 257.719 353.496 257.797 353.599 257.874C353.805 258.054 353.986 258.105 354.192 258.08C354.398 258.054 354.604 257.899 354.835 257.668H354.81C354.707 257.694 354.604 257.694 354.501 257.668C354.398 257.642 354.295 257.591 354.192 257.513C354.037 257.385 353.96 257.23 353.934 257.05C353.934 256.87 353.986 256.716 354.14 256.536C354.295 256.355 354.475 256.253 354.681 256.227C354.887 256.201 355.067 256.278 355.222 256.433C355.35 256.536 355.428 256.664 355.453 256.793C355.479 256.922 355.479 257.076 355.428 257.256C355.402 257.359 355.299 257.513 355.17 257.694ZM355.119 256.561C355.016 256.458 354.887 256.407 354.758 256.433C354.629 256.458 354.501 256.536 354.398 256.664C354.295 256.767 354.243 256.896 354.243 257.025C354.243 257.127 354.295 257.256 354.423 257.359C354.501 257.411 354.578 257.462 354.655 257.488C354.732 257.513 354.835 257.513 354.913 257.488C354.99 257.462 355.067 257.436 355.119 257.385C355.196 257.308 355.247 257.205 355.273 257.102C355.299 256.999 355.299 256.896 355.273 256.819C355.222 256.716 355.17 256.613 355.119 256.561Z" fill="#E0E0E0"/>
<path d="M355.016 258.337L355.17 258.157L355.762 258.671L355.608 258.852L355.016 258.337Z" fill="#E0E0E0"/>
<path d="M357.385 259.649C356.767 260.344 356.2 260.447 355.66 259.984C355.557 259.907 355.505 259.829 355.454 259.752L355.608 259.572C355.66 259.649 355.711 259.727 355.788 259.804C355.994 259.984 356.175 260.035 356.381 260.01C356.587 259.984 356.793 259.829 357.024 259.598L356.999 259.572C356.896 259.598 356.793 259.598 356.69 259.572C356.587 259.546 356.484 259.495 356.381 259.392C356.226 259.263 356.149 259.109 356.123 258.929C356.123 258.749 356.175 258.594 356.329 258.414C356.484 258.234 356.664 258.131 356.87 258.105C357.076 258.08 357.256 258.157 357.411 258.311C357.54 258.414 357.617 258.543 357.643 258.671C357.668 258.8 357.668 258.955 357.617 259.109C357.617 259.315 357.514 259.469 357.385 259.649ZM357.308 258.517C357.205 258.414 357.076 258.363 356.947 258.388C356.818 258.414 356.69 258.491 356.587 258.62C356.484 258.723 356.432 258.852 356.432 258.98C356.432 259.109 356.484 259.212 356.612 259.315C356.69 259.366 356.767 259.418 356.844 259.443C356.947 259.469 357.024 259.469 357.102 259.443C357.179 259.418 357.256 259.392 357.308 259.341C357.385 259.263 357.437 259.16 357.462 259.057C357.488 258.955 357.488 258.852 357.462 258.774C357.437 258.646 357.385 258.569 357.308 258.517Z" fill="#E0E0E0"/>
<path d="M358.801 260.885C358.183 261.579 357.617 261.682 357.076 261.219C356.973 261.142 356.922 261.065 356.87 260.987L357.025 260.807C357.076 260.885 357.128 260.962 357.205 261.039C357.411 261.219 357.591 261.271 357.797 261.245C358.003 261.219 358.209 261.065 358.441 260.833L358.415 260.807C358.312 260.833 358.209 260.833 358.106 260.807C358.003 260.782 357.9 260.73 357.797 260.627C357.643 260.499 357.565 260.344 357.54 260.164C357.54 259.984 357.591 259.829 357.746 259.649C357.9 259.469 358.08 259.366 358.286 259.341C358.492 259.315 358.673 259.392 358.827 259.546C358.956 259.649 359.033 259.778 359.059 259.907C359.085 260.035 359.085 260.19 359.033 260.344C359.033 260.576 358.93 260.73 358.801 260.885ZM358.724 259.752C358.621 259.649 358.492 259.598 358.364 259.624C358.235 259.649 358.106 259.727 358.003 259.855C357.9 259.958 357.849 260.087 357.849 260.215C357.849 260.344 357.9 260.447 358.029 260.55C358.106 260.601 358.183 260.653 358.261 260.679C358.364 260.704 358.441 260.704 358.518 260.679C358.595 260.653 358.673 260.627 358.724 260.576C358.801 260.499 358.853 260.396 358.879 260.293C358.904 260.19 358.904 260.087 358.879 260.01C358.853 259.907 358.801 259.829 358.724 259.752Z" fill="#E0E0E0"/>
<path d="M360.218 262.146C359.599 262.84 359.033 262.943 358.492 262.48C358.389 262.403 358.338 262.326 358.286 262.274L358.441 262.094C358.492 262.171 358.544 262.248 358.647 262.326C358.853 262.506 359.033 262.557 359.239 262.531C359.445 262.506 359.651 262.351 359.883 262.12H359.857C359.754 262.145 359.651 262.145 359.548 262.12C359.445 262.094 359.342 262.043 359.239 261.965C359.084 261.837 359.007 261.682 358.981 261.502C358.981 261.322 359.033 261.168 359.187 260.987C359.342 260.807 359.522 260.704 359.728 260.679C359.934 260.653 360.114 260.73 360.269 260.885C360.398 260.987 360.475 261.116 360.501 261.245C360.527 261.373 360.527 261.528 360.475 261.682C360.449 261.811 360.346 261.965 360.218 262.146ZM360.14 261.013C360.012 260.91 359.909 260.859 359.78 260.885C359.651 260.91 359.522 260.987 359.419 261.116C359.316 261.219 359.265 261.348 359.265 261.476C359.265 261.579 359.316 261.708 359.445 261.811C359.522 261.888 359.599 261.914 359.677 261.94C359.78 261.965 359.857 261.965 359.934 261.94C360.012 261.914 360.089 261.888 360.14 261.837C360.218 261.759 360.269 261.657 360.295 261.554C360.321 261.451 360.321 261.348 360.321 261.271C360.269 261.142 360.218 261.065 360.14 261.013Z" fill="#E0E0E0"/>
<path d="M360.063 262.789L360.217 262.609L360.81 263.123L360.655 263.303L360.063 262.789Z" fill="#E0E0E0"/>
<path d="M362.406 264.075C361.788 264.77 361.222 264.873 360.681 264.41C360.578 264.333 360.527 264.256 360.475 264.178L360.63 263.998C360.681 264.075 360.733 264.153 360.836 264.23C361.042 264.41 361.222 264.461 361.428 264.436C361.634 264.41 361.84 264.281 362.072 264.024H362.046C361.943 264.05 361.84 264.05 361.737 264.024C361.634 263.998 361.531 263.947 361.428 263.87C361.273 263.741 361.196 263.587 361.17 263.406C361.17 263.226 361.222 263.072 361.376 262.892C361.531 262.712 361.711 262.609 361.917 262.583C362.123 262.557 362.303 262.634 362.458 262.789C362.587 262.892 362.664 263.02 362.69 263.149C362.715 263.278 362.716 263.432 362.664 263.587C362.664 263.767 362.561 263.921 362.406 264.075ZM362.355 262.969C362.252 262.866 362.123 262.815 361.994 262.84C361.866 262.866 361.737 262.943 361.634 263.072C361.531 263.175 361.479 263.303 361.479 263.432C361.479 263.535 361.531 263.664 361.66 263.767C361.737 263.818 361.814 263.87 361.891 263.895C361.994 263.921 362.072 263.921 362.149 263.895C362.226 263.87 362.303 263.844 362.355 263.792C362.432 263.715 362.484 263.612 362.51 263.509C362.535 263.406 362.535 263.303 362.51 263.226C362.484 263.098 362.432 263.02 362.355 262.969Z" fill="#E0E0E0"/>
<path d="M363.823 265.336C363.205 266.031 362.638 266.134 362.098 265.671C361.995 265.594 361.943 265.517 361.892 265.439L362.046 265.259C362.098 265.336 362.149 265.414 362.226 265.491C362.432 265.671 362.613 265.722 362.819 265.697C363.025 265.671 363.231 265.517 363.462 265.285L363.437 265.259C363.334 265.285 363.231 265.285 363.128 265.259C363.025 265.233 362.922 265.182 362.819 265.105C362.664 264.976 362.587 264.822 362.561 264.642C362.561 264.461 362.613 264.307 362.767 264.127C362.922 263.947 363.102 263.844 363.308 263.818C363.514 263.792 363.694 263.87 363.849 264.024C363.977 264.127 364.055 264.256 364.081 264.384C364.106 264.513 364.106 264.667 364.055 264.822C364.081 265.002 363.978 265.182 363.823 265.336ZM363.771 264.204C363.668 264.101 363.54 264.05 363.411 264.076C363.282 264.101 363.153 264.178 363.05 264.307C362.947 264.41 362.896 264.539 362.896 264.667C362.896 264.796 362.947 264.899 363.076 265.002C363.153 265.053 363.231 265.105 363.308 265.131C363.385 265.156 363.488 265.156 363.565 265.131C363.643 265.105 363.72 265.079 363.771 265.028C363.849 264.95 363.9 264.847 363.926 264.745C363.952 264.642 363.952 264.539 363.926 264.461C363.9 264.359 363.849 264.281 363.771 264.204Z" fill="#E0E0E0"/>
<path d="M365.239 266.572C364.621 267.266 364.054 267.369 363.514 266.906C363.411 266.829 363.359 266.752 363.308 266.7L363.462 266.52C363.514 266.597 363.565 266.675 363.642 266.752C363.848 266.932 364.029 266.983 364.235 266.958C364.441 266.932 364.647 266.777 364.879 266.546H364.853C364.75 266.572 364.647 266.572 364.544 266.546C364.441 266.52 364.338 266.469 364.235 266.391C364.08 266.263 364.003 266.108 363.977 265.928C363.977 265.748 364.029 265.594 364.183 265.414C364.338 265.233 364.518 265.131 364.724 265.105C364.93 265.079 365.11 265.156 365.265 265.311C365.394 265.414 365.471 265.542 365.497 265.671C365.522 265.8 365.522 265.954 365.471 266.108C365.497 266.263 365.394 266.417 365.239 266.572ZM365.188 265.439C365.085 265.336 364.956 265.285 364.827 265.311C364.698 265.336 364.569 265.414 364.466 265.542C364.363 265.645 364.312 265.774 364.312 265.903C364.312 266.005 364.363 266.134 364.492 266.237C364.569 266.314 364.647 266.34 364.724 266.366C364.827 266.391 364.904 266.391 364.982 266.366C365.059 266.34 365.136 266.314 365.188 266.263C365.265 266.186 365.316 266.083 365.342 265.98C365.368 265.877 365.368 265.774 365.342 265.697C365.316 265.594 365.265 265.517 365.188 265.439Z" fill="#E0E0E0"/>
<path d="M366.655 267.833C366.037 268.527 365.471 268.63 364.93 268.167C364.827 268.09 364.776 268.013 364.724 267.961L364.879 267.781C364.93 267.858 364.982 267.935 365.059 268.013C365.265 268.193 365.445 268.244 365.651 268.219C365.857 268.193 366.063 268.038 366.295 267.807H366.269C366.166 267.833 366.063 267.833 365.96 267.807C365.857 267.781 365.754 267.73 365.651 267.652C365.497 267.524 365.419 267.369 365.394 267.189C365.394 267.009 365.445 266.855 365.6 266.675C365.754 266.494 365.934 266.391 366.14 266.366C366.346 266.34 366.527 266.417 366.681 266.572C366.81 266.675 366.887 266.803 366.913 266.932C366.939 267.061 366.939 267.215 366.887 267.369C366.913 267.498 366.81 267.678 366.655 267.833ZM366.604 266.7C366.501 266.597 366.372 266.546 366.243 266.572C366.115 266.597 365.986 266.675 365.883 266.803C365.78 266.906 365.728 267.035 365.728 267.163C365.728 267.266 365.78 267.395 365.909 267.498C365.986 267.575 366.063 267.601 366.14 267.627C366.243 267.652 366.321 267.652 366.398 267.627C366.475 267.601 366.552 267.575 366.604 267.524C366.681 267.447 366.733 267.344 366.758 267.241C366.784 267.138 366.784 267.035 366.758 266.958C366.733 266.855 366.681 266.777 366.604 266.7Z" fill="#E0E0E0"/>
<path d="M337.272 303.55C335.547 305.455 332.611 305.609 330.706 303.885C328.8 302.161 328.645 299.227 330.371 297.323C332.096 295.419 335.032 295.264 336.938 296.988C338.843 298.713 338.998 301.646 337.272 303.55Z" fill="#E55757"/>
<path d="M335.727 302.753C335.907 302.109 336.062 300.72 334.826 299.485C334.8 299.459 334.774 299.433 334.749 299.407C334.723 299.382 334.697 299.356 334.671 299.33V299.356C333.307 298.249 331.942 298.558 331.324 298.79C331.169 298.867 331.092 299.073 331.195 299.176L332.173 300.051C332.251 300.128 332.405 300.102 332.482 299.999L332.791 299.665C332.972 299.485 333.229 299.433 333.384 299.587L333.976 300.128L334.079 300.231L334.671 300.771C334.826 300.926 334.826 301.183 334.646 301.363L334.337 301.698C334.259 301.801 334.234 301.929 334.337 302.006L335.315 302.881C335.47 303.01 335.676 302.933 335.727 302.753Z" fill="#E0E0E0"/>
<path d="M325.478 292.923C323.753 294.827 320.817 294.981 318.911 293.257C317.006 291.533 316.851 288.599 318.576 286.695C320.302 284.791 323.237 284.636 325.143 286.361C327.049 288.085 327.203 291.018 325.478 292.923Z" fill="#9FC04C"/>
<path d="M325.066 289.088C324.577 288.625 323.418 287.853 321.744 288.419V288.393C321.718 288.419 321.692 288.419 321.641 288.445C321.615 288.445 321.564 288.471 321.538 288.471V288.496C319.941 289.217 319.581 290.555 319.529 291.224C319.504 291.404 319.684 291.559 319.813 291.507L321.049 291.018C321.152 290.967 321.203 290.838 321.152 290.735L320.997 290.323C320.894 290.092 320.997 289.835 321.177 289.757L321.924 289.474L322.079 289.423L322.826 289.14C323.032 289.063 323.263 289.191 323.341 289.423L323.495 289.835C323.547 289.963 323.675 290.015 323.778 289.989L325.014 289.5C325.195 289.423 325.195 289.217 325.066 289.088Z" fill="#E0E0E0"/>
<path d="M349.247 258.62L347.779 260.396L359.059 270.277L359.883 269.042L349.247 258.62Z" fill="#E0E0E0"/>
<path d="M350.02 284.045C346.672 288.11 340.646 288.702 336.577 285.357C332.509 282.012 331.916 275.99 335.264 271.924C338.612 267.858 344.638 267.266 348.707 270.612C352.775 273.957 353.368 279.979 350.02 284.045Z" fill="#E0E0E0"/>
<path d="M343.762 285.383C341.728 285.691 339.564 285.177 337.865 283.761C336.294 282.475 335.393 280.673 335.187 278.821C336.165 277.843 337.684 276.35 338.071 276.325C338.637 276.273 341.805 277.971 341.805 277.971L342.165 277.534C341.521 276.325 341.856 274.42 342.809 273.288C343.942 271.898 345.925 271.641 347.238 272.722C348.552 273.803 348.681 275.784 347.522 277.174C346.569 278.332 344.792 279.027 343.453 278.641L343.118 279.052C343.118 279.052 345.41 281.831 345.462 282.398C345.487 282.758 344.534 284.25 343.762 285.383Z" fill="#BDBDBD"/>
<g opacity="0.4">
<path opacity="0.4" d="M288.292 7.15387L161.748 23.3401L160.357 30.6227L171.945 119.428L296.971 103.088L300.164 99.8453L288.292 7.15387Z" fill="#858994"/>
</g>
<path d="M287.272 5.78037L160.73 21.9707L172.606 114.652L299.147 98.4613L287.272 5.78037Z" fill="#F7F7F7"/>
<path d="M287.659 35.71L284.747 36.0825L289.181 70.6943L292.093 70.3217L287.659 35.71Z" fill="#DCDBE5"/>
<path d="M210.748 25.8146L207.837 26.1881L211.68 56.2577L214.591 55.8842L210.748 25.8146Z" fill="#DCDBE5"/>
<path d="M205.09 26.5363L203.812 26.6997L207.665 56.768L208.942 56.6046L205.09 26.5363Z" fill="#DCDBE5"/>
<path d="M201.766 26.9502L200.489 27.1136L204.342 57.1819L205.619 57.0185L201.766 26.9502Z" fill="#DCDBE5"/>
<path d="M198.469 27.3608L197.191 27.5242L201.044 57.5925L202.321 57.4291L198.469 27.3608Z" fill="#DCDBE5"/>
<path d="M195.174 27.7969L193.897 27.9603L197.75 58.0287L199.027 57.8653L195.174 27.7969Z" fill="#DCDBE5"/>
<path d="M191.851 28.2106L190.574 28.374L194.427 58.4423L195.704 58.2789L191.851 28.2106Z" fill="#DCDBE5"/>
<path d="M188.556 28.647L187.279 28.8104L191.132 58.8787L192.409 58.7153L188.556 28.647Z" fill="#DCDBE5"/>
<path d="M185.233 29.0606L183.956 29.224L187.809 59.2923L189.086 59.1289L185.233 29.0606Z" fill="#DCDBE5"/>
<path d="M181.939 29.4967L180.662 29.6601L184.514 59.7284L185.791 59.565L181.939 29.4967Z" fill="#DCDBE5"/>
<path d="M178.616 29.9101L177.338 30.0735L181.191 60.1418L182.468 59.9784L178.616 29.9101Z" fill="#DCDBE5"/>
<path d="M175.321 30.3465L174.044 30.5099L177.897 60.5782L179.174 60.4148L175.321 30.3465Z" fill="#DCDBE5"/>
<path d="M172.023 30.7571L170.746 30.9205L174.599 60.9888L175.876 60.8254L172.023 30.7571Z" fill="#DCDBE5"/>
<path d="M168.7 31.171L167.423 31.3344L171.276 61.4027L172.553 61.2393L168.7 31.171Z" fill="#DCDBE5"/>
<path d="M215.744 64.8241L212.832 65.1976L216.675 95.2672L219.587 94.8937L215.744 64.8241Z" fill="#DCDBE5"/>
<path d="M210.086 65.5463L208.808 65.7097L212.661 95.7781L213.938 95.6147L210.086 65.5463Z" fill="#DCDBE5"/>
<path d="M206.791 65.9825L205.514 66.1459L209.367 96.2142L210.644 96.0508L206.791 65.9825Z" fill="#DCDBE5"/>
<path d="M203.461 66.4166L202.184 66.5799L206.033 96.6482L207.311 96.4849L203.461 66.4166Z" fill="#DCDBE5"/>
<path d="M200.174 66.8322L198.896 66.9956L202.749 97.064L204.026 96.9006L200.174 66.8322Z" fill="#DCDBE5"/>
<path d="M196.85 67.2461L195.573 67.4095L199.426 97.4778L200.703 97.3144L196.85 67.2461Z" fill="#DCDBE5"/>
<path d="M193.555 67.6822L192.278 67.8457L196.131 97.914L197.408 97.7506L193.555 67.6822Z" fill="#DCDBE5"/>
<path d="M190.226 68.1151L188.948 68.2783L192.798 98.3467L194.075 98.1834L190.226 68.1151Z" fill="#DCDBE5"/>
<path d="M186.935 68.5067L185.657 68.6701L189.51 98.7385L190.787 98.5751L186.935 68.5067Z" fill="#DCDBE5"/>
<path d="M183.64 68.9429L182.363 69.1063L186.216 99.1746L187.493 99.0112L183.64 68.9429Z" fill="#DCDBE5"/>
<path d="M180.317 69.3567L179.04 69.5202L182.892 99.5885L184.17 99.4251L180.317 69.3567Z" fill="#DCDBE5"/>
<path d="M177.016 69.8105L175.739 69.9738L179.588 100.042L180.865 99.8788L177.016 69.8105Z" fill="#DCDBE5"/>
<path d="M173.699 70.2065L172.422 70.3699L176.275 100.438L177.552 100.275L173.699 70.2065Z" fill="#DCDBE5"/>
<path d="M247.707 45.4451L244.694 45.8311L239.08 37.1075L242.093 33.2989L247.707 45.4451Z" fill="#A33653"/>
<path d="M242.686 37.8537L238.772 38.3684L235.089 48.5588L239.003 48.0699L242.686 37.8537Z" fill="#CC4468"/>
<path d="M238.643 45.2644L234.728 45.7534C233.003 43.5403 231.69 40.2464 231.2 36.4636C230.273 29.2326 232.745 22.9536 236.711 22.4647L240.626 21.9758L240.883 24.0859C243.149 26.1703 245.003 30.056 245.57 34.6623C245.879 37.004 245.802 39.2428 245.467 41.2243L242.274 35.0998L238.643 45.2644Z" fill="#D9486F"/>
<path d="M244.36 50.9263L240.446 51.4152C238.566 51.6468 236.66 50.5403 235.089 48.5331L239.003 48.0442L244.154 49.4852L244.36 50.9263Z" fill="#E66183"/>
<path d="M244.36 50.952C242.48 51.1836 240.574 50.0771 239.003 48.0699L242.686 37.8537L248.068 48.2243C247.089 49.7683 245.827 50.7461 244.36 50.952Z" fill="#EE7474"/>
<path d="M245.493 41.1991L242.3 35.0745L238.617 45.2907C236.892 43.0776 235.578 39.7837 235.089 36.0009C234.162 28.7699 236.634 22.4909 240.6 22.002C244.566 21.4873 248.557 26.9428 249.484 34.1739C250.077 38.7029 249.304 42.8717 247.682 45.4708L245.493 41.1991Z" fill="#EE7474"/>
<path d="M256.489 74.9093C256.283 73.3396 255.871 71.8728 255.253 70.5346C252.575 64.6674 246.291 60.9618 239.544 61.811C236.274 62.2228 233.364 63.6638 231.123 65.7482C227.672 68.9649 225.767 73.7256 226.411 78.7693C227.466 87.0812 235.063 92.9484 243.381 91.8676C251.673 90.7868 257.545 83.1954 256.489 74.9093ZM228.754 78.4605C228.213 74.1888 229.836 70.1486 232.746 67.4466C234.625 65.6968 237.072 64.4873 239.827 64.127C245.57 63.3808 250.926 66.5717 253.141 71.6154C253.63 72.722 253.991 73.9314 254.145 75.1924C255.047 82.1918 250.077 88.6252 243.072 89.5258C236.042 90.4265 229.63 85.46 228.754 78.4605Z" fill="#6DBFAE"/>
<path d="M251.364 78.9242C251.596 77.8434 251.647 76.7111 251.493 75.5274C250.772 69.969 245.699 66.0575 240.162 66.778C239.055 66.9324 237.999 67.2412 237.046 67.7044C233.235 69.5315 230.84 73.6746 231.406 78.1007C232.127 83.6591 237.201 87.5706 242.737 86.85C247.115 86.3096 250.489 83.0415 251.364 78.9242ZM233.621 77.8176C233.183 74.3694 235.037 71.1784 237.973 69.7374C238.72 69.3771 239.544 69.1198 240.445 68.9911C244.772 68.4507 248.712 71.4872 249.278 75.8104C249.407 76.7368 249.355 77.6375 249.149 78.5124C248.454 81.6776 245.827 84.1995 242.454 84.637C238.128 85.2031 234.188 82.1408 233.621 77.8176Z" fill="#56A3BA"/>
<path d="M239.827 64.1275C237.072 64.4877 234.626 65.6715 232.746 67.4471L231.123 65.7487C233.364 63.6643 236.274 62.2232 239.544 61.8115C246.291 60.9365 252.575 64.6679 255.253 70.5351L253.167 71.6416C250.901 66.5979 245.57 63.4069 239.827 64.1275Z" fill="#EE7474"/>
<path d="M242.737 86.8757C237.175 87.5963 232.102 83.6591 231.406 78.1264C230.84 73.7003 233.235 69.5572 237.046 67.7301L237.999 69.7631C235.037 71.2041 233.209 74.3951 233.647 77.8433C234.188 82.1665 238.153 85.2031 242.48 84.6627C245.879 84.2252 248.48 81.7033 249.175 78.5381L251.39 78.9499C250.489 83.0415 247.115 86.3096 242.737 86.8757Z" fill="#D275A2"/>
<path d="M276.512 17.3764L275.235 17.5398L284.104 86.7633L285.382 86.5999L276.512 17.3764Z" fill="#DCDBE5"/>
<path d="M273.424 17.7902L272.147 17.9536L281.017 87.1771L282.294 87.0137L273.424 17.7902Z" fill="#DCDBE5"/>
<path d="M270.359 18.1747L269.082 18.3381L277.952 87.5617L279.229 87.3983L270.359 18.1747Z" fill="#DCDBE5"/>
<path d="M267.294 18.5613L266.017 18.7247L274.886 87.9482L276.163 87.7848L267.294 18.5613Z" fill="#DCDBE5"/>
<path d="M264.228 18.9455L262.951 19.1089L271.821 88.3324L273.098 88.169L264.228 18.9455Z" fill="#DCDBE5"/>
<path d="M261.141 19.3596L259.864 19.523L268.733 88.7465L270.01 88.5831L261.141 19.3596Z" fill="#DCDBE5"/>
<path d="M258.075 19.7461L256.798 19.9095L265.668 89.133L266.945 88.9696L258.075 19.7461Z" fill="#DCDBE5"/>
<path d="M255.01 20.1304L253.733 20.2938L262.603 89.5173L263.88 89.3539L255.01 20.1304Z" fill="#DCDBE5"/>
<path d="M160.718 21.9763L159.327 29.2588L170.915 118.065L172.589 114.668L160.718 21.9763Z" fill="#B9B9B9"/>
<path d="M172.589 114.668L299.134 98.4815L295.941 101.724L170.915 118.065L172.589 114.668Z" fill="#858994"/>
<path d="M287.468 298.301L113.72 297.941C111.789 297.941 110.243 296.371 110.243 294.441L110.424 205.995C110.424 204.065 111.995 202.521 113.926 202.521L287.674 202.882C289.605 202.882 291.15 204.451 291.15 206.381L290.97 294.827C290.97 296.731 289.399 298.301 287.468 298.301Z" fill="#7A7A7A"/>
<path d="M287.468 296.242L113.72 295.882C111.789 295.882 110.243 294.312 110.243 292.382L110.424 203.937C110.424 202.007 111.995 200.463 113.926 200.463L287.674 200.823C289.605 200.823 291.15 202.393 291.15 204.323L290.97 292.768C290.97 294.698 289.399 296.268 287.468 296.242Z" fill="#A3A3A3"/>
<path d="M277.76 208.594L123.763 208.44C122.656 208.44 121.755 209.186 121.755 210.138L121.703 257.925C121.703 258.852 122.604 259.624 123.712 259.624L277.708 259.778C278.815 259.778 279.717 259.032 279.717 258.08L279.768 210.293C279.768 209.366 278.867 208.594 277.76 208.594Z" fill="#A3A3A3"/>
<path d="M134.346 213.664C134.346 214.127 133.882 214.513 133.341 214.513H126.259C125.719 214.513 125.255 214.127 125.255 213.664V210.988C125.255 210.524 125.719 210.138 126.259 210.138H133.341C133.882 210.138 134.346 210.524 134.346 210.988V213.664Z" fill="#525252"/>
<path d="M145.292 213.664C145.292 214.127 144.828 214.513 144.288 214.513H137.206C136.665 214.513 136.201 214.127 136.201 213.664V210.988C136.201 210.524 136.665 210.138 137.206 210.138H144.288C144.828 210.138 145.292 210.524 145.292 210.988V213.664Z" fill="#525252"/>
<path d="M156.211 213.664C156.211 214.127 155.747 214.513 155.206 214.513H148.124C147.584 214.513 147.12 214.127 147.12 213.664V210.988C147.12 210.524 147.584 210.138 148.124 210.138H155.206C155.747 210.138 156.211 210.524 156.211 210.988V213.664Z" fill="#525252"/>
<path d="M167.155 213.69C167.155 214.153 166.692 214.539 166.151 214.539H159.069C158.528 214.539 158.065 214.153 158.065 213.69V211.013C158.065 210.55 158.528 210.164 159.069 210.164H166.151C166.692 210.164 167.155 210.55 167.155 211.013V213.69Z" fill="#525252"/>
<path d="M178.074 213.69C178.074 214.153 177.61 214.539 177.069 214.539H169.988C169.447 214.539 168.983 214.153 168.983 213.69V211.013C168.983 210.55 169.447 210.164 169.988 210.164H177.069C177.61 210.164 178.074 210.55 178.074 211.013V213.69Z" fill="#525252"/>
<path d="M189.018 213.715C189.018 214.179 188.555 214.565 188.014 214.565H180.932C180.392 214.565 179.928 214.179 179.928 213.715V211.039C179.928 210.576 180.392 210.19 180.932 210.19H188.014C188.555 210.19 189.018 210.576 189.018 211.039V213.715Z" fill="#525252"/>
<path d="M199.937 213.715C199.937 214.179 199.474 214.565 198.933 214.565H191.851C191.31 214.565 190.847 214.179 190.847 213.715V211.039C190.847 210.576 191.31 210.19 191.851 210.19H198.933C199.474 210.19 199.937 210.576 199.937 211.039V213.715Z" fill="#525252"/>
<path d="M210.882 213.741C210.882 214.204 210.418 214.59 209.877 214.59H202.796C202.255 214.59 201.791 214.204 201.791 213.741V211.065C201.791 210.602 202.255 210.216 202.796 210.216H209.877C210.418 210.216 210.882 210.602 210.882 211.065V213.741Z" fill="#525252"/>
<path d="M221.801 213.741C221.801 214.204 221.337 214.59 220.796 214.59H213.715C213.174 214.59 212.71 214.204 212.71 213.741V211.065C212.71 210.602 213.174 210.216 213.715 210.216H220.796C221.337 210.216 221.801 210.602 221.801 211.065V213.741Z" fill="#525252"/>
<path d="M232.745 213.741C232.745 214.204 232.282 214.59 231.741 214.59H224.659C224.118 214.59 223.655 214.204 223.655 213.741V211.065C223.655 210.602 224.118 210.216 224.659 210.216H231.741C232.282 210.216 232.745 210.602 232.745 211.065V213.741Z" fill="#525252"/>
<path d="M243.664 213.767C243.664 214.23 243.2 214.616 242.66 214.616H235.578C235.037 214.616 234.573 214.23 234.573 213.767V211.091C234.573 210.628 235.037 210.242 235.578 210.242H242.66C243.2 210.242 243.664 210.628 243.664 211.091V213.767Z" fill="#525252"/>
<path d="M254.609 213.767C254.609 214.23 254.145 214.616 253.604 214.616H246.522C245.982 214.616 245.518 214.23 245.518 213.767V211.091C245.518 210.628 245.982 210.242 246.522 210.242H253.604C254.145 210.242 254.609 210.628 254.609 211.091V213.767Z" fill="#525252"/>
<path d="M265.553 213.793C265.553 214.256 265.09 214.642 264.549 214.642H257.467C256.926 214.642 256.463 214.256 256.463 213.793V211.117C256.463 210.653 256.926 210.267 257.467 210.267H264.549C265.09 210.267 265.553 210.653 265.553 211.117V213.793Z" fill="#525252"/>
<path d="M276.472 213.793C276.472 214.256 276.008 214.642 275.467 214.642H268.386C267.845 214.642 267.381 214.256 267.381 213.793V211.117C267.381 210.653 267.845 210.267 268.386 210.267H275.467C276.008 210.267 276.472 210.653 276.472 211.117V213.793Z" fill="#525252"/>
<path d="M133.446 222.619C133.446 223.082 132.982 223.468 132.442 223.468H126.21C125.669 223.468 125.205 223.082 125.205 222.619V216.623C125.205 216.16 125.669 215.774 126.21 215.774H132.442C132.982 215.774 133.446 216.16 133.446 216.623V222.619Z" fill="#525252"/>
<path d="M143.953 222.619C143.953 223.082 143.489 223.468 142.948 223.468H136.716C136.175 223.468 135.712 223.082 135.712 222.619V216.623C135.712 216.16 136.175 215.774 136.716 215.774H142.948C143.489 215.774 143.953 216.16 143.953 216.623V222.619Z" fill="#525252"/>
<path d="M154.434 222.645C154.434 223.108 153.97 223.494 153.429 223.494H147.197C146.657 223.494 146.193 223.108 146.193 222.645V216.649C146.193 216.186 146.657 215.8 147.197 215.8H153.429C153.97 215.8 154.434 216.186 154.434 216.649V222.645Z" fill="#525252"/>
<path d="M164.915 222.645C164.915 223.108 164.451 223.494 163.91 223.494H157.678C157.138 223.494 156.674 223.108 156.674 222.645V216.649C156.674 216.186 157.138 215.8 157.678 215.8H163.91C164.451 215.8 164.915 216.186 164.915 216.649V222.645Z" fill="#525252"/>
<path d="M175.421 222.645C175.421 223.108 174.958 223.494 174.417 223.494H168.185C167.644 223.494 167.181 223.108 167.181 222.645V216.649C167.181 216.186 167.644 215.8 168.185 215.8H174.417C174.958 215.8 175.421 216.186 175.421 216.649V222.645Z" fill="#525252"/>
<path d="M185.902 222.671C185.902 223.134 185.439 223.52 184.898 223.52H178.666C178.125 223.52 177.662 223.134 177.662 222.671V216.675C177.662 216.211 178.125 215.825 178.666 215.825H184.898C185.439 215.825 185.902 216.211 185.902 216.675V222.671Z" fill="#525252"/>
<path d="M196.383 222.671C196.383 223.134 195.92 223.52 195.379 223.52H189.147C188.606 223.52 188.143 223.134 188.143 222.671V216.675C188.143 216.211 188.606 215.825 189.147 215.825H195.379C195.92 215.825 196.383 216.211 196.383 216.675V222.671Z" fill="#525252"/>
<path d="M206.89 222.696C206.89 223.159 206.427 223.545 205.886 223.545H199.654C199.113 223.545 198.65 223.159 198.65 222.696V216.7C198.65 216.237 199.113 215.851 199.654 215.851H205.886C206.427 215.851 206.89 216.237 206.89 216.7V222.696Z" fill="#525252"/>
<path d="M217.371 222.696C217.371 223.159 216.908 223.545 216.367 223.545H210.135C209.594 223.545 209.131 223.159 209.131 222.696V216.7C209.131 216.237 209.594 215.851 210.135 215.851H216.367C216.908 215.851 217.371 216.237 217.371 216.7V222.696Z" fill="#525252"/>
<path d="M227.878 222.696C227.878 223.159 227.414 223.545 226.874 223.545H220.642C220.101 223.545 219.637 223.159 219.637 222.696V216.7C219.637 216.237 220.101 215.851 220.642 215.851H226.874C227.414 215.851 227.878 216.237 227.878 216.7V222.696Z" fill="#525252"/>
<path d="M238.359 222.722C238.359 223.185 237.895 223.571 237.355 223.571H231.123C230.582 223.571 230.118 223.185 230.118 222.722V216.726C230.118 216.263 230.582 215.877 231.123 215.877H237.355C237.895 215.877 238.359 216.263 238.359 216.726V222.722Z" fill="#525252"/>
<path d="M248.84 222.722C248.84 223.185 248.376 223.571 247.836 223.571H241.604C241.063 223.571 240.599 223.185 240.599 222.722V216.726C240.599 216.263 241.063 215.877 241.604 215.877H247.836C248.376 215.877 248.84 216.263 248.84 216.726V222.722Z" fill="#525252"/>
<path d="M259.347 222.748C259.347 223.211 258.883 223.597 258.342 223.597H252.111C251.57 223.597 251.106 223.211 251.106 222.748V216.752C251.106 216.289 251.57 215.903 252.111 215.903H258.342C258.883 215.903 259.347 216.289 259.347 216.752V222.748Z" fill="#525252"/>
<path d="M149.18 231.24C149.18 231.703 148.717 232.089 148.176 232.089H141.944C141.403 232.089 140.94 231.703 140.94 231.24V225.244C140.94 224.781 141.403 224.395 141.944 224.395H148.176C148.717 224.395 149.18 224.781 149.18 225.244V231.24Z" fill="#525252"/>
<path d="M139.317 231.24C139.317 231.703 138.854 232.089 138.313 232.089H126.235C125.694 232.089 125.231 231.703 125.231 231.24V225.244C125.231 224.781 125.694 224.395 126.235 224.395H138.313C138.854 224.395 139.317 224.781 139.317 225.244V231.24Z" fill="#525252"/>
<path d="M141.97 239.732C141.97 240.195 141.506 240.581 140.965 240.581L126.21 240.555C125.669 240.555 125.205 240.169 125.205 239.706V233.71C125.205 233.247 125.669 232.861 126.21 232.861L140.965 232.887C141.506 232.887 141.97 233.273 141.97 233.736V239.732Z" fill="#525252"/>
<path d="M136.845 248.224C136.845 248.687 136.382 249.073 135.841 249.073H126.21C125.669 249.073 125.205 248.687 125.205 248.224V242.228C125.205 241.765 125.669 241.379 126.21 241.379H135.841C136.382 241.379 136.845 241.765 136.845 242.228V248.224Z" fill="#525252"/>
<path d="M159.661 231.24C159.661 231.703 159.198 232.089 158.657 232.089H152.425C151.884 232.089 151.421 231.703 151.421 231.24V225.244C151.421 224.781 151.884 224.395 152.425 224.395H158.657C159.198 224.395 159.661 224.781 159.661 225.244V231.24Z" fill="#525252"/>
<path d="M170.168 231.265C170.168 231.729 169.705 232.115 169.164 232.115H162.932C162.391 232.115 161.927 231.729 161.927 231.265V225.27C161.927 224.806 162.391 224.42 162.932 224.42H169.164C169.705 224.42 170.168 224.806 170.168 225.27V231.265Z" fill="#525252"/>
<path d="M180.649 231.265C180.649 231.729 180.186 232.115 179.645 232.115H173.413C172.872 232.115 172.408 231.729 172.408 231.265V225.27C172.408 224.806 172.872 224.42 173.413 224.42H179.645C180.186 224.42 180.649 224.806 180.649 225.27V231.265Z" fill="#525252"/>
<path d="M191.13 231.291C191.13 231.754 190.667 232.14 190.126 232.14H183.894C183.353 232.14 182.889 231.754 182.889 231.291V225.295C182.889 224.832 183.353 224.446 183.894 224.446H190.126C190.667 224.446 191.13 224.832 191.13 225.295V231.291Z" fill="#525252"/>
<path d="M201.637 231.291C201.637 231.754 201.173 232.14 200.633 232.14H194.401C193.86 232.14 193.396 231.754 193.396 231.291V225.295C193.396 224.832 193.86 224.446 194.401 224.446H200.633C201.173 224.446 201.637 224.832 201.637 225.295V231.291Z" fill="#525252"/>
<path d="M212.118 231.291C212.118 231.754 211.654 232.14 211.113 232.14H204.882C204.341 232.14 203.877 231.754 203.877 231.291V225.295C203.877 224.832 204.341 224.446 204.882 224.446H211.113C211.654 224.446 212.118 224.832 212.118 225.295V231.291Z" fill="#525252"/>
<path d="M222.625 231.317C222.625 231.78 222.161 232.166 221.62 232.166H215.388C214.848 232.166 214.384 231.78 214.384 231.317V225.321C214.384 224.858 214.848 224.472 215.388 224.472H221.62C222.161 224.472 222.625 224.858 222.625 225.321V231.317Z" fill="#525252"/>
<path d="M233.106 231.317C233.106 231.78 232.642 232.166 232.101 232.166H225.869C225.329 232.166 224.865 231.78 224.865 231.317V225.321C224.865 224.858 225.329 224.472 225.869 224.472H232.101C232.642 224.472 233.106 224.858 233.106 225.321V231.317Z" fill="#525252"/>
<path d="M243.587 231.317C243.587 231.78 243.123 232.166 242.582 232.166H236.351C235.81 232.166 235.346 231.78 235.346 231.317V225.321C235.346 224.858 235.81 224.472 236.351 224.472H242.582C243.123 224.472 243.587 224.858 243.587 225.321V231.317Z" fill="#525252"/>
<path d="M254.093 231.343C254.093 231.806 253.63 232.192 253.089 232.192H246.857C246.316 232.192 245.853 231.806 245.853 231.343V225.347C245.853 224.884 246.316 224.498 246.857 224.498H253.089C253.63 224.498 254.093 224.884 254.093 225.347V231.343Z" fill="#525252"/>
<path d="M264.575 231.343C264.575 231.806 264.111 232.192 263.57 232.192H257.338C256.798 232.192 256.334 231.806 256.334 231.343V225.347C256.334 224.884 256.798 224.498 257.338 224.498H263.57C264.111 224.498 264.575 224.884 264.575 225.347V231.343Z" fill="#525252"/>
<path d="M151.884 239.732C151.884 240.195 151.421 240.581 150.88 240.581H144.648C144.107 240.581 143.644 240.195 143.644 239.732V233.736C143.644 233.273 144.107 232.887 144.648 232.887H150.88C151.421 232.887 151.884 233.273 151.884 233.736V239.732Z" fill="#525252"/>
<path d="M162.391 239.757C162.391 240.221 161.927 240.607 161.387 240.607H155.155C154.614 240.607 154.15 240.221 154.15 239.757V233.762C154.15 233.298 154.614 232.912 155.155 232.912H161.387C161.927 232.912 162.391 233.298 162.391 233.762V239.757Z" fill="#525252"/>
<path d="M172.872 239.757C172.872 240.221 172.408 240.607 171.868 240.607H165.636C165.095 240.607 164.631 240.221 164.631 239.757V233.762C164.631 233.298 165.095 232.912 165.636 232.912H171.868C172.408 232.912 172.872 233.298 172.872 233.762V239.757Z" fill="#525252"/>
<path d="M183.379 239.757C183.379 240.221 182.915 240.607 182.374 240.607H176.143C175.602 240.607 175.138 240.221 175.138 239.757V233.762C175.138 233.298 175.602 232.912 176.143 232.912H182.374C182.915 232.912 183.379 233.298 183.379 233.762V239.757Z" fill="#525252"/>
<path d="M193.86 239.783C193.86 240.246 193.396 240.632 192.855 240.632H186.623C186.083 240.632 185.619 240.246 185.619 239.783V233.787C185.619 233.324 186.083 232.938 186.623 232.938H192.855C193.396 232.938 193.86 233.324 193.86 233.787V239.783Z" fill="#525252"/>
<path d="M204.341 239.783C204.341 240.246 203.877 240.632 203.337 240.632H197.105C196.564 240.632 196.1 240.246 196.1 239.783V233.787C196.1 233.324 196.564 232.938 197.105 232.938H203.337C203.877 232.938 204.341 233.324 204.341 233.787V239.783Z" fill="#525252"/>
<path d="M214.848 239.809C214.848 240.272 214.384 240.658 213.843 240.658H207.611C207.07 240.658 206.607 240.272 206.607 239.809V233.813C206.607 233.35 207.07 232.964 207.611 232.964H213.843C214.384 232.964 214.848 233.35 214.848 233.813V239.809Z" fill="#525252"/>
<path d="M225.329 239.809C225.329 240.272 224.865 240.658 224.324 240.658H218.092C217.552 240.658 217.088 240.272 217.088 239.809V233.813C217.088 233.35 217.552 232.964 218.092 232.964H224.324C224.865 232.964 225.329 233.35 225.329 233.813V239.809Z" fill="#525252"/>
<path d="M235.81 239.809C235.81 240.272 235.346 240.658 234.805 240.658H228.573C228.033 240.658 227.569 240.272 227.569 239.809V233.813C227.569 233.35 228.033 232.964 228.573 232.964H234.805C235.346 232.964 235.81 233.35 235.81 233.813V239.809Z" fill="#525252"/>
<path d="M246.316 239.835C246.316 240.298 245.853 240.684 245.312 240.684H239.08C238.539 240.684 238.076 240.298 238.076 239.835V233.839C238.076 233.376 238.539 232.99 239.08 232.99H245.312C245.853 232.99 246.316 233.376 246.316 233.839V239.835Z" fill="#525252"/>
<path d="M256.797 239.835C256.797 240.298 256.334 240.684 255.793 240.684H249.561C249.02 240.684 248.557 240.298 248.557 239.835V233.839C248.557 233.376 249.02 232.99 249.561 232.99H255.793C256.334 232.99 256.797 233.376 256.797 233.839V239.835Z" fill="#525252"/>
<path d="M267.304 239.86C267.304 240.324 266.841 240.71 266.3 240.71H260.068C259.527 240.71 259.063 240.324 259.063 239.86V233.865C259.063 233.401 259.527 233.015 260.068 233.015H266.3C266.841 233.015 267.304 233.401 267.304 233.865V239.86Z" fill="#525252"/>
<path d="M146.631 248.224C146.631 248.687 146.167 249.073 145.626 249.073H139.394C138.854 249.073 138.39 248.687 138.39 248.224V242.228C138.39 241.765 138.854 241.379 139.394 241.379H145.626C146.167 241.379 146.631 241.765 146.631 242.228V248.224Z" fill="#525252"/>
<path d="M157.138 248.249C157.138 248.713 156.674 249.099 156.133 249.099H149.901C149.361 249.099 148.897 248.713 148.897 248.249V242.254C148.897 241.79 149.361 241.404 149.901 241.404H156.133C156.674 241.404 157.138 241.79 157.138 242.254V248.249Z" fill="#525252"/>
<path d="M167.619 248.249C167.619 248.713 167.155 249.099 166.614 249.099H160.382C159.841 249.099 159.378 248.713 159.378 248.249V242.254C159.378 241.79 159.841 241.404 160.382 241.404H166.614C167.155 241.404 167.619 241.79 167.619 242.254V248.249Z" fill="#525252"/>
<path d="M178.125 248.249C178.125 248.713 177.662 249.099 177.121 249.099H170.889C170.348 249.099 169.885 248.713 169.885 248.249V242.254C169.885 241.79 170.348 241.404 170.889 241.404H177.121C177.662 241.404 178.125 241.79 178.125 242.254V248.249Z" fill="#525252"/>
<path d="M188.607 248.275C188.607 248.738 188.143 249.124 187.602 249.124H181.37C180.829 249.124 180.366 248.738 180.366 248.275V242.279C180.366 241.816 180.829 241.43 181.37 241.43H187.602C188.143 241.43 188.607 241.816 188.607 242.279V248.275Z" fill="#525252"/>
<path d="M199.087 248.275C199.087 248.738 198.624 249.124 198.083 249.124H191.851C191.31 249.124 190.847 248.738 190.847 248.275V242.279C190.847 241.816 191.31 241.43 191.851 241.43H198.083C198.624 241.43 199.087 241.816 199.087 242.279V248.275Z" fill="#525252"/>
<path d="M209.594 248.301C209.594 248.764 209.131 249.15 208.59 249.15H202.358C201.817 249.15 201.354 248.764 201.354 248.301V242.305C201.354 241.842 201.817 241.456 202.358 241.456H208.59C209.131 241.456 209.594 241.842 209.594 242.305V248.301Z" fill="#525252"/>
<path d="M220.075 248.301C220.075 248.764 219.612 249.15 219.071 249.15H212.839C212.298 249.15 211.835 248.764 211.835 248.301V242.305C211.835 241.842 212.298 241.456 212.839 241.456H219.071C219.612 241.456 220.075 241.842 220.075 242.305V248.301Z" fill="#525252"/>
<path d="M230.556 248.301C230.556 248.764 230.093 249.15 229.552 249.15H223.32C222.779 249.15 222.316 248.764 222.316 248.301V242.305C222.316 241.842 222.779 241.456 223.32 241.456H229.552C230.093 241.456 230.556 241.842 230.556 242.305V248.301Z" fill="#525252"/>
<path d="M241.063 248.327C241.063 248.79 240.6 249.176 240.059 249.176H233.827C233.286 249.176 232.823 248.79 232.823 248.327V242.331C232.823 241.868 233.286 241.482 233.827 241.482H240.059C240.6 241.482 241.063 241.868 241.063 242.331V248.327Z" fill="#525252"/>
<path d="M251.544 248.327C251.544 248.79 251.081 249.176 250.54 249.176H244.308C243.767 249.176 243.303 248.79 243.303 248.327V242.331C243.303 241.868 243.767 241.482 244.308 241.482H250.54C251.081 241.482 251.544 241.868 251.544 242.331V248.327Z" fill="#525252"/>
<path d="M276.317 248.352C276.317 248.816 275.854 249.202 275.313 249.202L254.814 249.176C254.274 249.176 253.81 248.79 253.81 248.327V242.331C253.81 241.868 254.274 241.482 254.814 241.482L275.313 241.507C275.854 241.507 276.317 241.893 276.317 242.357V248.352Z" fill="#525252"/>
<path d="M269.802 224.523C269.262 224.523 268.438 224.523 268.025 224.523C267.588 224.523 267.253 224.909 267.253 225.373V231.368C267.253 231.832 267.613 232.218 268.025 232.218C268.463 232.218 268.798 232.604 268.798 233.067V239.86C268.798 240.324 269.236 240.71 269.802 240.71H275.339C275.88 240.71 276.343 240.324 276.343 239.86V233.067C276.343 232.604 276.343 231.832 276.343 231.368V225.373C276.343 224.909 275.906 224.523 275.339 224.523H269.802Z" fill="#525252"/>
<path d="M133.42 257.179C133.42 257.642 132.956 258.028 132.416 258.028H126.184C125.643 258.028 125.179 257.642 125.179 257.179V251.183C125.179 250.72 125.643 250.334 126.184 250.334H132.416C132.956 250.334 133.42 250.72 133.42 251.183V257.179Z" fill="#525252"/>
<path d="M143.901 257.179C143.901 257.642 143.437 258.028 142.897 258.028H136.665C136.124 258.028 135.66 257.642 135.66 257.179V251.183C135.66 250.72 136.124 250.334 136.665 250.334H142.897C143.437 250.334 143.901 250.72 143.901 251.183V257.179Z" fill="#525252"/>
<path d="M154.408 257.205C154.408 257.668 153.944 258.054 153.404 258.054H147.172C146.631 258.054 146.167 257.668 146.167 257.205V251.209C146.167 250.746 146.631 250.36 147.172 250.36H153.404C153.944 250.36 154.408 250.746 154.408 251.209V257.205Z" fill="#525252"/>
<path d="M168.108 257.205C168.108 257.668 167.644 258.054 167.104 258.054H157.678C157.138 258.054 156.674 257.668 156.674 257.205V251.209C156.674 250.746 157.138 250.36 157.678 250.36H167.104C167.644 250.36 168.108 250.746 168.108 251.209V257.205Z" fill="#525252"/>
<path d="M220.075 257.256C220.075 257.719 219.612 258.105 219.071 258.105L171.147 258.054C170.606 258.054 170.142 257.668 170.142 257.205V251.209C170.142 250.746 170.606 250.36 171.147 250.36L219.071 250.411C219.612 250.411 220.075 250.797 220.075 251.26V257.256Z" fill="#525252"/>
<path d="M233.749 257.282C233.749 257.745 233.286 258.131 232.745 258.131H223.32C222.779 258.131 222.316 257.745 222.316 257.282V251.286C222.316 250.823 222.779 250.437 223.32 250.437H232.745C233.286 250.437 233.749 250.823 233.749 251.286V257.282Z" fill="#525252"/>
<path d="M243.561 257.282C243.561 257.745 243.097 258.131 242.557 258.131H236.325C235.784 258.131 235.32 257.745 235.32 257.282V251.286C235.32 250.823 235.784 250.437 236.325 250.437H242.557C243.097 250.437 243.561 250.823 243.561 251.286V257.282Z" fill="#525252"/>
<path d="M254.119 257.359C254.119 257.822 253.656 258.208 253.115 258.208H246.883C246.342 258.208 245.879 257.822 245.879 257.359V255.197C245.879 254.734 246.342 254.348 246.883 254.348H253.115C253.656 254.348 254.119 254.734 254.119 255.197V257.359Z" fill="#525252"/>
<path d="M264.677 257.308C264.677 257.771 264.214 258.157 263.673 258.157H257.441C256.9 258.157 256.437 257.771 256.437 257.308V251.312C256.437 250.849 256.9 250.463 257.441 250.463H263.673C264.214 250.463 264.677 250.849 264.677 251.312V257.308Z" fill="#525252"/>
<path d="M275.262 257.385C275.262 257.848 274.798 258.234 274.257 258.234H268.025C267.485 258.234 267.021 257.848 267.021 257.385V255.223C267.021 254.76 267.485 254.374 268.025 254.374H274.257C274.798 254.374 275.262 254.76 275.262 255.223V257.385Z" fill="#525252"/>
<path d="M276.343 222.748C276.343 223.211 275.879 223.597 275.339 223.597H262.282C261.742 223.597 261.278 223.211 261.278 222.748V216.752C261.278 216.289 261.742 215.903 262.282 215.903H275.339C275.879 215.903 276.343 216.289 276.343 216.752V222.748Z" fill="#525252"/>
<g opacity="0.2">
<path opacity="0.2" d="M224.35 293.489L176.889 293.386C175.782 293.386 174.881 292.485 174.881 291.379L174.932 264.461C174.932 263.355 175.833 262.454 176.941 262.454L224.401 262.557C225.509 262.557 226.41 263.458 226.41 264.564L226.359 291.481C226.359 292.588 225.457 293.489 224.35 293.489Z" fill="#A3A3A3"/>
</g>
<path d="M304.49 139.912C304.464 139.912 304.464 139.886 304.438 139.886C304.413 139.886 304.413 139.861 304.387 139.861C304.361 139.861 304.361 139.835 304.335 139.835C304.31 139.835 304.31 139.809 304.284 139.809C304.258 139.809 304.258 139.783 304.232 139.783C304.207 139.783 304.207 139.758 304.181 139.758C304.155 139.758 304.155 139.732 304.129 139.732C304.104 139.732 304.104 139.706 304.078 139.706C304.052 139.706 304.052 139.681 304.026 139.681C304.001 139.681 304.001 139.655 303.975 139.655C303.949 139.655 303.949 139.629 303.923 139.629C303.898 139.629 303.898 139.603 303.872 139.603C303.846 139.603 303.846 139.578 303.82 139.578C303.795 139.578 303.795 139.552 303.769 139.552C303.743 139.552 303.743 139.526 303.717 139.526C303.692 139.526 303.692 139.5 303.666 139.5C303.64 139.5 303.64 139.475 303.614 139.475C303.589 139.475 303.589 139.449 303.563 139.449C303.537 139.449 303.537 139.423 303.511 139.423C303.486 139.423 303.486 139.397 303.46 139.397C303.434 139.397 303.434 139.372 303.408 139.372C303.383 139.372 303.383 139.346 303.357 139.346C303.331 139.346 303.331 139.32 303.305 139.32C303.28 139.32 303.28 139.295 303.254 139.295C303.228 139.295 303.228 139.269 303.202 139.269C303.177 139.269 303.177 139.243 303.151 139.243C303.125 139.243 303.125 139.217 303.099 139.217C303.074 139.217 303.074 139.192 303.048 139.192C303.022 139.192 303.022 139.166 302.996 139.166C302.971 139.166 302.971 139.14 302.945 139.14C302.919 139.14 302.919 139.114 302.893 139.114C302.868 139.114 302.868 139.089 302.842 139.089C302.816 139.089 302.816 139.063 302.79 139.063C302.765 139.063 302.765 139.037 302.739 139.037C302.713 139.037 302.713 139.011 302.687 139.011C302.662 139.011 302.662 138.986 302.636 138.986C302.61 138.986 302.61 138.96 302.584 138.96C302.559 138.96 302.559 138.934 302.533 138.934C302.507 138.934 302.507 138.909 302.481 138.909C302.456 138.909 302.456 138.883 302.43 138.883C302.404 138.883 302.404 138.857 302.378 138.857C302.353 138.857 302.353 138.831 302.327 138.831C302.301 138.831 302.301 138.806 302.275 138.806C302.25 138.806 302.25 138.78 302.224 138.78C302.198 138.78 302.198 138.754 302.172 138.754C302.147 138.754 302.147 138.728 302.121 138.728C302.095 138.728 302.095 138.703 302.069 138.703C302.044 138.703 302.044 138.677 302.018 138.677C301.992 138.677 301.992 138.651 301.966 138.651C301.941 138.651 301.941 138.625 301.915 138.625C301.889 138.625 301.889 138.6 301.863 138.6C301.838 138.6 301.838 138.574 301.812 138.574C301.786 138.574 301.786 138.548 301.76 138.548C301.735 138.548 301.735 138.523 301.709 138.523C301.683 138.523 301.683 138.497 301.657 138.497C301.632 138.497 301.632 138.471 301.606 138.471C301.58 138.471 301.58 138.445 301.554 138.445C301.529 138.445 301.529 138.42 301.503 138.42C301.477 138.42 301.477 138.394 301.451 138.394C301.426 138.394 301.426 138.368 301.4 138.368C301.374 138.368 301.374 138.342 301.348 138.342C301.323 138.342 301.323 138.317 301.297 138.317C301.271 138.317 301.271 138.291 301.245 138.291C301.22 138.291 301.22 138.265 301.194 138.265C301.168 138.265 301.168 138.239 301.142 138.239C301.117 138.239 301.117 138.214 301.091 138.214C301.065 138.214 301.065 138.188 301.039 138.188C301.014 138.188 301.013 138.162 300.988 138.162C300.962 138.162 300.962 138.137 300.936 138.137C300.91 138.137 300.91 138.111 300.885 138.111C300.859 138.111 300.859 138.085 300.833 138.085C300.807 138.085 300.807 138.059 300.782 138.059C300.756 138.059 300.756 138.034 300.73 138.034C300.704 138.034 300.704 138.008 300.679 138.008C300.653 138.008 300.653 137.982 300.627 137.982C300.601 137.982 300.601 137.956 300.576 137.956C300.55 137.956 300.55 137.931 300.524 137.931C300.498 137.931 300.498 137.905 300.473 137.905C300.447 137.905 300.447 137.879 300.421 137.879C300.395 137.879 300.395 137.853 300.37 137.853C300.344 137.853 300.344 137.828 300.318 137.828C300.292 137.828 300.292 137.802 300.267 137.802C300.241 137.802 300.241 137.776 300.215 137.776C300.189 137.776 300.189 137.751 300.164 137.751C300.138 137.751 300.138 137.725 300.112 137.725C300.086 137.725 300.086 137.699 300.061 137.699C300.035 137.699 300.035 137.673 300.009 137.673C299.983 137.673 299.983 137.648 299.958 137.648C299.932 137.648 299.932 137.622 299.906 137.622C299.88 137.622 299.88 137.596 299.855 137.596C299.829 137.596 299.829 137.57 299.803 137.57C299.777 137.57 299.777 137.545 299.752 137.545C299.726 137.545 299.726 137.519 299.7 137.519C299.674 137.519 299.674 137.493 299.649 137.493C299.623 137.493 299.623 137.467 299.597 137.467C299.571 137.467 299.571 137.442 299.546 137.442C299.52 137.442 299.52 137.416 299.494 137.416C299.468 137.416 299.468 137.39 299.443 137.39C299.417 137.39 299.417 137.365 299.391 137.365C299.365 137.365 299.365 137.339 299.34 137.339C298.464 136.721 296.996 136.309 295.219 136.309H104.836C103.084 136.309 101.617 136.721 100.715 137.339C100.69 137.339 100.69 137.365 100.664 137.365C100.638 137.365 100.638 137.39 100.612 137.39C100.587 137.39 100.587 137.416 100.561 137.416C100.535 137.416 100.535 137.442 100.509 137.442C100.484 137.442 100.484 137.467 100.458 137.467C100.432 137.467 100.432 137.493 100.406 137.493C100.381 137.493 100.381 137.519 100.355 137.519C100.329 137.519 100.329 137.545 100.303 137.545C100.278 137.545 100.278 137.57 100.252 137.57C100.226 137.57 100.226 137.596 100.2 137.596C100.175 137.596 100.175 137.622 100.149 137.622C100.123 137.622 100.123 137.648 100.097 137.648C100.071 137.648 100.071 137.673 100.046 137.673C100.02 137.673 100.02 137.699 99.9942 137.699C99.9685 137.699 99.9685 137.725 99.9427 137.725C99.917 137.725 99.917 137.751 99.8912 137.751C99.8655 137.751 99.8655 137.776 99.8397 137.776C99.814 137.776 99.814 137.802 99.7882 137.802C99.7625 137.802 99.7625 137.828 99.7367 137.828C99.711 137.828 99.711 137.853 99.6852 137.853C99.6595 137.853 99.6595 137.879 99.6337 137.879C99.608 137.879 99.608 137.905 99.5822 137.905C99.5565 137.905 99.5565 137.931 99.5307 137.931C99.505 137.931 99.505 137.956 99.4792 137.956C99.4535 137.956 99.4535 137.982 99.4277 137.982C99.4019 137.982 99.4019 138.008 99.3762 138.008C99.3504 138.008 99.3504 138.034 99.3247 138.034C99.2989 138.034 99.2989 138.059 99.2732 138.059C99.2474 138.059 99.2474 138.085 99.2217 138.085C99.1959 138.085 99.1959 138.111 99.1702 138.111C99.1444 138.111 99.1444 138.137 99.1187 138.137C99.0929 138.137 99.0929 138.162 99.0672 138.162C99.0414 138.162 99.0414 138.188 99.0157 138.188C98.9899 138.188 98.9899 138.214 98.9642 138.214C98.9384 138.214 98.9384 138.239 98.9127 138.239C98.8869 138.239 98.8869 138.265 98.8612 138.265C98.8354 138.265 98.8354 138.291 98.8097 138.291C98.7839 138.291 98.7839 138.317 98.7581 138.317C98.7324 138.317 98.7324 138.342 98.7067 138.342C98.6809 138.342 98.6809 138.368 98.6551 138.368C98.6294 138.368 98.6294 138.394 98.6036 138.394C98.5779 138.394 98.5779 138.42 98.5521 138.42C98.5264 138.42 98.5264 138.445 98.5006 138.445C98.4749 138.445 98.4749 138.471 98.4491 138.471C98.4234 138.471 98.4234 138.497 98.3976 138.497C98.3719 138.497 98.3719 138.523 98.3461 138.523C98.3204 138.523 98.3204 138.548 98.2946 138.548C98.2689 138.548 98.2689 138.574 98.2431 138.574C98.2174 138.574 98.2174 138.6 98.1916 138.6C98.1659 138.6 98.1659 138.625 98.1401 138.625C98.1144 138.625 98.1144 138.651 98.0886 138.651C98.0629 138.651 98.0628 138.677 98.0371 138.677C98.0113 138.677 98.0113 138.703 97.9856 138.703C97.9598 138.703 97.9598 138.728 97.9341 138.728C97.9083 138.728 97.9083 138.754 97.8826 138.754C97.8568 138.754 97.8568 138.78 97.8311 138.78C97.8053 138.78 97.8053 138.806 97.7796 138.806C97.7538 138.806 97.7538 138.831 97.7281 138.831C97.7023 138.831 97.7023 138.857 97.6766 138.857C97.6508 138.857 97.6508 138.883 97.6251 138.883C97.5993 138.883 97.5993 138.909 97.5736 138.909C97.5478 138.909 97.5478 138.934 97.5221 138.934C97.4963 138.934 97.4963 138.96 97.4706 138.96C97.4448 138.96 97.4448 138.986 97.4191 138.986C97.3933 138.986 97.3933 139.011 97.3676 139.011C97.3418 139.011 97.3418 139.037 97.316 139.037C97.2903 139.037 97.2903 139.063 97.2645 139.063C97.2388 139.063 97.2388 139.089 97.213 139.089C97.1873 139.089 97.1873 139.114 97.1615 139.114C97.1358 139.114 97.1358 139.14 97.11 139.14C97.0843 139.14 97.0843 139.166 97.0585 139.166C97.0328 139.166 97.0328 139.192 97.007 139.192C96.9813 139.192 96.9813 139.217 96.9555 139.217C96.9298 139.217 96.9298 139.243 96.904 139.243C96.8783 139.243 96.8783 139.269 96.8525 139.269C96.8268 139.269 96.8268 139.295 96.801 139.295C96.7753 139.295 96.7753 139.32 96.7495 139.32C96.7238 139.32 96.7237 139.346 96.698 139.346C96.6722 139.346 96.6722 139.372 96.6465 139.372C96.6207 139.372 96.6207 139.397 96.595 139.397C96.5692 139.397 96.5692 139.423 96.5435 139.423C96.5177 139.423 96.5177 139.449 96.492 139.449C96.4662 139.449 96.4662 139.475 96.4405 139.475C96.4147 139.475 96.4147 139.5 96.389 139.5C96.3632 139.5 96.3632 139.526 96.3375 139.526C96.3117 139.526 96.3117 139.552 96.286 139.552C96.2602 139.552 96.2602 139.578 96.2345 139.578C96.2087 139.578 96.2087 139.603 96.183 139.603C96.1572 139.603 96.1572 139.629 96.1315 139.629C96.1057 139.629 96.1057 139.655 96.08 139.655C96.0542 139.655 96.0542 139.681 96.0285 139.681C96.0027 139.681 96.0027 139.706 95.9769 139.706C95.9512 139.706 95.9512 139.732 95.9254 139.732C95.8997 139.732 95.8997 139.758 95.8739 139.758C95.8482 139.758 95.8482 139.783 95.8224 139.783C95.7967 139.783 95.7967 139.809 95.7709 139.809C95.7452 139.809 95.7452 139.835 95.7194 139.835C95.6937 139.835 95.6937 139.861 95.6679 139.861C95.6422 139.861 95.6422 139.886 95.6164 139.886C95.5907 139.886 95.5907 139.912 95.5649 139.912C94.8181 140.427 94.4576 141.07 94.6378 141.791L108.956 199.099C109.265 200.283 111.737 201.26 114.518 201.26H284.79C287.571 201.26 290.069 200.308 290.352 199.099L304.67 141.791C305.597 141.07 305.237 140.401 304.49 139.912Z" fill="#A3A3A3"/>
<path d="M285.536 201.26H115.265C112.484 201.26 109.986 200.308 109.703 199.099L95.3846 141.791C94.9726 140.195 97.2902 138.883 100.561 138.883H300.241C303.486 138.883 305.803 140.195 305.417 141.791L291.099 199.099C290.79 200.283 288.318 201.26 285.536 201.26Z" fill="#525252"/>
<path d="M114.699 199.305L101.076 141.508H299.726L286.078 199.305H114.699Z" fill="#E8E8E8"/>
<path d="M283.142 156.021H117.66L116.218 148.867H284.584L283.142 156.021Z" fill="white"/>
<path d="M192.856 165.131H152.374L152.168 163.613H192.83L192.856 165.131Z" fill="#C4C4C4"/>
<path d="M257.209 168.039H152.708L152.605 167.189H257.312L257.209 168.039Z" fill="#C4C4C4"/>
<path d="M256.9 170.072H152.966L152.863 169.248H257.029L256.9 170.072Z" fill="#C4C4C4"/>
<path d="M256.617 172.105H153.198L153.095 171.281H256.72L256.617 172.105Z" fill="#C4C4C4"/>
<path d="M119.179 163.484H147.532L148.691 172.105H120.956L119.179 163.484Z" fill="#C4C4C4"/>
<path d="M193.087 177.2H153.816L153.635 175.785H193.062L193.087 177.2Z" fill="#C4C4C4"/>
<path d="M255.484 179.927H154.151L154.048 179.13H255.613L255.484 179.927Z" fill="#C4C4C4"/>
<path d="M255.201 181.857H154.383L154.28 181.06H255.33L255.201 181.857Z" fill="#C4C4C4"/>
<path d="M254.944 183.762H154.614L154.511 182.99H255.047L254.944 183.762Z" fill="#C4C4C4"/>
<path d="M121.677 175.656H149.155L150.236 183.762H123.326L121.677 175.656Z" fill="#C4C4C4"/>
<path d="M193.319 188.574H155.206L155.026 187.21H193.293L193.319 188.574Z" fill="#C4C4C4"/>
<path d="M253.862 191.121H155.515L155.412 190.375H253.991L253.862 191.121Z" fill="#C4C4C4"/>
<path d="M253.605 192.949H155.722L155.644 192.202H253.708L253.605 192.949Z" fill="#C4C4C4"/>
<path d="M253.347 194.75H155.953L155.85 194.004H253.45L253.347 194.75Z" fill="#C4C4C4"/>
<path d="M123.995 187.107H150.674L151.678 194.75H125.566L123.995 187.107Z" fill="#C4C4C4"/>
<path d="M248.583 148.867H284.584L283.142 156.021H247.759L248.583 148.867Z" fill="#86B6D6"/>
<path d="M263.519 150.128C261.227 150.875 260.48 152.316 261.819 153.371C263.055 154.323 265.682 154.632 267.871 154.091L269.544 155.404L270.575 155.069L268.901 153.757C270.806 152.985 271.373 151.672 270.137 150.694C268.798 149.665 265.81 149.382 263.519 150.128ZM268.283 153.293C268.128 153.371 267.974 153.422 267.793 153.474C267.613 153.525 267.433 153.577 267.253 153.628C265.63 153.988 263.776 153.757 262.849 153.062C261.845 152.264 262.411 151.183 264.137 150.643C265.862 150.077 268.102 150.283 269.107 151.08C270.008 151.749 269.622 152.702 268.283 153.293Z" fill="white"/>
<path d="M116.759 206.819L117.428 237.905L84.2857 240.169L83.3586 202.264L116.759 206.819Z" fill="#FFE563"/>
<path opacity="0.3" d="M89.9512 207.256V209.521L112.433 211.348C112.433 210.447 89.9512 207.256 89.9512 207.256Z" fill="#867834"/>
<path opacity="0.3" d="M89.7192 213.844L111.763 215.671V217.704H89.7192V213.844Z" fill="#867834"/>
<g opacity="0.5">
<path opacity="0.5" d="M80.0624 281.78C86.2944 268.09 92.1916 247.529 77.1782 238.728C75.9421 238.008 74.706 237.467 73.47 237.055C61.4438 231.497 48.5164 242.743 39.6577 253.396C36.413 251.955 30.6961 256.175 26.6273 263.072C22.4555 270.2 21.6314 277.483 24.8246 279.361L25.7517 279.901C26.0607 281.343 26.7045 282.475 27.7088 283.067L32.2154 285.717C35.7692 287.802 42.4389 283.041 47.1 275.089C51.7611 267.138 52.6624 259.006 49.1087 256.922L46.1214 255.172C53.641 244.621 64.2765 234.276 74.8348 239.526C85.4446 246.628 82.1226 262.737 77.2297 275.398L76.7919 275.141C76.4829 273.7 75.8391 272.567 74.8348 271.976L70.5085 269.454C66.9547 267.369 60.285 272.13 55.6239 280.082C50.9628 288.033 50.0615 296.165 53.6152 298.249L57.9416 300.771C58.9716 301.363 60.2592 301.389 61.6756 300.951L62.7829 301.595C65.0748 302.933 68.8089 301.08 72.2854 297.297C73.7017 295.985 75.0923 294.235 76.3027 292.176C77.513 290.118 78.3628 288.033 78.8263 286.18C79.2384 284.894 79.5474 283.684 79.7019 282.526C79.8049 282.269 79.9337 282.037 80.0624 281.78Z" fill="#A3A3A3"/>
</g>
<path d="M67.8046 287.261C70.2767 283.041 71.6931 278.743 71.9506 275.347L74.1395 271.615L69.8132 269.093C66.2595 267.009 59.5897 271.77 54.9286 279.721C50.2675 287.673 49.3662 295.805 52.92 297.889L57.2463 300.411L59.4352 296.68C62.2937 294.801 65.3324 291.481 67.8046 287.261Z" fill="#434752"/>
<path d="M72.1307 289.783C67.4696 297.735 60.7999 302.495 57.2461 300.411C53.6924 298.327 54.5937 290.195 59.2548 282.243C63.9159 274.292 70.5856 269.531 74.1394 271.615C77.6931 273.7 76.7918 281.831 72.1307 289.783Z" fill="#2A2C33"/>
<path d="M72.3626 289.937C75.0665 285.331 76.3541 280.648 76.0709 277.431L77.2297 275.45L74.1652 273.648C70.972 271.795 64.9976 276.041 60.8258 283.17C56.654 290.298 55.8299 297.58 59.0231 299.459L62.0876 301.26L63.2464 299.279C66.2079 297.941 69.6587 294.544 72.3626 289.937Z" fill="#89A5B0"/>
<path d="M75.4271 291.713C71.2553 298.841 65.2808 303.113 62.0876 301.234C58.8943 299.382 59.7184 292.073 63.8902 284.945C68.062 277.817 74.0365 273.545 77.2297 275.424C80.4229 277.302 79.6246 284.585 75.4271 291.713Z" fill="#9BBAC7"/>
<path d="M75.6074 291.816C72.3369 297.374 67.6758 300.72 65.1779 299.253C62.68 297.786 63.3238 292.099 66.5943 286.541C69.8647 280.982 74.5258 277.637 77.0238 279.104C79.5217 280.57 78.8779 286.258 75.6074 291.816Z" fill="#ABCDDB"/>
<path d="M73.7017 290.375L70.251 288.677C71.9249 286.18 74.2168 282.681 75.9937 278.332C81.4273 265.156 86.3717 246.808 75.5559 239.963C55.7012 227.405 34.9966 272.722 34.9966 272.722L28.9707 269.428C28.9707 269.428 53.5123 224.961 76.483 238.419C91.4963 247.22 85.5991 267.755 79.3672 281.471C77.5388 285.434 75.3756 288.059 73.7017 290.375Z" fill="#566873"/>
<path d="M70.251 288.651C75.8907 278.152 89.9255 248.378 73.3413 238.651C53.0745 226.788 28.9707 269.402 28.9707 269.402L27.8892 268.759C27.8892 268.759 52.714 225.218 74.0881 237.364C87.0155 244.724 82.6119 263.406 77.0753 277.071C75.0409 282.115 70.251 288.651 70.251 288.651Z" fill="#6F8694"/>
<path d="M42.3359 254.992L39.2714 253.19C36.0782 251.338 30.1038 255.583 25.932 262.712C21.7602 269.84 20.9361 277.122 24.1293 279.001L27.1938 280.802C30.387 282.655 36.3615 278.409 40.5333 271.281C44.7051 264.153 45.5034 256.844 42.3359 254.992Z" fill="#89A5B0"/>
<path d="M41.9239 272.079C44.2931 268.038 45.6837 263.973 46.0185 260.653L48.4392 256.536L43.9326 253.885C40.3788 251.801 33.7091 256.561 29.048 264.513C24.3869 272.465 23.4856 280.596 27.0394 282.681L31.5459 285.331L33.9666 281.214C36.6706 279.335 39.5548 276.119 41.9239 272.079Z" fill="#434752"/>
<path d="M33.5546 267.189C28.8935 275.141 27.9922 283.273 31.5459 285.357C35.0997 287.441 41.7694 282.681 46.4305 274.729C51.0916 266.777 51.9929 258.646 48.4392 256.561C44.8854 254.477 38.2157 259.238 33.5546 267.189Z" fill="#2A2C33"/>
<path d="M43.9841 273.314C41.5376 277.483 38.0611 279.979 36.1812 278.898C35.898 278.718 35.6662 278.46 35.4602 278.152C34.5074 276.453 35.1512 272.902 37.2113 269.377C39.2715 265.877 42.0784 263.561 44.0098 263.561C44.3703 263.561 44.7051 263.638 45.0141 263.818C46.894 264.873 46.4305 269.119 43.9841 273.314Z" fill="#363A42"/>
<path d="M42.2843 272.31C40.2242 275.81 37.443 278.126 35.4858 278.126C34.533 276.428 35.1768 272.876 37.2369 269.351C39.2971 265.851 42.1041 263.535 44.0354 263.535C44.9883 265.233 44.3445 268.785 42.2843 272.31Z" fill="#202126"/>
<path d="M140.142 236.901L140.065 257.951L119.154 267.833C119.154 267.833 122.116 252.547 123.352 248.919C124.588 245.29 132.365 238.136 134.013 237.467C134.425 237.287 135.017 237.184 135.687 237.107C137.052 236.927 138.7 236.901 139.55 236.927C139.91 236.901 140.142 236.901 140.142 236.901Z" fill="#FFC393"/>
<path opacity="0.5" d="M139.549 236.901L126.03 249.793L135.686 237.081C137.051 236.901 138.699 236.875 139.549 236.901Z" fill="#EBA87F"/>
<path d="M154.82 238.934L130.639 253.293L126.055 249.768C126.055 249.768 137.464 236.412 140.219 235.048C141.841 234.251 146.451 235.64 150.082 236.978C152.709 238.008 154.82 238.934 154.82 238.934Z" fill="#FFC393"/>
<path opacity="0.5" d="M154.82 238.934L130.639 253.293C131.103 251.157 138.287 239.346 141.3 238.033C143 237.287 146.992 237.055 150.082 237.004C152.709 238.008 154.82 238.934 154.82 238.934Z" fill="#EBA87F"/>
<path d="M156.855 239.166C156.855 239.166 158.477 242.254 153.507 244.492C151.112 245.573 149.232 245.856 147.919 245.831C146.528 245.805 145.781 245.47 145.781 245.47L142.253 251.08L137.747 258.285L130.639 253.293C130.639 253.293 137.747 241.224 141.249 239.063C143.026 237.956 146.992 238.008 150.494 238.316C152.4 238.471 154.176 238.728 155.361 238.908C156.288 239.063 156.855 239.166 156.855 239.166Z" fill="#FFC393"/>
<path opacity="0.5" d="M155.361 238.908L147.919 245.831L142.253 251.106L136.356 256.587C136.356 256.587 144.159 242.408 146.142 240.272C147.12 239.217 149.361 238.625 150.494 238.316C152.4 238.471 154.176 238.728 155.361 238.908Z" fill="#EBA87F"/>
<path d="M165.507 242.022C160.717 245.033 153.739 246.705 153.739 246.705L145.292 260.087L147.532 263.947L154.151 262.12C154.151 262.12 156.88 257.076 159.404 253.731C161.953 250.36 165.559 248.327 167.722 250.746C167.799 250.849 167.825 251.08 167.773 251.44C167.619 252.624 166.769 255.095 165.687 257.848C164.168 261.708 162.185 266.108 161.001 268.193C158.76 272.181 141.275 282.784 139.524 283.324C137.772 283.864 134.682 288.985 134.682 288.985L112.175 277.38L119.128 267.833C119.128 267.833 134.734 257.874 136.305 256.587C137.901 255.3 146.09 242.125 147.816 240.735C149.078 239.706 156.211 238.085 161.258 236.824C162.778 236.438 164.117 236.078 165.044 235.795C165.224 235.743 165.404 235.666 165.559 235.614C168.984 234.405 170.297 239.011 165.507 242.022Z" fill="#FFC393"/>
<path opacity="0.4" d="M167.567 237.287C167.336 237.339 163.782 238.059 161.335 236.875C161.31 236.875 161.284 236.85 161.284 236.85C162.803 236.464 164.142 236.103 165.069 235.82C166.718 236.438 167.49 237.184 167.567 237.287Z" fill="#FFC393"/>
<path opacity="0.4" d="M167.774 251.415C167.619 252.598 166.769 255.069 165.688 257.822C162.984 255.506 165.688 251.492 165.688 251.492L167.774 251.415Z" fill="#FFC393"/>
<path d="M136.794 288.574L111.506 272.516L107.823 277.097L135.455 293.592L136.794 288.574Z" fill="white"/>
<path d="M138.391 293.257L89.5134 386H29.8206L106.793 274.909L108.673 276.016L135.918 291.816L138.391 293.257Z" fill="#2C3352"/>
<path d="M206.839 306.535C206.968 306.613 207.096 306.664 207.225 306.741C208.126 307.127 209.414 308.028 210.908 309.212C215.801 313.046 222.857 319.659 225.097 320.303C228.033 321.152 249.767 320.251 249.767 320.251L266.274 310.215C266.274 310.215 258.78 293.206 246.6 282.243C243.561 279.515 241.063 278.357 239.261 277.714C237.999 277.277 235.655 277.766 234.084 278.538C233.415 278.872 232.874 279.258 232.642 279.644C231.509 278.769 230.119 278.177 228.522 278.074C228.136 278.023 227.724 278.023 227.337 278.049C225.303 278.177 223.32 279.799 222.625 280.854C222.599 280.905 222.573 280.931 222.573 280.957C221.955 282.012 222.548 282.989 222.548 282.989C222.548 282.989 220.977 282.603 219.509 282.938C218.041 283.273 216.419 285.254 216.47 286.026C216.496 286.901 218.504 289.371 218.685 289.603C218.324 289.32 212.376 284.611 206.041 280.082C205.423 279.644 204.83 279.31 204.289 279.078C201.998 278.1 200.401 278.898 199.577 280.03C198.547 281.471 198.315 283.17 201.379 285.589C205.912 289.191 229.99 307.822 229.99 307.822L223.166 309.34C223.166 309.34 217.449 304.297 212.71 302.289C208.126 300.437 203.749 304.734 206.839 306.535Z" fill="#FFC393"/>
<path opacity="0.4" d="M206.839 306.536C206.968 306.613 207.096 306.664 207.225 306.741C208.126 307.127 209.414 308.028 210.908 309.212C212.298 306.304 208.899 303.679 208.899 303.679L206.839 306.536Z" fill="#FFC393"/>
<path opacity="0.5" d="M204.289 279.129C207.689 281.6 214.539 286.721 217.835 289.706C221.955 293.463 226.616 295.65 226.925 295.779C226.539 295.419 216.908 286.232 216.47 286.077C216.496 286.952 218.504 289.423 218.685 289.654C218.324 289.371 212.375 284.662 206.04 280.133C205.397 279.696 204.83 279.361 204.289 279.129Z" fill="#EBA87F"/>
<path opacity="0.5" d="M219.483 282.989C221.389 283.35 230.067 289.835 232.823 291.739C230.814 290.066 224.118 283.839 222.599 280.905C222.573 280.957 222.548 280.982 222.548 281.008C221.93 282.063 222.522 283.041 222.522 283.041C222.522 283.041 220.951 282.655 219.483 282.989Z" fill="#EBA87F"/>
<path opacity="0.5" d="M239.595 285.717C238.539 284.714 233.801 280.107 233.956 279.027C233.981 278.872 234.033 278.718 234.084 278.563C233.415 278.898 232.874 279.284 232.642 279.67C231.509 278.795 230.119 278.203 228.522 278.1C233.132 279.953 238.462 284.688 239.595 285.717Z" fill="#EBA87F"/>
<path d="M269.184 306.458L242.402 322.361L245.338 327.482L274.412 311.914L269.184 306.458Z" fill="white"/>
<path d="M334.233 386H276.704L241.243 326.942L244.076 325.295L271.888 309.289L273.459 308.388L334.233 386Z" fill="#2C3352"/>
<path opacity="0.4" d="M199.783 282.578L202.178 279.258C202.178 279.258 205.423 281.291 204.393 283.247C203.362 285.203 199.783 282.578 199.783 282.578Z" fill="#FFC393"/>
<path d="M68.0106 167.704C76.8435 156.793 75.1696 140.787 64.2508 131.961C53.332 123.134 37.3143 124.807 28.4814 135.718C19.6485 146.629 21.3224 162.635 32.2412 171.461C43.16 180.313 59.1777 178.615 68.0106 167.704ZM33.7091 169.66C23.7946 161.631 22.2752 147.117 30.2841 137.21C38.3186 127.303 52.8427 125.785 62.7572 133.788C72.6717 141.816 74.191 156.33 66.1822 166.237C58.1734 176.145 43.6235 177.663 33.7091 169.66Z" fill="#4E7691"/>
<path d="M31.581 169.66L27.6592 174.5L30.2611 176.606L34.1828 171.766L31.581 169.66Z" fill="#608299"/>
<path d="M68.5512 168.142C77.6159 156.948 75.8905 140.504 64.6885 131.446C53.4864 122.388 37.0309 124.112 27.9663 135.306C18.8758 146.5 20.6012 162.943 31.8033 172.002C43.0311 181.06 59.4608 179.336 68.5512 168.142ZM33.3226 170.123C23.1506 161.888 21.5798 146.963 29.8204 136.798C38.061 126.634 52.9971 125.064 63.1691 133.299C73.3411 141.533 74.912 156.459 66.6713 166.623C58.4307 176.788 43.4946 178.358 33.3226 170.123Z" fill="#86B6D6"/>
<path opacity="0.4" d="M68.8861 140.041C75.3498 151.415 71.3325 165.877 59.9502 172.336C48.5678 178.795 34.0953 174.781 27.6315 163.407C21.1678 152.033 25.1593 137.57 36.5674 131.111C47.9498 124.652 62.4223 128.667 68.8861 140.041Z" fill="#86B6D6"/>
<path opacity="0.3" d="M58.7915 171.23C48.1817 176.968 34.9195 173.16 28.945 162.66C22.8933 152.007 26.6531 138.471 37.3144 132.424C38.1127 131.961 38.9368 131.575 39.7608 131.24C35.28 138.342 35.1512 148.61 40.2501 157.565C44.5507 165.182 51.6067 170.046 58.7915 171.23Z" fill="white"/>
<path d="M28.0903 172.809L0.00585938 207.469L3.74855 210.497L31.833 175.837L28.0903 172.809Z" fill="#C76624"/>
<g opacity="0.4">
<path opacity="0.4" d="M95.7453 174.523L91.5219 176.788L89.333 177.972L34.6103 207.333C34.6103 207.333 29.4084 210.962 26.1636 213.612C24.5928 214.899 23.4854 215.954 23.6657 216.237C23.7945 216.469 24.7215 216.314 26.0349 215.954C29.6144 214.951 36.0009 212.403 37.0824 211.811C37.1082 211.811 37.1082 211.785 37.1339 211.785L91.831 182.449L94.0199 181.266L98.2432 179.001L95.7453 174.523Z" fill="#A3A3A3"/>
</g>
<path d="M36.6449 210.319L34.147 205.841L88.8955 176.479L91.3934 180.957L36.6449 210.319Z" fill="#FFB655"/>
<path opacity="0.5" d="M36.0011 209.161L34.7908 206.999L89.5393 177.637L90.7496 179.799L36.0011 209.161Z" fill="#FFB655"/>
<path d="M93.5566 179.773L91.0844 175.321L88.8955 176.479L91.3934 180.957L93.5566 179.773Z" fill="#FFF0DD"/>
<path d="M93.5567 179.773L91.0845 175.321L95.282 173.057L97.78 177.509L93.5567 179.773Z" fill="#E2BF98"/>
<path d="M36.645 210.319C35.5634 210.91 29.1769 213.458 25.5974 214.462C24.2841 214.822 23.357 214.976 23.2283 214.745C23.0737 214.462 24.1811 213.407 25.7262 212.12C28.9709 209.469 34.1728 205.841 34.1728 205.841C34.1728 205.841 36.2587 205.403 35.5119 206.639C37.1085 205.661 39.0914 206.69 37.0055 208.62C40.0957 207.076 38.1129 209.521 36.645 210.319Z" fill="#D4B38E"/>
<path d="M25.5973 214.462C25.5715 214.462 25.5715 214.462 25.5973 214.462C24.284 214.822 23.3569 214.976 23.2024 214.745C23.0479 214.462 24.1552 213.407 25.7003 212.12C26.2926 212.197 25.3913 213.432 25.3913 213.432C25.3913 213.432 30.2584 212.48 25.5973 214.462Z" fill="#473921"/>
</svg>
